<svg id="Layer_1" data-name="Layer 1" xmlns="http://www.w3.org/2000/svg" viewBox="0 0 130.5 100"><defs><style>.cls-1{fill:#e3eef3;}.cls-2{fill:#027fad;}</style></defs><title>DevDotSvgGAssets</title><rect class="cls-1" width="130.5" height="99.59"/><path class="cls-2" d="M23.43,87a2,2,0,0,1-2-2V12.62a2,2,0,0,1,3.91,0V85A2,2,0,0,1,23.43,87Z"/><path class="cls-2" d="M107.07,87a2,2,0,0,1-2-2V12.62a2,2,0,0,1,3.91,0V85A2,2,0,0,1,107.07,87Z"/><path class="cls-2" d="M31.26,71.32a2,2,0,0,1-2-2V12.62a2,2,0,1,1,3.91,0V69.36A2,2,0,0,1,31.26,71.32Z"/><path class="cls-2" d="M41.23,71.32a2,2,0,0,1-2-2V12.62a2,2,0,1,1,3.91,0V69.36A2,2,0,0,1,41.23,71.32Z"/><path class="cls-2" d="M47.1,71.32a2,2,0,0,1-2-2V12.62a2,2,0,1,1,3.91,0V69.36A2,2,0,0,1,47.1,71.32Z"/><path class="cls-2" d="M53,71.32a2,2,0,0,1-2-2V12.62a2,2,0,1,1,3.91,0V69.36A2,2,0,0,1,53,71.32Z"/><path class="cls-2" d="M64.71,71.32a2,2,0,0,1-2-2V12.62a2,2,0,1,1,3.91,0V69.36A2,2,0,0,1,64.71,71.32Z"/><path class="cls-2" d="M74.49,71.32a2,2,0,0,1-2-2V12.62a2,2,0,1,1,3.91,0V69.36A2,2,0,0,1,74.49,71.32Z"/><path class="cls-2" d="M81.64,71.32a2,2,0,0,1-2-2V12.62a2,2,0,1,1,3.91,0V69.36A2,2,0,0,1,81.64,71.32Z"/><path class="cls-2" d="M87.51,71.32a2,2,0,0,1-2-2V12.62a2,2,0,1,1,3.91,0V69.36A2,2,0,0,1,87.51,71.32Z"/><path class="cls-2" d="M99.24,71.32a2,2,0,0,1-2-2V12.62a2,2,0,0,1,3.91,0V69.36A2,2,0,0,1,99.24,71.32Z"/><path class="cls-2" d="M31.26,83.05a2,2,0,0,1-2-2v-2a2,2,0,1,1,3.91,0v2A2,2,0,0,1,31.26,83.05Z"/><path class="cls-2" d="M37.32,83.05a2,2,0,0,1-2-2v-2a2,2,0,0,1,3.91,0v2A2,2,0,0,1,37.32,83.05Z"/><path class="cls-2" d="M43.19,83.05a2,2,0,0,1-2-2v-2a2,2,0,0,1,3.91,0v2A2,2,0,0,1,43.19,83.05Z"/><path class="cls-2" d="M49.06,83.05a2,2,0,0,1-2-2v-2a2,2,0,0,1,3.91,0v2A2,2,0,0,1,49.06,83.05Z"/><path class="cls-2" d="M54.93,83.05a2,2,0,0,1-2-2v-2a2,2,0,0,1,3.91,0v2A2,2,0,0,1,54.93,83.05Z"/><path class="cls-2" d="M60.8,83.05a2,2,0,0,1-2-2v-2a2,2,0,1,1,3.91,0v2A2,2,0,0,1,60.8,83.05Z"/><path class="cls-2" d="M66.67,83.05a2,2,0,0,1-2-2v-2a2,2,0,0,1,3.91,0v2A2,2,0,0,1,66.67,83.05Z"/><path class="cls-2" d="M72.54,83.05a2,2,0,0,1-2-2v-2a2,2,0,1,1,3.91,0v2A2,2,0,0,1,72.54,83.05Z"/><path class="cls-2" d="M81.64,83.05a2,2,0,0,1-2-2v-2a2,2,0,1,1,3.91,0v2A2,2,0,0,1,81.64,83.05Z"/><path class="cls-2" d="M87.51,83.05a2,2,0,0,1-2-2v-2a2,2,0,0,1,3.91,0v2A2,2,0,0,1,87.51,83.05Z"/><path class="cls-2" d="M93.38,83.05a2,2,0,0,1-2-2v-2a2,2,0,1,1,3.91,0v2A2,2,0,0,1,93.38,83.05Z"/><path class="cls-2" d="M99.24,83.05a2,2,0,0,1-2-2v-2a2,2,0,0,1,3.91,0v2A2,2,0,0,1,99.24,83.05Z"/></svg>