<svg id="Layer_1" data-name="Layer 1" xmlns="http://www.w3.org/2000/svg" viewBox="0 0 200 200"><defs><style>.cls-1{fill:#77c5e4;}.cls-2{fill:#e4eff5;}.cls-3{fill:#c9e4f1;}.cls-4{fill:#aedaec;}.cls-5{fill:#0e9bd2;}.cls-6{fill:#c9e5f2;}.cls-7{fill:#fff;}</style></defs><title>DevDot</title><polygon class="cls-1" points="3.79 153.82 1.83 151.85 1.83 4 3.79 2.03 64.46 2.03 66.43 4 66.43 151.85 64.46 153.82 3.79 153.82"/><path class="cls-2" d="M64.46,4V151.85H3.79V4H64.46m0-3.93H3.79L-.14,4V151.85l3.93,3.93H64.46l3.93-3.93V4L64.46.07Z"/><polygon class="cls-3" points="70.46 153.82 68.5 151.85 68.5 4 70.46 2.03 131.13 2.03 133.09 4 133.09 151.85 131.13 153.82 70.46 153.82"/><path class="cls-2" d="M131.13,4V151.85H70.46V4h60.67m0-3.93H70.46L66.53,4V151.85l3.93,3.93h60.67l3.93-3.93V4L131.13.07Z"/><polygon class="cls-4" points="136.13 153.82 134.16 151.85 134.16 4 136.13 2.03 195.79 2.03 197.76 4 197.76 151.85 195.79 153.82 136.13 153.82"/><path class="cls-2" d="M195.79,4V151.85H136.13V4h59.67m0-3.93H136.13L132.2,4V151.85l3.93,3.93h59.67l3.93-3.93V4L195.79.07Z"/><rect class="cls-5" x="0.79" y="140.74" width="66.67" height="59.26"/><rect class="cls-5" x="67.46" y="140.74" width="66.67" height="59.26"/><rect class="cls-5" x="134.13" y="140.74" width="66.67" height="59.26"/><rect class="cls-6" x="15.61" y="151.85" width="37.04" height="37.04"/><rect class="cls-6" x="82.28" y="151.85" width="37.04" height="37.04"/><rect class="cls-6" x="148.94" y="151.85" width="37.04" height="37.04"/><path class="cls-7" d="M43.1,91.9h0l1.39-.59a5.79,5.79,0,0,0,1.24-.69,2.53,2.53,0,0,0,.7-.86,2.72,2.72,0,0,0,.26-1.22,2.83,2.83,0,0,0-.86-2.07,2.65,2.65,0,0,0-1.91-.86,8.56,8.56,0,0,0-2.9.82L24.41,93.15l-2,.79a7.88,7.88,0,0,0-1.47.79A3.88,3.88,0,0,0,19.76,96a4.54,4.54,0,0,0,0,4,3.81,3.81,0,0,0,1.2,1.3,9.18,9.18,0,0,0,1.75.88l18.46,7.27c.67.27,1.21.47,1.59.59a4,4,0,0,0,1.2.19,2.58,2.58,0,0,0,1.91-.87,2.82,2.82,0,0,0,.82-2,2.31,2.31,0,0,0-.83-2,11.75,11.75,0,0,0-2.71-1.28L40.1,103V93Zm-7.66,2.82v6.63l-9.16-3.29Z"/><path class="cls-7" d="M38.33,74.9A3.17,3.17,0,0,0,39,72.73V67.17A3.15,3.15,0,0,0,38.33,65a2.53,2.53,0,0,0-3.61,0,3.16,3.16,0,0,0-.69,2.2v5.55a3.16,3.16,0,0,0,.69,2.2,2.36,2.36,0,0,0,1.81.76A2.31,2.31,0,0,0,38.33,74.9Z"/><path class="cls-7" d="M42,37.67a9.84,9.84,0,0,0-2.59-.7,25.79,25.79,0,0,0-3-.15H22.84a3.82,3.82,0,0,0-2.62.81,2.83,2.83,0,0,0-.92,2.2A2.76,2.76,0,0,0,20.22,42a3.88,3.88,0,0,0,2.62.79H37.09c3.17,0,4.71,1,4.71,3.09a2.73,2.73,0,0,1-.49,1.77,2.88,2.88,0,0,1-1.23.89,16.85,16.85,0,0,1-2.11.58,4.5,4.5,0,0,0-2,.89,2.34,2.34,0,0,0-.72,1.85,2.68,2.68,0,0,0,2.91,2.82,9.66,9.66,0,0,0,2.54-.36,10.18,10.18,0,0,0,2.36-1,6.8,6.8,0,0,0,2.82-3,10.62,10.62,0,0,0,.86-4.53,10,10,0,0,0-1.24-5.11A7.13,7.13,0,0,0,42,37.67Z"/><path class="cls-7" d="M108.81,93.89a4.39,4.39,0,0,0,1.35-1.27,3.48,3.48,0,0,0,.53-2,3,3,0,0,0-.73-2.09,2.88,2.88,0,0,0-3.52-.37,13.49,13.49,0,0,0-2,1.19L94.27,96.48l-5.79-6.11a3.57,3.57,0,0,0-2.54-1.29,2.51,2.51,0,0,0-1.88.81A2.91,2.91,0,0,0,83.3,92a2.7,2.7,0,0,0,.44,1.6,9.67,9.67,0,0,0,1.19,1.31l10,9.6h-8.1a3.76,3.76,0,0,0-2.64.83,2.86,2.86,0,0,0-.9,2.18,2.76,2.76,0,0,0,.92,2.17,3.88,3.88,0,0,0,2.62.79H106c.83,0,1.47,0,1.91-.05a3.49,3.49,0,0,0,1.3-.35A2.85,2.85,0,0,0,110.3,109a2.93,2.93,0,0,0,.4-1.47,2.87,2.87,0,0,0-.9-2.17,3.76,3.76,0,0,0-2.66-.84H102l-3.67-3.83,9.1-5.91Z"/><path class="cls-7" d="M102.33,76.21A3.17,3.17,0,0,0,103,74V68.48a3.15,3.15,0,0,0-.69-2.21,2.53,2.53,0,0,0-3.61,0,3.16,3.16,0,0,0-.69,2.2V74a3.16,3.16,0,0,0,.69,2.2,2.36,2.36,0,0,0,1.81.76A2.31,2.31,0,0,0,102.33,76.21Z"/><path class="cls-7" d="M106.55,34.78a8,8,0,0,0-4.4-1.26,7.52,7.52,0,0,0-3.47.74,6.54,6.54,0,0,0-2.36,2,12.41,12.41,0,0,0-1.54,3.1,39.74,39.74,0,0,0-1.13,4q-.44,1.73-.66,2.48a7.48,7.48,0,0,1-.6,1.42,3.2,3.2,0,0,1-.86,1,1.78,1.78,0,0,1-1.11.35,2.21,2.21,0,0,1-1.83-1.08,5.14,5.14,0,0,1-.82-3,4.62,4.62,0,0,1,.73-2.92A6.35,6.35,0,0,1,90.65,40a6.33,6.33,0,0,0,1.56-1.08,2.25,2.25,0,0,0,.55-1.62,2.47,2.47,0,0,0-.87-1.92c-1.15-1-2.68-.93-4.18-.19A6.94,6.94,0,0,0,85.54,37a9.09,9.09,0,0,0-1.63,3,13.22,13.22,0,0,0-.61,4.23,14.18,14.18,0,0,0,.92,5.31A7.72,7.72,0,0,0,86.89,53a6.81,6.81,0,0,0,4,1.23,6.55,6.55,0,0,0,4-1.17A7.91,7.91,0,0,0,97.33,50a24.8,24.8,0,0,0,1.55-4.72c.31-1.36.61-2.47.89-3.28a4.7,4.7,0,0,1,1.13-1.87,2.47,2.47,0,0,1,1.82-.68,2.87,2.87,0,0,1,2.4,1.3,5.81,5.81,0,0,1,1,3.55,5.62,5.62,0,0,1-.49,2.55,4,4,0,0,1-1.24,1.47,10.1,10.1,0,0,1-2,1,4.53,4.53,0,0,0-1.7,1.07,2.36,2.36,0,0,0-.63,1.65,2.66,2.66,0,0,0,2.68,2.71,6.67,6.67,0,0,0,3.57-1.16,8.79,8.79,0,0,0,2.89-3,12.8,12.8,0,0,0,1.49-6.48,13.64,13.64,0,0,0-1.09-5.66A8.4,8.4,0,0,0,106.55,34.78Z"/><path class="cls-7" d="M175.79,97.06a3.81,3.81,0,0,0-2.65-.82H154.79V90.92a3.32,3.32,0,0,0-.68-2.25,2.34,2.34,0,0,0-1.84-.79,2.38,2.38,0,0,0-1.84.78,3.29,3.29,0,0,0-.69,2.26v16.59a3.3,3.3,0,0,0,.67,2.2,2.56,2.56,0,0,0,3.7,0,3.25,3.25,0,0,0,.69-2.24v-5.32h18.35a3.79,3.79,0,0,0,2.65-.83,2.82,2.82,0,0,0,.91-2.17A2.79,2.79,0,0,0,175.79,97.06Z"/><path class="cls-7" d="M164.72,68a3.16,3.16,0,0,0-.69,2.2v5.55a3.16,3.16,0,0,0,.69,2.2,2.36,2.36,0,0,0,1.81.76,2.31,2.31,0,0,0,1.8-.78,3.17,3.17,0,0,0,.68-2.17V70.18a3.15,3.15,0,0,0-.69-2.21,2.53,2.53,0,0,0-3.61,0Z"/><path class="cls-7" d="M152.12,56.77a2.12,2.12,0,0,0,1.67-.74,3,3,0,0,0,.62-2V43.42l15.22,12.72.87.74q.51.43.85.68a3.36,3.36,0,0,0,.78.43,2.64,2.64,0,0,0,.94.17,3,3,0,0,0,2.33-1,4.13,4.13,0,0,0,.86-2.82V37.61a3,3,0,0,0-.64-2.06,2.27,2.27,0,0,0-1.75-.72,2.09,2.09,0,0,0-1.69.73,3.14,3.14,0,0,0-.59,2.05V50.44L157.48,38.59A24.73,24.73,0,0,0,155,36.64a4.14,4.14,0,0,0-2.22-.53c-2,0-3,1.11-3,3.22V54a3,3,0,0,0,.65,2.05A2.24,2.24,0,0,0,152.12,56.77Z"/></svg>