<?xml version="1.0" encoding="utf-8"?>
<!-- Generator: Adobe Illustrator 20.0.0, SVG Export Plug-In . SVG Version: 6.00 Build 0)  -->
<svg version="1.1" id="Layer_1" xmlns="http://www.w3.org/2000/svg" xmlns:xlink="http://www.w3.org/1999/xlink" x="0px" y="0px"
	 viewBox="0 0 260.4 200" style="enable-background:new 0 0 260.4 200;" xml:space="preserve">
<style type="text/css">
	.st0{fill:#0680AE;}
	.st1{fill:#0A9BD2;}
</style>
<title>DevDotSvgAssets</title>
<path class="st0" d="M261.1,199.6H-1.5V-0.5h262.6V199.6z M1.5,196.6h256.6V2.5H1.5V196.6z"/>
<rect x="33.4" y="31.8" class="st0" width="10.4" height="135.2"/>
<rect x="49.1" y="31.8" class="st0" width="10.4" height="135.2"/>
<rect x="219.8" y="31.8" class="st0" width="9.9" height="135.2"/>
<rect x="68.2" y="31.8" class="st0" width="2" height="112.9"/>
<rect x="92.7" y="31.8" class="st0" width="4" height="112.9"/>
<rect x="104.3" y="31.8" class="st0" width="6.2" height="112.9"/>
<rect x="76.8" y="31.8" class="st0" width="10.4" height="112.9"/>
<rect x="117" y="31.8" class="st0" width="6.2" height="112.9"/>
<rect x="144.6" y="31.8" class="st0" width="2" height="112.9"/>
<rect x="163.7" y="31.8" class="st0" width="2" height="112.9"/>
<rect x="157.3" y="31.8" class="st0" width="2" height="112.9"/>
<rect x="131.9" y="31.8" class="st0" width="2" height="112.9"/>
<rect x="138.2" y="31.8" class="st0" width="2" height="112.9"/>
<rect x="167.9" y="31.8" class="st0" width="6.2" height="112.9"/>
<rect x="193.4" y="31.8" class="st0" width="6.2" height="112.9"/>
<rect x="207.2" y="31.8" class="st0" width="4" height="135.2"/>
<rect x="178.6" y="31.8" class="st0" width="10.4" height="112.9"/>
<path class="st1" d="M76.8,168.6c-0.8,0-1.7-0.2-2.4-0.6c-0.8-0.3-1.4-0.9-1.8-1.6c-0.6-0.7-1-1.5-1.2-2.4c-0.3-1.1-0.4-2.2-0.4-3.4
	c0-1.1,0.2-2.3,0.4-3.4c0.1-0.9,0.6-1.7,1.2-2.4c0.5-0.6,1.1-1.1,1.8-1.4c0.8-0.2,1.6-0.4,2.4-0.4c0.8,0,1.6,0.2,2.4,0.4
	c0.7,0.3,1.4,0.8,1.8,1.4c0.6,0.7,1,1.5,1.2,2.4c0.5,2.2,0.5,4.5,0,6.8c-0.1,0.9-0.6,1.7-1.2,2.4c-0.6,0.6-1.2,1.1-1.8,1.6
	C78.4,168.4,77.6,168.6,76.8,168.6z M76.8,155.7c-0.3-0.1-0.7,0-1,0.2c-0.4,0.2-0.6,0.4-0.8,0.8c-0.2,0.5-0.4,1-0.6,1.6
	c-0.3,1.6-0.3,3.2,0,4.8c0.2,0.5,0.4,1.1,0.6,1.6c0.2,0.4,0.6,0.6,0.8,0.8c0.3,0.2,0.7,0.2,1,0.2c0.3,0.1,0.7,0,1-0.2
	c0.4-0.2,0.6-0.4,0.8-0.8c0.2-0.5,0.4-1,0.6-1.6c0.3-1.6,0.3-3.2,0-4.8c-0.2-0.5-0.4-1.1-0.6-1.6c-0.2-0.4-0.6-0.6-0.8-0.8
	C77.5,155.7,77.1,155.7,76.8,155.7L76.8,155.7z M76.8,162.5c-0.4,0-0.9-0.1-1.2-0.4c-0.8-0.7-0.8-1.9-0.1-2.7c0,0,0,0,0.1-0.1
	c0.3-0.3,0.8-0.5,1.2-0.4c0.4,0,0.9,0.1,1.2,0.4c0.8,0.7,0.8,1.9,0.1,2.7c0,0,0,0-0.1,0.1C77.6,162.4,77.2,162.5,76.8,162.5
	L76.8,162.5z"/>
<path class="st1" d="M96.7,165.4v2.8H85.7v-2.8h4v-8.8h-3.2v-2.2c0.8-0.2,1.6-0.4,2.2-0.6c0.6-0.2,1.2-0.5,1.8-0.8h2.6v12.3
	L96.7,165.4z"/>
<path class="st1" d="M99.7,166.4c0.9-0.9,2-1.8,3-2.6c0.7-0.8,1.5-1.5,2.4-2.2c0.6-0.6,1.1-1.2,1.4-2c0.4-0.5,0.6-1.1,0.6-1.8
	c0.2-1.2-0.6-2.2-1.8-2.4c-0.2,0-0.4,0-0.6,0c-0.6,0-1.1,0.2-1.6,0.4c-0.5,0.3-1,0.6-1.4,1l-2.2-1.6c0.3-0.4,0.7-0.7,1.2-1
	c0.3-0.3,0.8-0.6,1.2-0.8c0.4-0.2,0.9-0.4,1.4-0.4c0.5-0.2,1.1-0.2,1.6-0.2c0.7,0,1.5,0.2,2.2,0.4c0.6,0.2,1.1,0.6,1.6,1
	c0.4,0.5,0.8,1,1.2,1.6c0.2,0.6,0.4,1.3,0.4,2c-0.1,0.7-0.2,1.4-0.4,2c-0.3,0.7-0.7,1.4-1.2,2c-0.6,0.6-1.2,1.4-1.8,2
	c-0.7,0.7-1.4,1.4-2.2,2c0.5,0,0.9,0,1.4-0.2h5v3H99.7V166.4z"/>
<path class="st1" d="M115.2,164.3c0.6,0.4,1.2,0.8,1.8,1.2c0.6,0.2,1.3,0.4,2,0.4c0.7,0,1.4-0.1,2-0.4c0.5-0.3,0.8-0.8,0.8-1.4
	c0-0.3,0-0.7-0.2-1c-0.2-0.2-0.5-0.5-0.8-0.6c-0.4-0.2-0.9-0.4-1.4-0.4c-0.7-0.2-1.5-0.2-2.2-0.2v-2.4c1.1,0.1,2.2-0.1,3.2-0.6
	c0.6-0.4,1-0.8,1-1.4c0.1-0.5-0.2-1-0.6-1.2c-1-0.5-2.2-0.5-3.2,0c-0.6,0.3-1.1,0.6-1.6,1l-1.8-2.2c0.8-0.5,1.6-1,2.4-1.4
	c0.9-0.4,1.8-0.6,2.8-0.6c0.7,0,1.5,0,2.2,0.2c0.6,0.2,1.2,0.5,1.8,0.8c0.4,0.4,0.8,0.9,1.2,1.4c0.2,0.6,0.4,1.2,0.4,1.8
	c0,0.8-0.3,1.5-0.8,2c-0.6,0.6-1.4,1.1-2.2,1.4l0,0c0.9,0.1,1.8,0.6,2.4,1.4c0.6,0.6,1,1.5,1,2.4c0,0.6-0.1,1.2-0.4,1.8
	c-0.4,0.6-0.8,1-1.4,1.4c-0.6,0.4-1.3,0.7-2,0.8c-0.8,0.2-1.6,0.2-2.4,0.2c-1.2,0-2.3-0.2-3.4-0.6c-0.9-0.4-1.7-0.9-2.4-1.6
	L115.2,164.3z"/>
<path class="st1" d="M134.1,168.6c-0.8,0-1.7-0.2-2.4-0.6c-0.8-0.3-1.4-0.9-1.8-1.6c-0.6-0.7-1-1.5-1.2-2.4
	c-0.3-1.1-0.4-2.2-0.4-3.4c0-1.1,0.2-2.3,0.4-3.4c0.1-0.9,0.6-1.7,1.2-2.4c0.5-0.6,1.1-1.1,1.8-1.4c0.8-0.2,1.6-0.4,2.4-0.4
	c0.8,0,1.6,0.2,2.4,0.4c0.7,0.3,1.3,0.8,1.8,1.4c0.6,0.7,1,1.5,1.2,2.4c0.5,2.2,0.5,4.5,0,6.8c-0.1,0.9-0.6,1.7-1.2,2.4
	c-0.5,0.6-1.1,1.1-1.8,1.6C135.7,168.4,134.9,168.6,134.1,168.6z M134.1,155.7c-0.3-0.1-0.7,0-1,0.2c-0.4,0.2-0.6,0.4-0.8,0.8
	c-0.2,0.5-0.4,1-0.6,1.6c-0.3,1.6-0.3,3.2,0,4.8c0.2,0.5,0.4,1.1,0.6,1.6c0.2,0.4,0.6,0.6,0.8,0.8c0.3,0.2,0.7,0.2,1,0.2
	c0.3,0.1,0.7,0,1-0.2c0.4-0.2,0.6-0.4,0.8-0.8c0.2-0.5,0.4-1,0.6-1.6c0.3-1.6,0.3-3.2,0-4.8c-0.2-0.5-0.4-1.1-0.6-1.6
	c-0.2-0.4-0.6-0.6-0.8-0.8C134.8,155.7,134.4,155.7,134.1,155.7L134.1,155.7z M134.1,162.5c-0.4,0-0.9-0.1-1.2-0.4
	c-0.8-0.7-0.8-1.9-0.1-2.7c0,0,0,0,0.1-0.1c0.3-0.3,0.8-0.5,1.2-0.4c0.4,0,0.8,0.2,1.2,0.4c0.4,0.4,0.6,0.9,0.6,1.4
	c0,0.5-0.2,1-0.6,1.4C134.9,162.5,134.7,162.5,134.1,162.5L134.1,162.5z"/>
<path class="st1" d="M148.4,168.6c-0.8,0-1.6-0.2-2.4-0.6c-0.8-0.3-1.4-0.9-1.8-1.6c-0.6-0.7-1-1.5-1.2-2.4
	c-0.3-1.1-0.4-2.2-0.4-3.4c0-1.1,0.2-2.3,0.4-3.4c0.1-0.9,0.6-1.7,1.2-2.4c0.5-0.6,1.1-1.1,1.8-1.4c0.8-0.3,1.6-0.5,2.4-0.4
	c0.8,0,1.6,0.2,2.4,0.4c0.7,0.3,1.3,0.8,1.8,1.4c0.6,0.7,1,1.5,1.2,2.4c0.5,2.2,0.5,4.5,0,6.8c-0.1,0.9-0.6,1.7-1.2,2.4
	c-0.5,0.6-1.1,1.1-1.8,1.6C150,168.4,149.2,168.6,148.4,168.6z M148.4,155.7c-0.3-0.1-0.7,0-1,0.2c-0.4,0.2-0.6,0.4-0.8,0.8
	c-0.2,0.5-0.4,1-0.6,1.6c-0.3,1.6-0.3,3.2,0,4.8c0.2,0.5,0.4,1.1,0.6,1.6c0.2,0.4,0.6,0.6,0.8,0.8c0.3,0.2,0.7,0.2,1,0.2
	c0.3,0.1,0.7,0,1-0.2c0.4-0.2,0.6-0.4,0.8-0.8c0.2-0.5,0.4-1,0.6-1.6c0.3-1.6,0.3-3.2,0-4.8c-0.2-0.5-0.4-1.1-0.6-1.6
	c-0.2-0.4-0.6-0.6-0.8-0.8C149.1,155.7,148.7,155.7,148.4,155.7L148.4,155.7z M148.4,162.5c-0.4,0-0.9-0.1-1.2-0.4
	c-0.4-0.4-0.6-0.9-0.6-1.4c0-0.5,0.2-1,0.6-1.4c0.3-0.3,0.8-0.5,1.2-0.4c0.4,0,0.8,0.2,1.2,0.4c0.4,0.4,0.6,0.9,0.6,1.4
	c0,0.5-0.2,1-0.6,1.4C149.2,162.5,149,162.5,148.4,162.5L148.4,162.5z"/>
<path class="st1" d="M162.7,168.6c-0.8,0-1.7-0.2-2.4-0.6c-0.8-0.3-1.4-0.9-1.8-1.6c-0.6-0.7-1-1.5-1.2-2.4
	c-0.3-1.1-0.4-2.2-0.4-3.4c0-1.1,0.2-2.3,0.4-3.4c0.1-0.9,0.6-1.7,1.2-2.4c0.5-0.6,1.1-1.1,1.8-1.4c0.8-0.3,1.6-0.5,2.4-0.4
	c0.8,0,1.6,0.2,2.4,0.4c0.7,0.3,1.3,0.8,1.8,1.4c0.6,0.7,1,1.5,1.2,2.4c0.5,2.2,0.5,4.5,0,6.8c-0.1,0.9-0.6,1.7-1.2,2.4
	c-0.5,0.6-1.1,1.1-1.8,1.6C164.4,168.4,163.5,168.6,162.7,168.6z M162.7,155.7c-0.3-0.1-0.7,0-1,0.2c-0.4,0.2-0.6,0.4-0.8,0.8
	c-0.2,0.5-0.4,1-0.6,1.6c-0.3,1.6-0.3,3.2,0,4.8c0.2,0.5,0.4,1.1,0.6,1.6c0.2,0.4,0.6,0.6,0.8,0.8c0.3,0.2,0.7,0.2,1,0.2
	c0.3,0.1,0.7,0,1-0.2c0.4-0.2,0.6-0.4,0.8-0.8c0.2-0.5,0.4-1,0.6-1.6c0.3-1.6,0.3-3.2,0-4.8c-0.2-0.5-0.4-1.1-0.6-1.6
	c-0.2-0.4-0.6-0.6-0.8-0.8C163.4,155.7,163,155.7,162.7,155.7L162.7,155.7z M162.7,162.5c-0.4,0-0.9-0.1-1.2-0.4
	c-0.4-0.4-0.6-0.9-0.6-1.4c0-0.5,0.2-1,0.6-1.4c0.3-0.3,0.8-0.5,1.2-0.4c0.4,0,0.8,0.2,1.2,0.4c0.4,0.4,0.6,0.9,0.6,1.4
	c0,0.5-0.2,1-0.6,1.4C163.5,162.5,163.3,162.5,162.7,162.5L162.7,162.5z"/>
<path class="st1" d="M182.6,165.4v2.8h-10.9v-2.8h4v-8.8h-3.2v-2.2c0.8-0.2,1.6-0.4,2.2-0.6c0.6-0.2,1.2-0.5,1.8-0.8h2.6v12.3
	L182.6,165.4z"/>
<path class="st1" d="M185.6,166.4c0.9-0.9,2-1.8,3-2.6c0.7-0.8,1.5-1.5,2.4-2.2c0.6-0.6,1.1-1.2,1.4-2c0.4-0.5,0.6-1.1,0.6-1.8
	c0.2-1.2-0.6-2.2-1.8-2.4c-0.2,0-0.4,0-0.6,0c-0.6,0-1.1,0.2-1.6,0.4c-0.5,0.3-1,0.6-1.4,1l-1.8-1.8c0.3-0.4,0.7-0.7,1.2-1
	c0.3-0.3,0.8-0.6,1.2-0.8c0.4-0.2,0.9-0.4,1.4-0.4c0.5-0.2,1.1-0.2,1.6-0.2c0.7,0,1.5,0.2,2.2,0.4c0.6,0.2,1.1,0.6,1.6,1
	c0.4,0.5,0.8,1,1.2,1.6c0.3,0.6,0.5,1.3,0.4,2c-0.1,0.7-0.2,1.4-0.4,2c-0.3,0.7-0.7,1.4-1.2,2c-0.5,0.7-1.1,1.4-1.8,2
	c-0.7,0.7-1.4,1.4-2.2,2c0.5,0,0.9,0,1.4-0.2h4.6v3h-11.3V166.4z"/>
</svg>
