<?xml version="1.0" encoding="utf-8"?>
<!-- Generator: Adobe Illustrator 20.0.0, SVG Export Plug-In . SVG Version: 6.00 Build 0)  -->
<svg version="1.1" id="Layer_1" xmlns="http://www.w3.org/2000/svg" xmlns:xlink="http://www.w3.org/1999/xlink" x="0px" y="0px"
	 viewBox="0 0 100 100" style="enable-background:new 0 0 100 100;" xml:space="preserve">
<style type="text/css">
	.st0{fill:#059BD2;}
</style>
<title>DevDotSvgGAssets</title>
<path class="st0" d="M77.9,36.8c-0.3,22.6-14.8,38.1-36.4,39.1c-8.9,0.4-15.3-2.4-21-6c6.8,0.8,13.7-1.1,19.1-5.3
	c-6.5-0.7-10.2-4-12-9.2c1.9,0.3,3.7,0.2,5.6-0.2c-5.8-2-10-5.6-10.2-13.1c1.7,0.9,3.6,1.5,5.6,1.6c-4.4-2.5-7.5-11.6-3.9-17.5
	c6.5,7.1,14.3,12.8,27,13.6c-3.2-13.7,14.9-21.1,22.5-12c2.9-0.6,5.8-1.6,8.4-3.1c-1,2.9-2.9,5.5-5.5,7.2c2.4-0.3,4.8-0.9,7.1-2
	C83,32.5,80.2,34.8,77.9,36.8 M89.1,0.9H10.8C5.4,0.9,1,5.3,1,10.7V89c0,5.4,4.4,9.8,9.8,9.8l0,0h78.3c5.4,0,9.8-4.4,9.8-9.8l0,0
	V10.7C98.9,5.3,94.5,0.9,89.1,0.9C89.1,0.9,89.1,0.9,89.1,0.9z"/>
</svg>
