<svg id="Layer_1" data-name="Layer 1" xmlns="http://www.w3.org/2000/svg" viewBox="0 0 279.92 200"><defs><style>.cls-1{fill:#919195;}.cls-2{fill:#d7d7d7;}.cls-3{fill:#fff;}</style></defs><title>DevDot</title><rect class="cls-1" x="81.92" y="6" width="95" height="75"/><path class="cls-2" d="M182.95,190.9V9a9.09,9.09,0,0,0-9-8.9H81.33c-4.85,0-7.75,4-7.75,8.9v58.6c-7.63,1.71-18,6.19-23.08,17.73C46,95.49,46.86,111.3,48,128c.89,12.81,1.71,30.16-1.71,34.79-5.92,8-17.46,12.32-27.1,4.95-6.49-5-10.79-15.48-1.44-28.75A128,128,0,0,0,38,94s.83-14.57,15.79-24.89c2.46-1.7,4.77-3.68,5-6.67.32-3.73-2.41-6.41-7.85-11.76-1-1-2-2-3.21-3.18-1.41-1.42-2.43-4-1.92-7.79S50.76,24.2,63.62,16.32L58.49,7.73C36,18,28.26,49.19,28.57,69.42c.11,7.53-1.06,34.3-20.92,62.49-13.41,19-7.33,37,4,45.67a29.86,29.86,0,0,0,18.21,6.19,30.26,30.26,0,0,0,3.45-.2c8.47-1,16.21-5.42,22.38-12.86,6.83-8.24,5.7-24.59,4.39-43.53-1-13.83-1.51-29.51,1.72-36.86,2.47-5.61,6.69-8.47,11.78-9.92V190.9M38.7,72.58A123.72,123.72,0,0,1,41,48c.13.14.25.31.39.45,1.71,1.71,3.27,3.25,4.7,4.65,3.55,3.49,7.21,7.08,8.14,8.75a16.81,16.81,0,0,1-2.72,2.18A66.45,66.45,0,0,0,38.7,75.53C38.71,74.41,38.71,73.42,38.7,72.58Zm131.53-4a5.29,5.29,0,0,1-5.29,5.29H91.58a5.29,5.29,0,0,1-5.29-5.29V18.14a5.29,5.29,0,0,1,5.29-5.29h73.36a5.29,5.29,0,0,1,5.29,5.29Z"/><path class="cls-1" d="M279.92,201H60.13c-3.27,0-6.21-2.26-6.21-5.53v-.25c0-3.27,2.94-7.22,6.21-7.22H261.92"/><path class="cls-3" d="M115.56,37.41a.72.72,0,0,0-.18-.52l-5.71-6.5a.72.72,0,0,0-1-.07,29.73,29.73,0,0,0-6.48,8.09.72.72,0,0,0,.29,1l7.6,4.15a.72.72,0,0,0,1-.29,19.66,19.66,0,0,1,4.28-5.35A.72.72,0,0,0,115.56,37.41Z"/><path class="cls-3" d="M118.11,35a.72.72,0,0,0,1,.3,19.42,19.42,0,0,1,6.51-2.09.72.72,0,0,0,.62-.81L125,23.82a.72.72,0,0,0-.81-.62,29.49,29.49,0,0,0-9.88,3.18.72.72,0,0,0-.3,1Z"/><path class="cls-3" d="M108.82,46.61l-8.35-2.27a.72.72,0,0,0-.89.51,29.8,29.8,0,0,0-1,7.8,4.45,4.45,0,0,0,0,.52c0,.39.34-.18.72-.18h0l8.65.46c.19,0,.37.34.5.2s.2-.11.19-.3,0-.52,0-.81a19.29,19.29,0,0,1,.68-5.1A.67.67,0,0,0,108.82,46.61Z"/><path class="cls-3" d="M141.15,25.87a29.5,29.5,0,0,0-10-2.8.72.72,0,0,0-.79.65l-.83,8.62a.72.72,0,0,0,.65.79A19.43,19.43,0,0,1,136.77,35a.72.72,0,0,0,1-.34l3.76-7.8A.72.72,0,0,0,141.15,25.87Z"/><path class="cls-3" d="M153.87,38a.72.72,0,0,0-.08-.55A29.74,29.74,0,0,0,147,29.59a.72.72,0,0,0-1,.1l-5.46,6.72a.72.72,0,0,0,.1,1,19.67,19.67,0,0,1,4.49,5.18.72.72,0,0,0,1,.25l7.43-4.44A.72.72,0,0,0,153.87,38Z"/><path class="cls-3" d="M156.62,43.76a.72.72,0,0,0-.9-.47l-8.26,2.59a.72.72,0,0,0-.47.9,19.63,19.63,0,0,1,.89,5.88c0,.3,0,.6,0,.92a.72.72,0,0,0,.19.52c.13.14.31-.64.5-.63l8.65-.46h0c.38,0,.7.56.72.18s0-.5,0-1A27,27,0,0,0,156.62,43.76Z"/><path class="cls-3" d="M128.24,51.12h-.37l-11.72-6.91a.74.74,0,0,0-1,1l6.39,12a6.89,6.89,0,0,0,0,.7,6.77,6.77,0,1,0,6.77-6.77Z"/><rect class="cls-3" x="86.92" y="76" width="33" height="19" rx="1" ry="1"/><rect class="cls-3" x="123.92" y="76" width="46" height="19" rx="1" ry="1"/></svg>