<svg id="Layer_1" data-name="Layer 1" xmlns="http://www.w3.org/2000/svg" viewBox="0 0 83.23 100"><defs><style>.cls-1{fill:#059bd2;}.cls-2{fill:#027fad;}.cls-3{fill:#acdaed;}.cls-4{fill:#e4eff6;}</style></defs><title>DevDotSvgGAssets</title><path class="cls-1" d="M79.47,63.54c4.08-4.08,4.51-11.07,1.21-19.7a60.25,60.25,0,0,0-7-12.91L77.11,17A7.59,7.59,0,0,0,66.44,6.32L52.51,9.79a60.22,60.22,0,0,0-12.91-7C31-.55,24-.12,19.89,4a42.41,42.41,0,0,0-.53,59.15L7,88.42H2.74A2.51,2.51,0,0,0,0,90.65v7.29a2.7,2.7,0,0,0,2.71,2.48H56.41A2.62,2.62,0,0,0,59,97.94V90.65a2.43,2.43,0,0,0-2.62-2.24H52.19l-9.09-13a42.57,42.57,0,0,0,6.59.46A41.9,41.9,0,0,0,79.47,63.54ZM67.91,19a7.37,7.37,0,0,0,3.44.77l-1.53,6.14c-1.31-1.59-2.7-3.16-4.14-4.68Zm-4.25-6.92a7.56,7.56,0,0,0,.77,3.44L62.2,17.75c-1.52-1.44-3.09-2.83-4.68-4.14ZM28,88.42h-16L21.87,66.8A31.69,31.69,0,0,0,28,70.33Zm19,0H32V73a58.21,58.21,0,0,0,5.54,2.2ZM22.34,61.09a38.75,38.75,0,0,1-6.22-46.55l1.61-2.82L18,15a30.77,30.77,0,0,0,2,8.18c3,7.8,8.8,16.27,16.39,23.86S52.49,60.41,60.29,63.39a30.79,30.79,0,0,0,8.18,2l3.23.28-2.82,1.61a38.75,38.75,0,0,1-46.54-6.22Z"/><rect class="cls-2" x="3.75" y="91.66" width="51.66" height="5.27"/><path class="cls-3" d="M61.31,60.07c-6.66-2.59-14-7.48-20.67-13.81L62.2,24.71A82.21,82.21,0,0,1,68.32,32Z"/><path class="cls-3" d="M66,61.52l6-24.1a50.74,50.74,0,0,1,4.07,8.17c2.49,6.51,2.45,11.92-.09,14.47C74.09,62,70.46,62.5,66,61.52Z"/><path class="cls-3" d="M37.17,42.79c-6.33-6.7-11.22-14-13.81-20.67l28.12-7a82.11,82.11,0,0,1,7.24,6.12Z"/><path class="cls-4" d="M71.25,16.3a4.12,4.12,0,0,0,2.91-7,4.22,4.22,0,0,0-5.83,0,4.12,4.12,0,0,0,2.91,7Z"/><path class="cls-3" d="M37.84,7.34A50.8,50.8,0,0,1,46,11.41l-24.1,6c-1-4.5-.48-8,1.46-10,1.29-1.29,3.31-1.94,5.84-1.94A24.84,24.84,0,0,1,37.84,7.34Z"/></svg>