<svg id="Layer_1" data-name="Layer 1" xmlns="http://www.w3.org/2000/svg" viewBox="0 0 100 100"><defs><style>.cls-1{fill:#027fad;}</style></defs><title>DevDotSvgGAssets</title><path class="cls-1" d="M77.9,36.78C77.56,59.4,63.11,74.87,41.52,75.85c-8.91.39-15.33-2.45-21-6a26.34,26.34,0,0,0,19.1-5.29c-6.46-.69-10.23-4-12-9.2a16.38,16.38,0,0,0,5.58-.15c-5.83-2-10-5.58-10.18-13.12a14.38,14.38,0,0,0,5.58,1.62c-4.36-2.5-7.54-11.56-3.87-17.53C31.19,33.25,39,39,51.75,39.81c-3.23-13.71,14.93-21.15,22.52-12a27.51,27.51,0,0,0,8.37-3.13,14.29,14.29,0,0,1-5.48,7.2,21.61,21.61,0,0,0,7.05-2c-1.22,2.6-4,4.95-6.32,6.9M89.11.89H10.77A9.79,9.79,0,0,0,1,10.68V89a9.79,9.79,0,0,0,9.79,9.79H89.11A9.79,9.79,0,0,0,98.9,89V10.68A9.79,9.79,0,0,0,89.11.89Z"/></svg>