<svg id="Layer_1" data-name="Layer 1" xmlns="http://www.w3.org/2000/svg" viewBox="0 0 100 100"><defs><style>.cls-1{fill:#f60;}</style></defs><title>DevDotSvgGAssets</title><path class="cls-1" d="M49.66,63.55l6.68-7.06C61.13,51.39,64,45.84,64,40.42c0-7.75-5.23-12.67-14.43-12.67a26.29,26.29,0,0,0-14.24,4l3.09,7.75a20.31,20.31,0,0,1,9.7-2.65,5.17,5.17,0,0,1,5.29,4.35c.25,3-.95,6.3-6.74,12.67L35,66.57V72.5H64.85V63.93l-15-.06Z"/><path class="cls-1" d="M49.91,1.38A48.75,48.75,0,1,0,98.66,50.13,48.8,48.8,0,0,0,49.91,1.38Zm0,94A45.24,45.24,0,1,1,95.16,50.13,45.3,45.3,0,0,1,49.91,95.37Z"/></svg>