<?xml version="1.0" encoding="utf-8"?>
<!-- Generator: Adobe Illustrator 20.0.0, SVG Export Plug-In . SVG Version: 6.00 Build 0)  -->
<svg version="1.1" id="Layer_1" xmlns="http://www.w3.org/2000/svg" xmlns:xlink="http://www.w3.org/1999/xlink" x="0px" y="0px"
	 viewBox="0 0 100 100" style="enable-background:new 0 0 100 100;" xml:space="preserve">
<style type="text/css">
	.st0{fill:#059BD2;}
</style>
<title>DevDotSvgGAssets</title>
<path class="st0" d="M90.7,1H12.3C6.9,1,1,5.3,1,10.7V89c0,5.4,5.9,10,11.3,10h78.3c5.4,0,8.3-4.6,8.3-10V10.7C99,5.2,96.1,1,90.7,1
	z M80.7,80.4c-2.9,1-18,1.6-30.2,1.6s-27.3-0.6-30.2-1.6c-6.1-2-9.1-11.9-9.1-30.4s3-28.4,9.1-30.4c2.9-0.9,18-1.5,30.2-1.5
	s27.4,0.6,30.2,1.6c6.1,2,9.1,11.9,9.1,30.4S86.8,78.4,80.7,80.4z"/>
<path class="st0" d="M79.2,24.5c-1.7-0.5-14-1.4-28.7-1.4s-27,0.8-28.7,1.3c-2.7,0.9-5.6,8.1-5.6,25.6s2.9,24.7,5.6,25.6
	c1.6,0.5,13.9,1.3,28.6,1.3s27-0.8,28.6-1.3c2.7-0.9,5.6-8.1,5.6-25.6S81.9,25.4,79.2,24.5z M44.8,66.6V33.5L66.9,50L44.8,66.6z"/>
</svg>
