<svg id="Layer_1" data-name="Layer 1" xmlns="http://www.w3.org/2000/svg" viewBox="0 0 100 100"><defs><style>.cls-1{fill:#027fad;}</style></defs><title>DevDotSvgGAssets</title><path class="cls-1" d="M83.4,84.12H68.72v-26a7.34,7.34,0,0,0-14.69,0v26H39.34V40.06H54v5.88a15.21,15.21,0,0,1,12.24-6.85A17.14,17.14,0,0,1,83.4,56.21M22.2,31.78a8.86,8.86,0,0,1,0-17.72h0a8.86,8.86,0,0,1,0,17.72h0m7.34,52.34H14.86V40.06H29.55M88.3.89H10A9.76,9.76,0,0,0,.17,10.68V89A9.79,9.79,0,0,0,10,98.81H88.3A9.79,9.79,0,0,0,98.09,89V10.68A9.79,9.79,0,0,0,88.3.89Z"/></svg>