<svg id="Layer_1" data-name="Layer 1" xmlns="http://www.w3.org/2000/svg" viewBox="0 0 233.65 200"><defs><style>.cls-1{fill:#77c5e4;stroke:#77c5e4;stroke-linecap:round;stroke-linejoin:round;stroke-width:2.79px;}.cls-2{fill:#e4eff4;}.cls-3{fill:#0e9bd2;}</style></defs><title>DevDot</title><g id="_Group_" data-name="&lt;Group&gt;"><path id="_Path_" data-name="&lt;Path&gt;" class="cls-1" d="M48.34,20.79,40.28,44.68a.16.16,0,0,0,.24.14L82,20.79Z"/><path id="_Path_2" data-name="&lt;Path&gt;" class="cls-1" d="M151.62,20.79l41.51,24a.16.16,0,0,0,.24-.14l-8.06-23.89Z"/><path id="_Path_3" data-name="&lt;Path&gt;" class="cls-1" d="M221.57,73.16V61.07H189.34V73.16a4,4,0,0,0,4,4,4,4,0,0,1,4,4v64.46a4,4,0,0,1-4,4,4,4,0,0,0-4,4v12.09h32.23V153.73a4,4,0,0,0-4-4,4,4,0,0,1-4-4V81.22a4,4,0,0,1,4-4,4,4,0,0,0,4-4"/><path id="_Path_4" data-name="&lt;Path&gt;" class="cls-1" d="M177.25,73.16V61.07H145V73.16a4,4,0,0,0,4,4,4,4,0,0,1,4,4v64.46a4,4,0,0,1-4,4,4,4,0,0,0-4,4v12.09h32.23V153.73a4,4,0,0,0-4-4,4,4,0,0,1-4-4V81.22a4,4,0,0,1,4-4,4,4,0,0,0,4-4"/><path id="_Path_5" data-name="&lt;Path&gt;" class="cls-1" d="M132.94,73.16V61.07H100.71V73.16a4,4,0,0,0,4,4,4,4,0,0,1,4,4v64.46a4,4,0,0,1-4,4,4,4,0,0,0-4,4v12.09h32.23V153.73a4,4,0,0,0-4-4,4,4,0,0,1-4-4V81.22a4,4,0,0,1,4-4,4,4,0,0,0,4-4"/><path id="_Path_6" data-name="&lt;Path&gt;" class="cls-1" d="M88.63,73.16V61.07H56.4V73.16a4,4,0,0,0,4,4,4,4,0,0,1,4,4v64.46a4,4,0,0,1-4,4,4,4,0,0,0-4,4v12.09H88.63V153.73a4,4,0,0,0-4-4,4,4,0,0,1-4-4V81.22a4,4,0,0,1,4-4,4,4,0,0,0,4-4"/><path id="_Path_7" data-name="&lt;Path&gt;" class="cls-1" d="M44.31,73.16V61.07H12.09V73.16a4,4,0,0,0,4,4,4,4,0,0,1,4,4v64.46a4,4,0,0,1-4,4,4,4,0,0,0-4,4v12.09H44.31V153.73a4,4,0,0,0-4-4,4,4,0,0,1-4-4V81.22a4,4,0,0,1,4-4,4,4,0,0,0,4-4"/><rect id="_Path_8" data-name="&lt;Path&gt;" class="cls-1" y="181.93" width="233.65" height="16.11"/><rect id="_Path_9" data-name="&lt;Path&gt;" class="cls-2" x="4.03" y="165.82" width="225.6" height="16.11"/><polygon id="_Path_10" data-name="&lt;Path&gt;" class="cls-2" points="229.62 61.08 4.03 61.08 12.09 44.96 221.57 44.96 229.62 61.08"/><polygon id="_Path_11" data-name="&lt;Path&gt;" class="cls-3" points="193.37 44.96 116.83 0.65 40.28 44.96 193.37 44.96"/></g></svg>