<svg id="Layer_1" data-name="Layer 1" xmlns="http://www.w3.org/2000/svg" viewBox="0 0 137.97 100"><defs><style>.cls-1{fill:#3bafda;}.cls-2{fill:#059bd2;}.cls-3{fill:#3db0db;stroke:#acd9eb;stroke-miterlimit:10;}.cls-4{fill:#027fad;}.cls-5{fill:#fff;}</style></defs><title>DevDotSvgGAssets</title><path class="cls-1" d="M24.85,43c-2.19,5-1.79,12.77-1.22,21,.44,6.31.84,14.84-.84,17.12-2.92,3.95-8.59,6.06-13.34,2.43C6.26,81.16,4.14,76,8.75,69.46a63,63,0,0,0,10-22.14s.41-7.17,7.77-12.25c1.21-.83,2.35-1.81,2.47-3.28.16-1.83-1.19-3.15-3.86-5.79l-1.58-1.56a4.46,4.46,0,0,1-.95-3.84c.25-1.87,2.42-7.65,8.75-11.53L28.79,4.84C17.71,9.9,13.91,25.25,14.06,35.2c.06,3.71-.52,16.88-10.3,30.76-6.6,9.36-3.61,18.21,2,22.48a14.7,14.7,0,0,0,9,3,14.9,14.9,0,0,0,1.7-.1,16.79,16.79,0,0,0,11-6.33C30.77,81,30.21,73,29.56,63.63c-.47-6.81-.74-14.52.85-18.14a8.42,8.42,0,0,1,5.8-4.88V34.32C32.45,35.16,27.35,37.37,24.85,43ZM19,36.76a60.89,60.89,0,0,1,1.13-12.07c.07.07.12.15.19.22.84.84,1.61,1.6,2.31,2.29a33.29,33.29,0,0,1,4,4.31,8.27,8.27,0,0,1-1.34,1.08A32.7,32.7,0,0,0,19,38.21C19.05,37.66,19.05,37.17,19,36.76Z"/><rect class="cls-2" x="39.96" y="3.61" width="47.57" height="37.97"/><path class="cls-3" d="M90,95V5.48A4.48,4.48,0,0,0,85.6,1.1H40c-2.39,0-3.82,2-3.82,4.38V95M83.78,34.8a2.6,2.6,0,0,1-2.6,2.6H45.07a2.6,2.6,0,0,1-2.6-2.6V10a2.6,2.6,0,0,1,2.6-2.6h36.1a2.6,2.6,0,0,1,2.6,2.6Z"/><path class="cls-4" d="M138,100H29.59a2.93,2.93,0,0,1-2.92-2.92h0a2.93,2.93,0,0,1,2.92-2.92H128.8"/><path class="cls-5" d="M56.87,19.45a.36.36,0,0,0-.09-.26L54,16a.36.36,0,0,0-.5,0,14.63,14.63,0,0,0-3.19,4,.35.35,0,0,0,.14.48l3.74,2a.35.35,0,0,0,.48-.14,9.67,9.67,0,0,1,2.11-2.63A.35.35,0,0,0,56.87,19.45Z"/><path class="cls-5" d="M58.13,18.27a.35.35,0,0,0,.48.15,9.56,9.56,0,0,1,3.2-1,.36.36,0,0,0,.3-.4l-.57-4.22a.36.36,0,0,0-.4-.3A14.51,14.51,0,0,0,56.28,14a.36.36,0,0,0-.15.48Z"/><path class="cls-5" d="M53.55,24l-4.11-1.12a.36.36,0,0,0-.44.25A14.66,14.66,0,0,0,48.5,27c0,.22,0,.45,0,.68a.35.35,0,0,0,.35.34h0l4.26-.2a.35.35,0,0,0,.34-.37c0-.16,0-.31,0-.45a9.69,9.69,0,0,1,.34-2.54A.36.36,0,0,0,53.55,24Z"/><path class="cls-5" d="M69.47,13.77a14.52,14.52,0,0,0-4.92-1.38.35.35,0,0,0-.39.32L63.75,17a.35.35,0,0,0,.32.39,9.56,9.56,0,0,1,3.24.91.35.35,0,0,0,.15,0l.12,0a.35.35,0,0,0,.2-.18l1.85-3.84A.35.35,0,0,0,69.47,13.77Z"/><path class="cls-5" d="M75.73,19.72a.35.35,0,0,0,0-.27,14.64,14.64,0,0,0-3.34-3.86.35.35,0,0,0-.5.05L69.16,19a.36.36,0,0,0,.05.5A9.68,9.68,0,0,1,71.42,22a.35.35,0,0,0,.49.12l3.66-2.19A.36.36,0,0,0,75.73,19.72Z"/><path class="cls-5" d="M77.08,22.57a.35.35,0,0,0-.44-.23l-4.07,1.27a.35.35,0,0,0-.23.44A9.66,9.66,0,0,1,72.78,27c0,.15,0,.29,0,.45a.35.35,0,0,0,.34.37l4.26.2h0a.36.36,0,0,0,.35-.34c0-.24,0-.46,0-.68A14.62,14.62,0,0,0,77.08,22.57Z"/><path class="cls-5" d="M63.11,26.2h-.18l-5.77-3.4a.37.37,0,0,0-.51.49l3.15,5.9a3.39,3.39,0,0,0,0,.34,3.33,3.33,0,1,0,3.33-3.33Z"/><rect class="cls-5" x="42.47" y="39.46" width="16.69" height="8.76" rx="1" ry="1"/><rect class="cls-5" x="60.94" y="39.46" width="22.63" height="8.76" rx="1" ry="1"/><path class="cls-4" d="M48.52,45.57H46.8a1.72,1.72,0,1,1,0-3.44h1.72a1.72,1.72,0,0,1,0,3.44Z"/><path class="cls-4" d="M53.68,45.57A1.71,1.71,0,0,1,52,43.84a1.77,1.77,0,0,1,.5-1.22,1.73,1.73,0,1,1,1.22,2.94Z"/><path class="cls-4" d="M79.14,45.94H70.54a1.72,1.72,0,1,1,0-3.44h8.61a1.72,1.72,0,0,1,0,3.44Z"/><path class="cls-4" d="M65.37,45.94a1.81,1.81,0,0,1-1.22-.5,1.78,1.78,0,0,1-.5-1.22,1.72,1.72,0,1,1,3.44,0,1.78,1.78,0,0,1-.5,1.22A1.81,1.81,0,0,1,65.37,45.94Z"/></svg>