<svg id="Layer_1" data-name="Layer 1" xmlns="http://www.w3.org/2000/svg" viewBox="0 0 100 100"><defs><style>.cls-1{fill:#f60;}</style></defs><title>DevDotSvgGAssets</title><path class="cls-1" d="M49,43.44s-5.38-6.58-8.53-10.15L36,43.79c6.4,9.54,10.63,17.74,12.95,21.66C53.47,57.77,64.54,35,87.47,13.61l-2.52-6C70.05,18.64,57.38,32.7,49,43.44Z"/><path class="cls-1" d="M49.46,23.74a26.09,26.09,0,0,1,2.71.14l4-4.35A30.84,30.84,0,1,0,77.79,37.46L74,41.57A25.87,25.87,0,1,1,49.46,23.74Z"/><path class="cls-1" d="M91.84,26.14,88.29,30A43.49,43.49,0,1,1,68.22,10.37l3.46-3.8A48.5,48.5,0,1,0,91.84,26.14Z"/></svg>