<svg id="Layer_1" data-name="Layer 1" xmlns="http://www.w3.org/2000/svg" viewBox="0 0 183.48 200"><defs><style>.cls-1{fill:#5f6163;}.cls-2{fill:#919195;}</style></defs><title>DevDotSvgAssets</title><path class="cls-1" d="M152.31,147H106.54a3.06,3.06,0,1,1,0-6.1h45.78a3.06,3.06,0,1,1,0,6.1Z"/><path class="cls-1" d="M60.76,125.64H30.23a3.06,3.06,0,1,1,0-6.1H60.76a3.06,3.06,0,0,1,0,6.1Z"/><path class="cls-1" d="M137.06,125.64H91.26a3.06,3.06,0,0,1,0-6.1h45.8a3.06,3.06,0,0,1,0,6.1Z"/><path class="cls-1" d="M76,125.64a3,3,0,0,1-3.06-3s0,0,0-.07a3.15,3.15,0,0,1,.89-2.17A3.06,3.06,0,1,1,76,125.64Z"/><path class="cls-1" d="M91.26,147H45.49a3.06,3.06,0,1,1,0-6.1H91.26a3.06,3.06,0,1,1,0,6.1Z"/><path class="cls-1" d="M30.23,147a3.06,3.06,0,0,1-2.11-5.22,3.17,3.17,0,0,1,4.33,0,3.08,3.08,0,0,1,.89,2.13,3,3,0,0,1-3,3.06h-.07Z"/><path class="cls-1" d="M152.31,125.64a3,3,0,0,1-3.06-3s0,0,0-.07a3.15,3.15,0,0,1,.82-2.17,3.06,3.06,0,1,1,2.17,5.22Z"/><path class="cls-1" d="M152.31,82.91H106.54a3.06,3.06,0,1,1,0-6.1h45.78a3.06,3.06,0,1,1,0,6.1Z"/><path class="cls-1" d="M152.31,104.27H121.79a3.06,3.06,0,0,1,0-6.1h30.52a3.06,3.06,0,1,1,0,6.1Z"/><path class="cls-1" d="M97.29,104.27h-6a3.06,3.06,0,0,1,0-6.1h6a3.06,3.06,0,1,1,0,6.1Z"/><path class="cls-1" d="M137.06,61.54H91.26a3.06,3.06,0,0,1,0-6.1h45.8a3.06,3.06,0,0,1,0,6.1Z"/><path class="cls-1" d="M152.31,61.54a3.06,3.06,0,1,1,2.17-5.22,3.09,3.09,0,0,1,0,4.33A3.2,3.2,0,0,1,152.31,61.54Z"/><path class="cls-1" d="M94.32,82.91a3,3,0,0,1-3.06-3s0,0,0-.07a3.15,3.15,0,0,1,.89-2.17,3.2,3.2,0,0,1,4.33,0,3.15,3.15,0,0,1,.8,2.18,3,3,0,0,1-3,3.06h-.07Z"/><path class="cls-1" d="M109.59,104.27a3,3,0,1,1,2.17-.89A3.2,3.2,0,0,1,109.59,104.27Z"/><rect class="cls-2" x="27.18" y="55.44" width="42.74" height="42.74"/><path class="cls-1" d="M179.76,162.26h-4.58V37.13h4.62V18.82H2.77V37.13h4.6V162.26H2.77a3.06,3.06,0,1,0,0,6.1H88.19v6.1a3,3,0,0,0,0,.4,12.21,12.21,0,1,0,6,0,3,3,0,0,0,0-.4v-6.1h85.55a3.06,3.06,0,0,0,0-6.1ZM97.29,186.69a6.1,6.1,0,1,1-6.1-6.1A6.1,6.1,0,0,1,97.29,186.69Zm74.89-24.43H10.37V38.63H172.18Z"/></svg>