<svg id="Layer_1" data-name="Layer 1" xmlns="http://www.w3.org/2000/svg" viewBox="0 0 100 100"><defs><style>.cls-1{fill:#e4eff6;}.cls-2{fill:#3db0db;}.cls-3{fill:#027fad;}.cls-4{fill:#059bd2;}.cls-5{fill:#f5f6fa;}</style></defs><title>DevDotSvgGAssets</title><rect class="cls-1" x="1.1" y="39.61" width="96.39" height="58.16"/><path class="cls-2" d="M27.17,9.69H8.26a.52.52,0,0,1-.52-.52V6.06a4.67,4.67,0,0,1,4.67-4.67H23a4.67,4.67,0,0,1,4.67,4.67V9.18A.52.52,0,0,1,27.17,9.69Z"/><rect class="cls-1" x="11.07" y="6.37" width="3.32" height="3.32"/><rect class="cls-1" x="16.06" y="6.37" width="3.32" height="3.32"/><rect class="cls-1" x="21.04" y="6.37" width="3.32" height="3.32"/><path class="cls-2" d="M58.74,9.69H39.84a.52.52,0,0,1-.52-.52V6.06A4.67,4.67,0,0,1,44,1.39h10.6a4.67,4.67,0,0,1,4.67,4.67V9.18A.52.52,0,0,1,58.74,9.69Z"/><rect class="cls-1" x="42.64" y="6.37" width="3.32" height="3.32"/><rect class="cls-1" x="47.63" y="6.37" width="3.32" height="3.32"/><rect class="cls-1" x="52.62" y="6.37" width="3.32" height="3.32"/><path class="cls-2" d="M90.32,9.69H71.41a.52.52,0,0,1-.52-.52V6.06a4.67,4.67,0,0,1,4.67-4.67h10.6a4.67,4.67,0,0,1,4.67,4.67V9.18A.52.52,0,0,1,90.32,9.69Z"/><rect class="cls-1" x="74.22" y="6.37" width="3.32" height="3.32"/><rect class="cls-1" x="79.2" y="6.37" width="3.32" height="3.32"/><rect class="cls-1" x="84.19" y="6.37" width="3.32" height="3.32"/><path class="cls-3" d="M94.16,39.61V36.68a6,6,0,0,0-3.32-5.38,6,6,0,0,1-3.32-5.38V9.69H74.22V25.92A6,6,0,0,1,70.9,31.3a6,6,0,0,0-3.32,5.38v2.93Z"/><path class="cls-3" d="M62.59,39.61V36.68a6,6,0,0,0-3.32-5.38,6,6,0,0,1-3.32-5.38V9.69H42.64V25.92a6,6,0,0,1-3.32,5.38A6,6,0,0,0,36,36.68v2.93Z"/><path class="cls-3" d="M31,39.61V36.68a6,6,0,0,0-3.32-5.38,6,6,0,0,1-3.32-5.38V9.69H11.07V25.92A6,6,0,0,1,7.75,31.3a6,6,0,0,0-3.32,5.38v2.93Z"/><path class="cls-4" d="M99.8,41.22A1.81,1.81,0,0,0,98,39.42H1.61A1.81,1.81,0,0,0-.2,41.22V98.61a1.81,1.81,0,0,0,1.81,1.81H98a1.81,1.81,0,0,0,1.81-1.81ZM3.8,96.42v-1h14v-3H3.8v-2h12v-3H3.8v-1h8v-4h-8v-1h4v-4h-4v-35h92v27H79.88L83.21,72l-6.65,6.26,6.65,7.26-3.32,3.94H95.8v7Z"/><rect class="cls-5" x="19.38" y="13.85" width="3.32" height="12.05" rx="1.38" ry="1.38"/><rect class="cls-5" x="50.95" y="13.85" width="3.32" height="12.05" rx="1.38" ry="1.38"/><rect class="cls-5" x="82.53" y="13.85" width="3.32" height="12.05" rx="1.38" ry="1.38"/></svg>