<svg id="Layer_1" data-name="Layer 1" xmlns="http://www.w3.org/2000/svg" viewBox="0 0 100 100"><defs><style>.cls-1{fill:#027fad;}.cls-2{fill:#e4eff6;}.cls-3{fill:#3db0db;}.cls-4{fill:#059bd2;}</style></defs><title>DevDotSvgGAssets</title><rect class="cls-1" x="1.07" y="0.99" width="97.26" height="10.06"/><rect class="cls-2" x="4.42" y="11.05" width="90.55" height="70.43"/><path class="cls-3" d="M83.23,71.42H58.08a1.68,1.68,0,1,1,0-3.35H83.23a1.68,1.68,0,1,1,0,3.35Z"/><path class="cls-3" d="M32.93,59.68H16.16a1.68,1.68,0,1,1,0-3.35H32.93a1.68,1.68,0,0,1,0,3.35Z"/><path class="cls-3" d="M74.85,59.68H49.69a1.68,1.68,0,0,1,0-3.35H74.85a1.68,1.68,0,0,1,0,3.35Z"/><path class="cls-3" d="M41.31,59.68A1.66,1.66,0,0,1,39.63,58a1.73,1.73,0,0,1,.49-1.19,1.68,1.68,0,1,1,1.19,2.87Z"/><path class="cls-3" d="M49.69,71.42H24.54a1.68,1.68,0,1,1,0-3.35H49.69a1.68,1.68,0,1,1,0,3.35Z"/><path class="cls-3" d="M16.16,71.42A1.68,1.68,0,0,1,15,68.55a1.74,1.74,0,0,1,2.38,0,1.69,1.69,0,0,1,.49,1.17,1.66,1.66,0,0,1-1.68,1.68Z"/><path class="cls-3" d="M83.23,59.68A1.66,1.66,0,0,1,81.55,58,1.73,1.73,0,0,1,82,56.81a1.68,1.68,0,1,1,1.19,2.87Z"/><path class="cls-3" d="M83.23,36.2H58.08a1.68,1.68,0,1,1,0-3.35H83.23a1.68,1.68,0,1,1,0,3.35Z"/><path class="cls-3" d="M83.23,47.94H66.46a1.68,1.68,0,0,1,0-3.35H83.23a1.68,1.68,0,1,1,0,3.35Z"/><path class="cls-3" d="M53,47.94H49.69a1.68,1.68,0,0,1,0-3.35H53a1.68,1.68,0,1,1,0,3.35Z"/><path class="cls-3" d="M74.85,24.46H49.69a1.68,1.68,0,0,1,0-3.35H74.85a1.68,1.68,0,0,1,0,3.35Z"/><path class="cls-3" d="M83.23,24.46a1.68,1.68,0,1,1,1.19-2.87,1.7,1.7,0,0,1,0,2.38A1.76,1.76,0,0,1,83.23,24.46Z"/><path class="cls-3" d="M51.37,36.2a1.66,1.66,0,0,1-1.68-1.68,1.73,1.73,0,0,1,.49-1.19,1.76,1.76,0,0,1,2.38,0A1.73,1.73,0,0,1,53,34.53a1.66,1.66,0,0,1-1.68,1.68Z"/><path class="cls-3" d="M59.76,47.94a1.66,1.66,0,1,1,1.19-.49A1.76,1.76,0,0,1,59.76,47.94Z"/><rect class="cls-3" x="14.48" y="21.11" width="23.48" height="23.48"/><path class="cls-4" d="M98.32,79.8H1.07a1.68,1.68,0,1,0,0,3.35H48v3.35a1.66,1.66,0,0,0,0,.22,6.71,6.71,0,1,0,3.31,0,1.65,1.65,0,0,0,0-.22V83.15h47a1.68,1.68,0,0,0,0-3.35ZM53,93.22a3.35,3.35,0,1,1-3.35-3.35A3.36,3.36,0,0,1,53,93.22Z"/></svg>