<svg id="Layer_1" data-name="Layer 1" xmlns="http://www.w3.org/2000/svg" viewBox="0 0 200 200"><defs><style>.cls-1{fill:#919195;}.cls-2{fill:#eaeaea;}.cls-3{fill:#d7d7d7;}</style></defs><title>DevDot</title><path class="cls-1" d="M135.15,106.43c6.85-6.85,7.57-18.6,2-33.09a101.18,101.18,0,0,0-11.83-21.69l5.83-23.39a12.74,12.74,0,0,0-17.93-17.93L89.86,16.16A101.14,101.14,0,0,0,68.18,4.33c-14.5-5.54-26.24-4.81-33.09,2a70.49,70.49,0,0,0-.88,98.74L13.36,176H6.29C4,176-.07,178.69-.07,181V193.2c0,2.28,4.08,4.8,6.36,4.8H96.43c2.28,0,5.51-2.52,5.51-4.8V181c0-2.28-3.23-5-5.51-5h-7.1L74.06,125.84a71.89,71.89,0,0,0,11.07,1.07A70.08,70.08,0,0,0,135.15,106.43Zm-19.42-74.8a12.37,12.37,0,0,0,5.78,1.29l-2.57,10.31c-2.2-2.67-4.53-5.31-7-7.86ZM108.6,20a12.69,12.69,0,0,0,1.29,5.78l-3.74,3.75c-2.55-2.42-5.19-4.75-7.86-7ZM45.93,176H22l18.39-64.7c2,1.6,4.57,3.51,5.57,4.86Zm34.76,0H52.93V120.65c4,1.39,7.42,2.15,10.58,3.09ZM39.21,102.31A65.08,65.08,0,0,1,28.76,24.14l2.71-4.73.48,5.43a51.68,51.68,0,0,0,3.39,13.74c5,13.09,14.78,27.33,27.53,40.07s27,22.52,40.07,27.53a51.71,51.71,0,0,0,13.74,3.39l5.43.48-4.73,2.71a65.07,65.07,0,0,1-78.16-10.45Z"/><rect class="cls-2" x="7.07" y="182.84" width="87.37" height="8.92"/><path class="cls-3" d="M104.65,100.6C93.46,96.26,81.18,88,69.94,77.42l36.2-36.2a138.07,138.07,0,0,1,10.27,12.16Z"/><path class="cls-3" d="M112.56,103l10.08-40.47a85.22,85.22,0,0,1,6.83,13.71c4.18,10.94,4.12,20-.16,24.3C126.1,103.79,120,104.68,112.56,103Z"/><path class="cls-3" d="M64.1,71.58C53.46,60.33,45.25,48,40.91,36.87L88.14,25.1A137.89,137.89,0,0,1,100.3,35.38Z"/><path class="cls-2" d="M121.33,27.1a6.92,6.92,0,0,0,4.89-11.81,7.09,7.09,0,0,0-9.79,0,6.92,6.92,0,0,0,4.89,11.81Z"/><path class="cls-3" d="M65.23,12.05a85.32,85.32,0,0,1,13.72,6.83L38.48,29c-1.66-7.57-.8-13.5,2.46-16.75C43.1,10,46.5,9,50.75,9A41.72,41.72,0,0,1,65.23,12.05Z"/></svg>