<svg id="Layer_1" data-name="Layer 1" xmlns="http://www.w3.org/2000/svg" viewBox="0 0 100 100"><defs><style>.cls-1{fill:#f60;}</style></defs><title>DevDotSvgGAssets</title><path class="cls-1" d="M90.08,20.42H57.72l-3,7H89v27H13v-27h1v-7H10.75C9.52,20.42,9,23.11,9,24.34V57.27c0,1.23.52,1.14,1.75,1.14H32.51L49,78.76V98.42h5v-32H49v5.65L38.52,58.42H59v40h3v-40H90.08c1.23,0,3.92.09,3.92-1.14V24.34C94,23.11,91.32,20.42,90.08,20.42Z"/><path class="cls-1" d="M64.4,4.7,62.26-.37C49.62,9,38.86,20.9,31.72,30c0,0-4.57-5.58-7.24-8.61l-3.78,8.91c5.43,8.1,9,15.06,11,18.38C35.55,42.17,44.94,22.81,64.4,4.7Z"/></svg>