<?xml version="1.0" encoding="utf-8"?>
<!-- Generator: Adobe Illustrator 20.0.0, SVG Export Plug-In . SVG Version: 6.00 Build 0)  -->
<svg version="1.1" id="Layer_1" xmlns="http://www.w3.org/2000/svg" xmlns:xlink="http://www.w3.org/1999/xlink" x="0px" y="0px"
	 viewBox="0 0 183.5 200" style="enable-background:new 0 0 183.5 200;" xml:space="preserve">
<style type="text/css">
	.st0{fill:#0680AE;}
	.st1{fill:#0A9BD2;}
</style>
<title>DevDotSvgAssets</title>
<path class="st0" d="M153,57.2l-2.5,1.5c18.3,31.2,18.9,63.6,1.5,77.2l-0.1-0.1c-2.3,1.5-4.7,2.9-7.2,4.2c-3.9,1.5-8.1,2.2-12.3,2.2
	c-20.3,0-45.9-14.9-65.2-40C50.7,80.7,42,55,44.7,35.1C46,25.1,50.2,17,56.8,11.9c0.7-0.5,1.5-1,2.3-1.6l0,0
	C75.3,0,102,7.1,125.2,28l1.9-2.2C101.5,2.7,72.6-3.9,55.2,9.4L55,9.5c-15.8,11-26.1,26.3-29.9,44.1c-3.7,17.5-1,36.1,7.6,53.6
	L43.3,161h-0.2l13.8,12.8H18.4v23.7h108v-23.7h-26l-23.5-16.3V148c3.6,1.3,7.3,2.4,11,3.2c5.6,1.2,11.3,1.7,17,1.7
	c14.3-0.1,28.3-3.5,41-10.2c2.8-1.1,5.4-2.5,7.8-4.3C172.4,124,172.2,89.8,153,57.2z M63.1,141.5c0.6,0.4,1.3,0.7,1.9,1.1
	C64.4,142.2,63.8,141.9,63.1,141.5z M62,140.7l0.6,0.4L62,140.7z M88.4,148.3c-19.4-3.9-36.4-15.5-47.2-32
	C28.4,96.6,23.7,74.6,28,54.3c2.6-12.5,8.8-24,17.7-33.1c-2,4.3-3.4,8.9-3.9,13.6C39,55.6,47.7,81.5,64.9,104
	c13.1,17.1,29.5,30.2,46.1,36.7c6.8,2.8,14,4.3,21.4,4.5h0.7C118.8,150.3,103.3,151.4,88.4,148.3L88.4,148.3z"/>
<path class="st1" d="M68.3,49.2c0.4,1.8,2.1,3,3.9,2.6c0,0,0,0,0,0l57.9-11.4c0.3,1.5,0.8,3,1.5,4.4L82.3,82.9c-1.5,1-2,3-1,4.5
	s3,2,4.5,1c0.2-0.1,0.4-0.3,0.5-0.4L135.6,50c1.4,1.3,3.1,2.3,4.9,3l-25.8,53.7c-0.8,1.6-0.1,3.6,1.5,4.4c1.6,0.8,3.6,0.1,4.4-1.5
	l0,0l26.6-55.3c9.3-0.3,16.6-8.1,16.3-17.4c-0.3-9.3-8.1-16.6-17.4-16.3c-7.6,0.3-14.2,5.6-15.9,13.1L70.9,45.2
	c-1.8,0.4-2.9,2.1-2.6,3.9C68.3,49.1,68.3,49.1,68.3,49.2z"/>
</svg>
