<svg id="Layer_1" data-name="Layer 1" xmlns="http://www.w3.org/2000/svg" viewBox="0 0 237.13 200"><defs><style>.cls-1{fill:#919195;}.cls-2{fill:#cccccb;}</style></defs><title>DevDot</title><g id="_Group_" data-name="&lt;Group&gt;"><polygon id="_Path_" data-name="&lt;Path&gt;" class="cls-1" points="196.25 44.97 118.56 0 40.88 44.97 196.25 44.97"/><path id="_Path_2" data-name="&lt;Path&gt;" class="cls-2" d="M224.87,73.59V61.33H192.16V73.59a4.09,4.09,0,0,0,4.09,4.09,4.09,4.09,0,0,1,4.09,4.09v65.42a4.09,4.09,0,0,1-4.09,4.09,4.09,4.09,0,0,0-4.09,4.09v12.27h32.71V155.36a4.09,4.09,0,0,0-4.09-4.09,4.09,4.09,0,0,1-4.09-4.09V81.77a4.09,4.09,0,0,1,4.09-4.09,4.09,4.09,0,0,0,4.09-4.09"/><path id="_Path_3" data-name="&lt;Path&gt;" class="cls-2" d="M179.89,73.59V61.33H147.18V73.59a4.09,4.09,0,0,0,4.09,4.09,4.09,4.09,0,0,1,4.09,4.09v65.42a4.09,4.09,0,0,1-4.09,4.09,4.09,4.09,0,0,0-4.09,4.09v12.27h32.71V155.36a4.09,4.09,0,0,0-4.09-4.09,4.09,4.09,0,0,1-4.09-4.09V81.77a4.09,4.09,0,0,1,4.09-4.09,4.09,4.09,0,0,0,4.09-4.09"/><path id="_Path_4" data-name="&lt;Path&gt;" class="cls-2" d="M134.92,73.59V61.33H102.21V73.59a4.09,4.09,0,0,0,4.09,4.09,4.09,4.09,0,0,1,4.09,4.09v65.42a4.09,4.09,0,0,1-4.09,4.09,4.09,4.09,0,0,0-4.09,4.09v12.27h32.71V155.36a4.09,4.09,0,0,0-4.09-4.09,4.09,4.09,0,0,1-4.09-4.09V81.77a4.09,4.09,0,0,1,4.09-4.09,4.09,4.09,0,0,0,4.09-4.09"/><path id="_Path_5" data-name="&lt;Path&gt;" class="cls-2" d="M89.95,73.59V61.33H57.24V73.59a4.09,4.09,0,0,0,4.09,4.09,4.09,4.09,0,0,1,4.09,4.09v65.42a4.09,4.09,0,0,1-4.09,4.09,4.09,4.09,0,0,0-4.09,4.09v12.27H89.95V155.36a4.09,4.09,0,0,0-4.09-4.09,4.09,4.09,0,0,1-4.09-4.09V81.77a4.09,4.09,0,0,1,4.09-4.09,4.09,4.09,0,0,0,4.09-4.09"/><path id="_Path_6" data-name="&lt;Path&gt;" class="cls-2" d="M45,73.59V61.33H12.27V73.59a4.09,4.09,0,0,0,4.09,4.09,4.09,4.09,0,0,1,4.09,4.09v65.42a4.09,4.09,0,0,1-4.09,4.09,4.09,4.09,0,0,0-4.09,4.09v12.27H45V155.36a4.09,4.09,0,0,0-4.09-4.09,4.09,4.09,0,0,1-4.09-4.09V81.77a4.09,4.09,0,0,1,4.09-4.09A4.09,4.09,0,0,0,45,73.59"/><rect id="_Path_7" data-name="&lt;Path&gt;" class="cls-2" y="183.98" width="237.13" height="16.35"/><rect id="_Path_8" data-name="&lt;Path&gt;" class="cls-1" x="4.09" y="167.63" width="228.95" height="16.35"/><polygon id="_Path_9" data-name="&lt;Path&gt;" class="cls-1" points="233.04 61.33 4.09 61.33 12.27 44.97 224.87 44.97 233.04 61.33"/><path id="_Path_10" data-name="&lt;Path&gt;" class="cls-2" d="M49.06,20.44,40.88,44.69a.16.16,0,0,0,.25.14L83.26,20.44Z"/><path id="_Path_11" data-name="&lt;Path&gt;" class="cls-2" d="M153.88,20.44,196,44.83a.16.16,0,0,0,.25-.14l-8.18-24.25Z"/></g></svg>