<svg id="Layer_1" data-name="Layer 1" xmlns="http://www.w3.org/2000/svg" viewBox="0 0 100 100"><defs><style>.cls-1{fill:#f60;}</style></defs><title>DevDotSvgGAssets</title><path class="cls-1" d="M76,90.3c0,2.08-2.95,5.12-5,5.12H13.12c-2.08,0-3.12-3-3.12-5.12V30.42H21.28a108.93,108.93,0,0,0-.78,12H25a99.25,99.25,0,0,1,.87-12H58.18a99.25,99.25,0,0,1,.87,12h4.55a109,109,0,0,0-.78-12H81v-5H62C58.75,14.42,51.14,1.67,42,1.67S25.34,14.42,22.13,25.42H6V90.3c0,4.58,2.53,8.12,7.12,8.12H71a7.92,7.92,0,0,0,8-8.12v-23l-3,7.41ZM42,6.22c6.55,0,12.37,9.2,15.19,19.2H26.85C29.68,15.42,35.5,6.22,42,6.22Z"/><path class="cls-1" d="M93.65,29.85c-13.67,10.09-25.3,23-33,32.84L52.8,53.39,48.71,63C54.59,71.77,58.47,79.3,60.6,82.9c4.18-7,14.32-28,35.36-47.57Z"/></svg>