<svg id="Layer_1" data-name="Layer 1" xmlns="http://www.w3.org/2000/svg" viewBox="0 0 100 100"><defs><style>.cls-1{fill:#f60;}</style></defs><title>DevDotSvgGAssets</title><path class="cls-1" d="M78,88.58,62,48a23.08,23.08,0,0,0,5.38-23.43l-3.74,1.25A19.16,19.16,0,1,1,45.45,12.71a19.33,19.33,0,0,1,2.83.21L48.85,9a23.43,23.43,0,0,0-3.41-.25A23.08,23.08,0,0,0,28.91,48l-16,40.62A2,2,0,0,0,15,91.25l11.83-1.82L34,98.75a2,2,0,0,0,1.56.77l.28,0a2,2,0,0,0,1.56-1.23l8-20.3,8,20.3A2,2,0,0,0,55,99.5l.28,0a2,2,0,0,0,1.56-.77l7.2-9.33,11.83,1.82A2,2,0,0,0,78,88.58Zm-34.4-16.7-.5.2.21.53L35,93.6l-5.79-7.5a2,2,0,0,0-1.86-.74l-9.58,1.48L32.08,50.67a22.83,22.83,0,0,0,18.44,3.71ZM63.51,85.35a2,2,0,0,0-1.86.74l-5.79,7.5-8.29-21,7.88-20a23.1,23.1,0,0,0,3.37-2L73.09,86.83Z"/><path class="cls-1" d="M38.49,20.27l-3.33,7.86c4.79,7.14,8,13.28,9.69,16.21,3.4-5.75,11.68-22.82,28.84-38.79L71.81,1.08C60.66,9.31,51.18,19.83,44.88,27.86,44.88,27.86,40.85,22.94,38.49,20.27Z"/></svg>