<svg id="Layer_1" data-name="Layer 1" xmlns="http://www.w3.org/2000/svg" viewBox="0 0 100 100"><defs><style>.cls-1{fill:#027fad;}</style></defs><title>DevDotSvgGAssets</title><path class="cls-1" d="M90.67,1H12.33C6.92,1,1,5.27,1,10.68V89c0,5.41,5.92,10,11.33,10H90.67C96.08,99,99,94.43,99,89V10.68C99,5.24,96.06,1,90.67,1ZM80.73,80.43C77.84,81.4,62.78,82,50.5,82s-27.34-.6-30.24-1.57c-6.11-2-9.09-11.95-9.09-30.41s3-28.4,9.09-30.44c2.9-.92,18-1.53,30.24-1.53s27.36.64,30.24,1.6c6.11,2,9.09,11.93,9.09,30.37S86.85,78.43,80.73,80.43Z"/><path class="cls-1" d="M79.15,24.47c-1.69-.54-14-1.35-28.65-1.35s-27,.77-28.67,1.28c-2.68.89-5.59,8.11-5.59,25.62s2.9,24.71,5.61,25.59c1.65.52,13.9,1.31,28.65,1.31s27-.79,28.64-1.31c2.72-.89,5.62-8.08,5.62-25.6S81.87,25.35,79.15,24.47ZM44.8,66.58V33.47L66.87,50Z"/></svg>