<svg id="Layer_1" data-name="Layer 1" xmlns="http://www.w3.org/2000/svg" viewBox="0 0 200 200"><defs><style>.cls-1{fill:#d7d7d7;}.cls-2,.cls-3{fill:#eaeaea;}.cls-3{stroke:#919195;stroke-linecap:round;stroke-linejoin:round;stroke-width:5.35px;}.cls-4{fill:#919195;}</style></defs><title>DevDot</title><rect class="cls-1" x="36.76" y="35.53" width="124.91" height="124.91"/><path class="cls-2" d="M132.92,168l36-35.83V84.91L85.67,168Zm27-38.6L130.16,158H101.8l58.13-57Z"/><path class="cls-2" d="M143.72,30,34.93,143v25H57.32L168.93,56.56V30Zm16.21,23.79L54.55,158H38.93V145.73L146.49,38h13.44Z"/><path class="cls-2" d="M68.11,30,34.93,67.35v47.26L115.36,30ZM38.93,70.12,70.88,38H99.23L38.93,98.48Z"/><polygon class="cls-3" points="3.03 2.27 3.03 35.69 3.03 162.66 3.03 196.08 36.45 162.66 36.45 35.69 3.03 2.27"/><polygon class="cls-3" points="3.03 196.08 36.45 196.08 163.42 196.08 196.84 196.08 163.42 162.66 36.45 162.66 3.03 196.08"/><polygon class="cls-3" points="3.03 2.27 36.45 2.27 163.42 2.27 196.84 2.27 163.42 35.69 36.45 35.69 3.03 2.27"/><polygon class="cls-3" points="196.84 2.27 196.84 35.69 196.84 162.66 196.84 196.08 163.42 162.66 163.42 35.69 196.84 2.27"/><circle class="cls-4" cx="13.05" cy="169.35" r="3.34"/><circle class="cls-4" cx="26.42" cy="155.98" r="3.34"/><circle class="cls-4" cx="13.05" cy="29" r="3.34"/><circle class="cls-4" cx="26.42" cy="42.37" r="3.34"/><circle class="cls-4" cx="170.1" cy="186.05" r="3.34"/><circle class="cls-4" cx="156.74" cy="172.69" r="3.34"/><circle class="cls-4" cx="29.76" cy="186.05" r="3.34"/><circle class="cls-4" cx="43.13" cy="172.69" r="3.34"/><circle class="cls-4" cx="170.1" cy="12.3" r="3.34"/><circle class="cls-4" cx="156.74" cy="25.66" r="3.34"/><circle class="cls-4" cx="29.76" cy="12.3" r="3.34"/><circle class="cls-4" cx="43.13" cy="25.66" r="3.34"/><circle class="cls-4" cx="186.81" cy="169.35" r="3.34"/><circle class="cls-4" cx="173.45" cy="155.98" r="3.34"/><circle class="cls-4" cx="186.81" cy="29" r="3.34"/><circle class="cls-4" cx="173.45" cy="42.37" r="3.34"/></svg>