<svg id="Layer_1" data-name="Layer 1" xmlns="http://www.w3.org/2000/svg" viewBox="0 0 100 100"><defs><style>.cls-1{fill:#e4eff6;}.cls-2{fill:#007fad;}.cls-3{fill:#fff;}.cls-4{fill:#75c5e4;}.cls-5{fill:#059bd2;}.cls-6{fill:#acdaed;}</style></defs><title>DevDotSvgGAssets</title><polygon class="cls-1" points="0 23.48 0 52.39 0 100 98.62 100 98.62 52.39 98.62 23.48 0 23.48"/><rect class="cls-2" x="3.4" y="23.48" width="17" height="61.21"/><path class="cls-3" d="M17,26.89V81.3H6.8V26.89H17m3.4-3.4H3.4V84.7h17V23.48Z"/><rect class="cls-2" x="57.81" y="23.48" width="35.71" height="61.21"/><path class="cls-3" d="M90.12,26.89V81.3H61.21V26.89H90.12m3.4-3.4H57.81V84.7H93.52V23.48Z"/><rect class="cls-3" x="23.8" y="23.48" width="27.21" height="76.52"/><rect class="cls-2" x="27.21" y="62.59" width="20.4" height="34.01"/><path class="cls-3" d="M68,55.79a1.7,1.7,0,0,0,1.2-.5l6.8-6.8a1.7,1.7,0,1,0-2.4-2.4l-6.8,6.8a1.7,1.7,0,0,0,1.2,2.9Z"/><path class="cls-3" d="M68,64.29a1.7,1.7,0,0,0,1.2-.5l3.4-3.4a1.7,1.7,0,1,0-2.4-2.4l-3.4,3.4a1.7,1.7,0,0,0,1.2,2.9Z"/><path class="cls-3" d="M73.61,54.58a1.74,1.74,0,0,0-.49,1.21,1.7,1.7,0,1,0,.49-1.21Z"/><path class="cls-3" d="M77,53.59a1.7,1.7,0,0,0,2.4,0l5.1-5.1a1.7,1.7,0,0,0-2.4-2.4L77,51.19A1.7,1.7,0,0,0,77,53.59Z"/><path class="cls-3" d="M82.11,54.59l-15.3,15.3a1.7,1.7,0,1,0,2.4,2.4L84.52,57a1.7,1.7,0,0,0-2.4-2.4Z"/><path class="cls-3" d="M87.92,51.18a1.78,1.78,0,0,0-2.41,0A1.74,1.74,0,0,0,85,52.39a1.68,1.68,0,0,0,1.7,1.7,1.76,1.76,0,0,0,1.21-.49,1.79,1.79,0,0,0,.49-1.21A1.75,1.75,0,0,0,87.92,51.18Z"/><rect class="cls-4" y="89.8" width="23.8" height="10.2"/><rect class="cls-4" x="51.01" y="89.8" width="47.61" height="10.2"/><rect class="cls-5" x="6.8" y="89.8" width="3.4" height="10.2"/><rect class="cls-5" x="13.6" y="89.8" width="3.4" height="10.2"/><rect class="cls-5" x="57.81" y="89.8" width="3.4" height="10.2"/><rect class="cls-5" x="64.61" y="89.8" width="3.4" height="10.2"/><rect class="cls-5" x="71.41" y="89.8" width="3.4" height="10.2"/><rect class="cls-5" x="78.22" y="89.8" width="3.4" height="10.2"/><rect class="cls-5" x="85.02" y="89.8" width="3.4" height="10.2"/><rect class="cls-5" x="91.82" y="89.8" width="3.4" height="10.2"/><path class="cls-2" d="M37.41,35.39a11.88,11.88,0,0,1-9.76-5.1h-.44V59.19h20.4V30.29h-.44A11.88,11.88,0,0,1,37.41,35.39Z"/><path class="cls-4" d="M28.91,1.38H23.8A24.58,24.58,0,0,0,.18,19.47c-.36,1.31.14.62.47.62H49.31V1.38Z"/><path class="cls-1" d="M76.52,20.08H98c.3,0,.68.29.44-.58v0a24.52,24.52,0,0,0-21.93-18V1.38H49.31v18.7H76.52Z"/><path class="cls-1" d="M49.31,20.08H25.51A22.78,22.78,0,0,1,47.92,1.38h1.39Z"/><path class="cls-4" d="M73.11,20.08H49.31V1.38H50.7a22.78,22.78,0,0,1,22.41,18.7Z"/><path class="cls-5" d="M13.6,35.39H11.9A11.9,11.9,0,0,1,0,23.48V20.36a.27.27,0,0,1,.27-.27H25.51v3.4A11.9,11.9,0,0,1,13.6,35.39Z"/><path class="cls-6" d="M37.41,35.39h0a11.9,11.9,0,0,1-11.9-11.9v-3.4h23.8v3.4A11.9,11.9,0,0,1,37.41,35.39Z"/><path class="cls-5" d="M61.21,35.39h0a11.9,11.9,0,0,1-11.9-11.9v-3.4h23.8v3.4A11.9,11.9,0,0,1,61.21,35.39Z"/><path class="cls-6" d="M86.72,35.39H85a11.9,11.9,0,0,1-11.9-11.9v-3.4H98.35a.27.27,0,0,1,.27.27v3.13A11.9,11.9,0,0,1,86.72,35.39Z"/></svg>