<?xml version="1.0" encoding="utf-8"?>
<!-- Generator: Adobe Illustrator 20.0.0, SVG Export Plug-In . SVG Version: 6.00 Build 0)  -->
<svg version="1.1" id="Layer_1" xmlns="http://www.w3.org/2000/svg" xmlns:xlink="http://www.w3.org/1999/xlink" x="0px" y="0px"
	 viewBox="0 0 100 100" style="enable-background:new 0 0 100 100;" xml:space="preserve">
<style type="text/css">
	.st0{fill:#059BD2;}
</style>
<title>DevDotSvgGAssets</title>
<path class="st0" d="M84.3,10.7v14.7h-9.8c-2.7,0-4.9,2.2-4.9,4.9c0,0,0,0,0,0v9.8h14.7v14.7H69.6V89H54.9V54.7h-9.8V40.1h9.8V27.8
	c0-9.5,7.6-17.1,17.1-17.1c0,0,0,0,0,0 M89.2,0.9H10.8C5.4,0.9,1,5.2,1,10.6c0,0,0,0,0,0V89c0,5.4,4.4,9.8,9.8,9.8l0,0h78.4
	c5.4,0,9.8-4.3,9.8-9.7c0,0,0,0,0,0V10.7C99,5.3,94.6,0.9,89.2,0.9C89.2,0.9,89.2,0.9,89.2,0.9z"/>
</svg>
