<svg id="Layer_1" data-name="Layer 1" xmlns="http://www.w3.org/2000/svg" viewBox="0 0 183.48 200"><defs><style>.cls-1{fill:#919195;}.cls-2{fill:#5f6163;}.cls-3{fill:#fff;}</style></defs><title>DevDotSvgAssets</title><path id="_Path_3" data-name=" Path 3" class="cls-1" d="M155.91,197.47H26.57a15.34,15.34,0,0,1-15.35-15.35h160a15.34,15.34,0,0,1-15.35,15.35"/><rect id="_Path_4" data-name=" Path 4" class="cls-1" x="66.67" y="120.34" width="49.31" height="18.43"/><path class="cls-2" d="M69.92,79.15a25.12,25.12,0,0,1,9,19.69v21.68h24.57V98.12a23.91,23.91,0,0,1,8.67-19,34.1,34.1,0,0,0,13-26.37,34.15,34.15,0,0,0-34-34,33.65,33.65,0,0,0-33.78,34A34.44,34.44,0,0,0,69.92,79.15Z"/><path class="cls-2" d="M176.32,137.26H116v-3H66.67v3H6.34A5.91,5.91,0,0,0,.5,143.1v34.68a5.9,5.9,0,0,0,5.83,5.65h170.1a5.5,5.5,0,0,0,3.8-1.55,6.22,6.22,0,0,0,1.91-4V143.1A5.91,5.91,0,0,0,176.32,137.26Zm2.83,40.46a3.19,3.19,0,0,1-1,2,2.52,2.52,0,0,1-1.92.72H6.34a2.86,2.86,0,0,1-2.83-2.65V143.1a2.91,2.91,0,0,1,2.83-2.84h170a2.91,2.91,0,0,1,2.83,2.84Z"/><circle class="cls-3" cx="76.37" cy="38.81" r="5.73"/></svg>