<svg id="Layer_1" data-name="Layer 1" xmlns="http://www.w3.org/2000/svg" viewBox="0 0 100 100"><defs><style>.cls-1{fill:#e4eff6;}.cls-2{fill:#3db0db;}.cls-3{fill:#059bd2;}.cls-4{fill:#027fad;}</style></defs><title>DevDotSvgGAssets</title><rect class="cls-1" x="18.28" y="18.28" width="63.44" height="63.44"/><path class="cls-2" d="M66.48,83.39,83.39,66.48V42.87L42.87,83.39ZM80,65.1,65.1,80H50.93L80,50.93Z"/><path class="cls-2" d="M71.88,16.61,16.61,71.88V83.39h12.1L83.39,28.71V16.61ZM80,27.33,27.33,80H20V73.26L73.26,20H80Z"/><path class="cls-2" d="M34.1,16.61,16.61,34.1V57.71l41.1-41.1ZM20,35.48,35.48,20H49.65L20,49.65Z"/><polygon class="cls-1" points="1.59 1.59 1.59 18.28 1.59 81.72 1.59 98.41 18.28 81.72 18.28 18.28 1.59 1.59"/><path class="cls-3" d="M1.59,99.87A1.45,1.45,0,0,1,.13,98.41V1.59a1.45,1.45,0,0,1,2.48-1L19.31,17.25a1.45,1.45,0,0,1,.43,1V81.72a1.45,1.45,0,0,1-.43,1L2.61,99.44A1.45,1.45,0,0,1,1.59,99.87ZM3,5.09V94.91L16.83,81.12V18.88Z"/><polygon class="cls-1" points="1.59 98.41 18.28 98.41 81.72 98.41 98.41 98.41 81.72 81.72 18.28 81.72 1.59 98.41"/><path class="cls-3" d="M98.41,99.87H1.59a1.45,1.45,0,0,1-1-2.48L17.25,80.69a1.45,1.45,0,0,1,1-.43H81.72a1.45,1.45,0,0,1,1,.43L99.44,97.39a1.45,1.45,0,0,1-1,2.48ZM5.09,97H94.91L81.12,83.17H18.88Z"/><polygon class="cls-1" points="1.59 1.59 18.28 1.59 81.72 1.59 98.41 1.59 81.72 18.28 18.28 18.28 1.59 1.59"/><path class="cls-3" d="M81.72,19.73H18.28a1.45,1.45,0,0,1-1-.43L.56,2.61a1.45,1.45,0,0,1,1-2.48H98.41a1.45,1.45,0,0,1,1,2.48L82.75,19.31A1.45,1.45,0,0,1,81.72,19.73Zm-62.84-2.9H81.12L94.91,3H5.09Z"/><polygon class="cls-1" points="98.41 1.59 98.41 18.28 98.41 81.72 98.41 98.41 81.72 81.72 81.72 18.28 98.41 1.59"/><path class="cls-3" d="M98.41,99.87a1.45,1.45,0,0,1-1-.43L80.69,82.75a1.45,1.45,0,0,1-.43-1V18.28a1.45,1.45,0,0,1,.43-1L97.39.56a1.45,1.45,0,0,1,2.48,1V98.41a1.45,1.45,0,0,1-1.45,1.45ZM83.17,81.12,97,94.91V5.09L83.17,18.88Z"/><circle class="cls-4" cx="6.6" cy="85.06" r="1.67"/><circle class="cls-4" cx="13.27" cy="78.38" r="1.67"/><circle class="cls-4" cx="6.6" cy="14.94" r="1.67"/><circle class="cls-4" cx="13.27" cy="21.62" r="1.67"/><circle class="cls-4" cx="85.06" cy="93.4" r="1.67"/><circle class="cls-4" cx="78.38" cy="86.73" r="1.67"/><circle class="cls-4" cx="14.94" cy="93.4" r="1.67"/><circle class="cls-4" cx="21.62" cy="86.73" r="1.67"/><circle class="cls-4" cx="85.06" cy="6.6" r="1.67"/><circle class="cls-4" cx="78.38" cy="13.27" r="1.67"/><circle class="cls-4" cx="14.94" cy="6.6" r="1.67"/><circle class="cls-4" cx="21.62" cy="13.27" r="1.67"/><circle class="cls-4" cx="93.4" cy="85.06" r="1.67"/><circle class="cls-4" cx="86.73" cy="78.38" r="1.67"/><circle class="cls-4" cx="93.4" cy="14.94" r="1.67"/><circle class="cls-4" cx="86.73" cy="21.62" r="1.67"/></svg>