<svg id="Layer_1" data-name="Layer 1" xmlns="http://www.w3.org/2000/svg" viewBox="0 0 100 100"><defs><style>.cls-1{fill:#acdaed;stroke:#e4eff6;stroke-miterlimit:10;}.cls-2{fill:#75c5e4;}.cls-3{fill:#027fad;}.cls-4{fill:#3db0db;stroke:#76c4e3;stroke-linecap:round;stroke-linejoin:round;}.cls-5{fill:#059bd2;}.cls-6{fill:#e4eff6;}</style></defs><title>DevDotSvgGAssets</title><path id="_Path_" data-name="&lt;Path&gt;" class="cls-1" d="M68.55,19.75A18.75,18.75,0,1,0,38,34.33a13.93,13.93,0,0,1,5,10.89v12H56.61V44.91a13.35,13.35,0,0,1,4.85-10.5,18.69,18.69,0,0,0,7.08-14.66"/><path id="_Path_2" data-name="&lt;Path&gt;" class="cls-2" d="M96.83,91.35H2.75A2.36,2.36,0,0,1,.39,89V69.85a2.36,2.36,0,0,1,2.36-2.36H96.84a2.36,2.36,0,0,1,2.36,2.36V89a2.36,2.36,0,0,1-2.36,2.36"/><path id="_Path_3" data-name="&lt;Path&gt;" class="cls-3" d="M85.56,99.87H14A8.52,8.52,0,0,1,5.5,91.35H94.08a8.52,8.52,0,0,1-8.52,8.52"/><rect id="_Path_4" data-name="&lt;Path&gt;" class="cls-4" x="36.16" y="57.25" width="27.28" height="10.23"/><rect class="cls-5" x="36.16" y="64.93" width="27.28" height="2.56"/><circle class="cls-6" cx="45.15" cy="15.67" r="6.85"/></svg>