<svg id="Layer_1" data-name="Layer 1" xmlns="http://www.w3.org/2000/svg" viewBox="0 0 100 100"><defs><style>.cls-1{fill:#059bd2;}.cls-2{fill:#027fad;}.cls-3{fill:#e4eff6;}.cls-4{fill:#75c5e4;}.cls-5{fill:#acdaed;}.cls-6{fill:#fff;}</style></defs><title>DevDotSvgGAssets</title><path class="cls-1" d="M74.68,97.79,51.43,74.55a1.67,1.67,0,0,0-.26-.22l-.09,0-.2-.1-.17-.05-.14,0a1.66,1.66,0,0,0-.65,0l-.14,0-.17.05-.2.1-.09,0a1.66,1.66,0,0,0-.26.22L25.83,97.79a1.66,1.66,0,1,0,2.35,2.35L48.59,79.72V95.64a1.66,1.66,0,0,0,3.32,0V79.72l20.41,20.41a1.66,1.66,0,0,0,2.35-2.35Z"/><path class="cls-2" d="M46.31,82l2.28-2.28V82h3.32V79.72L54.19,82h4.7l-7.45-7.45a1.67,1.67,0,0,0-.26-.22l-.09,0-.2-.1-.17-.05-.14,0a1.66,1.66,0,0,0-.65,0l-.14,0-.17.05-.2.1-.09,0a1.66,1.66,0,0,0-.26.22L41.62,82Z"/><path class="cls-1" d="M50.25,11a1.66,1.66,0,0,1-1.66-1.66V2.65a1.66,1.66,0,0,1,3.32,0V9.29A1.66,1.66,0,0,1,50.25,11Z"/><rect class="cls-3" x="2.1" y="9.29" width="96.31" height="66.42"/><path class="cls-1" d="M56.9,32.54H43.61V19.25H56.9Zm-10-3.32h6.64V22.58H46.93Z"/><polygon class="cls-4" points="51.91 40.84 51.91 32.54 48.59 32.54 48.59 40.84 23.69 40.84 23.69 50.35 27.01 50.35 27.01 44.16 48.59 44.16 48.59 50.35 51.91 50.35 51.91 44.16 73.5 44.16 73.5 50.35 76.82 50.35 76.82 40.84 51.91 40.84"/><path class="cls-5" d="M25.35,64.09a8.3,8.3,0,1,1,8.3-8.3A8.31,8.31,0,0,1,25.35,64.09Zm0-13.28a5,5,0,1,0,5,5A5,5,0,0,0,25.35,50.8Z"/><path class="cls-5" d="M50.25,64.09a8.3,8.3,0,1,1,8.3-8.3A8.31,8.31,0,0,1,50.25,64.09Zm0-13.28a5,5,0,1,0,5,5A5,5,0,0,0,50.25,50.8Z"/><path class="cls-5" d="M75.16,64.09a8.3,8.3,0,1,1,8.3-8.3A8.31,8.31,0,0,1,75.16,64.09Zm0-13.28a5,5,0,1,0,5,5A5,5,0,0,0,75.16,50.8Z"/><path class="cls-1" d="M98.63,77.39H1.37a1.68,1.68,0,0,1,0-3.35H98.63a1.68,1.68,0,0,1,0,3.35Z"/><path class="cls-6" d="M7.69,22.5a1.7,1.7,0,0,0,1.2-.5l6.8-6.8a1.7,1.7,0,0,0-2.4-2.4l-6.8,6.8a1.7,1.7,0,0,0,1.2,2.9Z"/><path class="cls-6" d="M7.69,31a1.7,1.7,0,0,0,1.2-.5l3.4-3.4a1.7,1.7,0,0,0-2.4-2.4l-3.4,3.4A1.7,1.7,0,0,0,7.69,31Z"/><path class="cls-6" d="M13.29,21.29a1.74,1.74,0,0,0-.49,1.21A1.71,1.71,0,0,0,15.7,23.7a1.71,1.71,0,0,0-2.41-2.41Z"/><path class="cls-6" d="M16.69,20.3a1.7,1.7,0,0,0,2.4,0l5.1-5.1a1.7,1.7,0,0,0-2.4-2.4l-5.1,5.1A1.7,1.7,0,0,0,16.69,20.3Z"/><path class="cls-6" d="M21.79,21.29,6.49,36.6A1.7,1.7,0,1,0,8.89,39L24.2,23.7a1.7,1.7,0,0,0-2.4-2.4Z"/><path class="cls-6" d="M27.6,17.89a1.78,1.78,0,0,0-2.41,0,1.74,1.74,0,0,0-.49,1.21,1.68,1.68,0,0,0,1.7,1.7,1.76,1.76,0,0,0,1.21-.49,1.79,1.79,0,0,0,.49-1.21A1.75,1.75,0,0,0,27.6,17.89Z"/></svg>