<?xml version="1.0" encoding="utf-8"?>
<!-- Generator: Adobe Illustrator 20.0.0, SVG Export Plug-In . SVG Version: 6.00 Build 0)  -->
<svg version="1.1" id="Layer_1" xmlns="http://www.w3.org/2000/svg" xmlns:xlink="http://www.w3.org/1999/xlink" x="0px" y="0px"
	 viewBox="0 0 183.5 200" style="enable-background:new 0 0 183.5 200;" xml:space="preserve">
<style type="text/css">
	.st0{fill:#919195;}
	.st1{fill:#5F6163;}
</style>
<title>DevDotSvgAssets</title>
<path class="st0" d="M147.8,21.6c-8.6-1.1-16.6,4.5-18.5,12.9L69.9,46.2c-1.8,0.4-3,2.1-2.6,3.9c0.4,1.8,2.1,3,3.9,2.6l57.9-11.4
	c0.3,1.5,0.8,3,1.5,4.4L81.3,83.9c-1.3,1.3-1.4,3.3-0.1,4.7c1.1,1.1,2.8,1.3,4.1,0.5L134.5,51c1.4,1.3,3.1,2.3,4.9,3l-25.8,53.7
	c-0.8,1.6-0.1,3.6,1.5,4.4c1.6,0.8,3.6,0.1,4.4-1.5l0,0l26.6-55.3c9.3-0.3,16.6-8.1,16.3-17.4C162.1,29.4,155.9,22.6,147.8,21.6
	L147.8,21.6z"/>
<path class="st1" d="M152,58.3l-2.5,1.5c18.3,31.2,18.9,63.6,1.5,77.2l-0.1-0.1c-2.3,1.5-4.7,2.9-7.2,4.2c-3.9,1.5-8.1,2.2-12.3,2.2
	c-20.3,0-45.9-14.9-65.2-40C49.7,81.7,41,56,43.7,36.2C45,26.1,49.2,18,55.8,12.9c0.7-0.5,1.5-1.1,2.3-1.6l0,0
	C74.3,1.1,101,8.1,124.2,29l1.9-2.2C100.5,3.7,71.6-2.9,54.2,10.4L54,10.5c-15.8,11-26.1,26.3-29.9,44.1c-3.7,17.5-1,36.1,7.6,53.6
	L42.3,162h-0.2l13.8,12.8H17.4v23.7h108v-23.7h-26l-23.5-16.3V149c3.6,1.3,7.3,2.4,11,3.2c5.6,1.2,11.3,1.7,17,1.7
	c14.3-0.1,28.3-3.5,41-10.2c2.8-1.1,5.4-2.5,7.8-4.3C171.4,125,171.2,90.8,152,58.3z M62.1,142.5c0.6,0.4,1.3,0.8,1.9,1.1
	C63.4,143.2,62.7,142.9,62.1,142.5z M61,141.8l0.7,0.4L61,141.8z M87.4,149.3c-19.4-3.9-36.4-15.5-47.2-32
	C27.4,97.6,22.7,75.6,27,55.3c2.6-12.5,8.8-24,17.7-33.1c-2,4.3-3.4,8.9-3.9,13.6C38,56.6,46.7,82.5,63.9,105
	c13.1,17.1,29.5,30.1,46.1,36.7c6.8,2.8,14,4.3,21.4,4.5h0.7C117.8,151.3,102.3,152.4,87.4,149.3L87.4,149.3z"/>
</svg>
