<svg id="Layer_1" data-name="Layer 1" xmlns="http://www.w3.org/2000/svg" viewBox="0 0 233.65 200"><defs><style>.cls-1{fill:#0a9bd2;}.cls-2{fill:#047fad;}</style></defs><title>DevDotSvgAssets</title><rect class="cls-1" x="88.57" y="25.15" width="79.65" height="11.12"/><rect class="cls-1" x="66.79" y="25.15" width="13.14" height="11.12"/><rect class="cls-1" x="88.57" y="48.59" width="79.65" height="11.12"/><rect class="cls-1" x="66.79" y="48.59" width="13.14" height="11.12"/><path class="cls-1" d="M123.69,149.1v-9.55a14.64,14.64,0,0,1,7.45,3.92l3.64-4.8a18.67,18.67,0,0,0-11.1-5v-5.13h-4.42v5.08c-7.12.61-11.65,5.08-11.65,10.71,0,7.18,6,9.22,11.65,10.65v10.71a15.77,15.77,0,0,1-9.22-5l-3.64,5a19.47,19.47,0,0,0,12.86,5.74v5h4.42v-5c8.28-.72,12-5.68,12-11.31C135.67,152.74,129.43,150.59,123.69,149.1Zm-4.42-1.16c-2.93-.88-5-2-5-4.14,0-2.43,1.93-4.14,5-4.53Zm4.42,17.77v-9.6c3,.94,5.35,2.15,5.35,4.63C129,162.89,127.5,165.16,123.69,165.71Z"/><path class="cls-2" d="M10.59,107.05v91.24H224.22V107.21H224v-.15h-6.34s.17-40.34.17-40.58a1.5,1.5,0,0,0-.79-1.32l-24-12.88V1.19H43.19V51.68L19.78,64l-.31,43M43.19,76.46l-20-10.61,20-10.77ZM193.07,55.67l20.11,10.79L193.07,77.2ZM46.19,78.06V4.19H190.07V78.8l-52.93,28.25H100.8Zm175,117.24H13.59V111L99.3,156.55v-3.4l-81.19-43.1H221v1.3L144.52,152v3.4l76.7-40.72Z"/></svg>