<svg id="Layer_1" data-name="Layer 1" xmlns="http://www.w3.org/2000/svg" viewBox="0 0 1122 317"><defs><style>.cls-1,.cls-2{fill:#f5f6fa;}.cls-2,.cls-3{stroke:#d7d7d7;stroke-miterlimit:10;}.cls-3{fill:none;}</style></defs><title>DevDotSvgGAssets</title><path class="cls-1" d="M535.39,268.87q-2.66,2.66-5.44,5.18Q532.73,271.52,535.39,268.87Z"/><path class="cls-2" d="M419.4,1.69q-2.74.09-5.45.28Q416.66,1.78,419.4,1.69Z"/><path class="cls-1" d="M291,239.69a156,156,0,0,1-23.12-81.53c0-29.87,7.64-57.78,22.64-81.53h0c-2-3.12-3.69-6.16-5.81-9.14-.84,1.3-1.56,2.6-2.36,3.92a166.8,166.8,0,0,0,.09,173.49c.81,1.32,1.66,2.63,2.5,3.93,2.12-3,4.15-6,6.06-9.14Z"/><path class="cls-1" d="M804.39,268.87q-2.66,2.66-5.44,5.18Q801.73,271.52,804.39,268.87Z"/><path class="cls-2" d="M688.4,1.69q-2.74.09-5.45.28Q685.66,1.78,688.4,1.69Z"/><path class="cls-1" d="M560,239.69a156,156,0,0,1-23.12-81.53c0-29.87,7.64-57.78,22.64-81.53h0c-2-3.12-3.69-6.16-5.81-9.14-.84,1.3-1.56,2.6-2.36,3.92a166.8,166.8,0,0,0,.09,173.49c.81,1.32,1.66,2.63,2.5,3.93,2.12-3,4.15-6,6.06-9.14Z"/><path class="cls-1" d="M1072.39,268.87q-2.66,2.66-5.44,5.18Q1069.73,271.52,1072.39,268.87Z"/><path class="cls-2" d="M956.4,1.69q-2.74.09-5.45.28Q953.66,1.78,956.4,1.69Z"/><path class="cls-1" d="M828,239.69a156,156,0,0,1-23.12-81.53c0-29.87,7.64-57.78,22.64-81.53h0c-2-3.12-3.69-6.16-5.81-9.14-.84,1.3-1.56,2.6-2.36,3.92a166.8,166.8,0,0,0,.09,173.49c.81,1.32,1.66,2.63,2.5,3.93,2.12-3,4.15-6,6.06-9.14Z"/><path class="cls-3" d="M291,239.69a156.56,156.56,0,1,1,0-163.07"/><path class="cls-3" d="M559.08,238.51a156.56,156.56,0,1,1,0-160.7"/><path class="cls-3" d="M827.87,238.51a156.56,156.56,0,1,1,0-160.7"/><circle class="cls-3" cx="962.26" cy="158.16" r="156.56"/></svg>