<svg id="Layer_1" data-name="Layer 1" xmlns="http://www.w3.org/2000/svg" viewBox="0 0 200 200"><defs><style>.cls-1{fill:#0a9bd2;}.cls-2{fill:#0680ae;}</style></defs><title>DevDotSvgAssets</title><path class="cls-1" d="M44.49,92.83l1.41-.6a6.74,6.74,0,0,0,1.46-.82,3.54,3.54,0,0,0,1-1.2,3.7,3.7,0,0,0,.36-1.67,3.85,3.85,0,0,0-1.15-2.77,3.67,3.67,0,0,0-2.62-1.15,9.22,9.22,0,0,0-3.28.89l-16.6,6.72q-1.27.48-2,.8a8.91,8.91,0,0,0-1.65.9,4.88,4.88,0,0,0-1.48,1.63,5.53,5.53,0,0,0,0,5,4.81,4.81,0,0,0,1.51,1.64,10.2,10.2,0,0,0,1.94,1l18.45,7.26c.7.28,1.26.49,1.67.62a5,5,0,0,0,1.5.24,3.59,3.59,0,0,0,2.63-1.18,3.84,3.84,0,0,0,1.1-2.69,3.26,3.26,0,0,0-1.22-2.77,12.37,12.37,0,0,0-3-1.42l-2.41-.9V93.73Zm-9.05,7.11-5.22-1.87,5.22-1.91Z"/><path class="cls-1" d="M40.08,75.57A4.13,4.13,0,0,0,41,72.73V67.17a4.1,4.1,0,0,0-1-2.89,3.53,3.53,0,0,0-5.08,0,4.11,4.11,0,0,0-1,2.87v5.55a4.11,4.11,0,0,0,1,2.87,3.37,3.37,0,0,0,2.55,1.09A3.32,3.32,0,0,0,40.08,75.57Z"/><path class="cls-1" d="M43.35,36.74A10.84,10.84,0,0,0,40.49,36a26.76,26.76,0,0,0-3.15-.16H23.84a4.77,4.77,0,0,0-3.29,1.06,3.84,3.84,0,0,0-1.25,2.95,3.76,3.76,0,0,0,1.26,2.92,4.83,4.83,0,0,0,3.28,1H38.09c3.71,0,3.71,1.46,3.71,2.09A1.87,1.87,0,0,1,41.53,47a1.9,1.9,0,0,1-.8.59,16,16,0,0,1-2,.54,5.44,5.44,0,0,0-2.47,1.12,3.31,3.31,0,0,0-1.06,2.6,3.67,3.67,0,0,0,3.91,3.82,10.66,10.66,0,0,0,2.81-.4,11.2,11.2,0,0,0,2.6-1.05,7.79,7.79,0,0,0,3.22-3.42,11.6,11.6,0,0,0,1-5,11,11,0,0,0-1.38-5.62A8.11,8.11,0,0,0,43.35,36.74Z"/><path class="cls-1" d="M110.34,94.74h0A5.38,5.38,0,0,0,112,93.18a4.45,4.45,0,0,0,.7-2.55,3.92,3.92,0,0,0-1-2.78,3.87,3.87,0,0,0-4.68-.59,14.46,14.46,0,0,0-2.11,1.28L95.4,95.17l-5.2-5.49a4.51,4.51,0,0,0-3.26-1.6,3.52,3.52,0,0,0-2.61,1.12,3.92,3.92,0,0,0-1,2.77,3.67,3.67,0,0,0,.62,2.18,10.58,10.58,0,0,0,1.31,1.45l8.22,7.88H87.84a4.7,4.7,0,0,0-3.32,1.1,3.87,3.87,0,0,0-1.22,2.91,3.76,3.76,0,0,0,1.26,2.92,4.83,4.83,0,0,0,3.28,1H107c.86,0,1.53,0,2-.06a4.53,4.53,0,0,0,1.7-.47,3.83,3.83,0,0,0,1.47-1.47,4,4,0,0,0-.68-4.86,4.7,4.7,0,0,0-3.34-1.11H103.4l-2.54-2.65,8-5.23Z"/><path class="cls-1" d="M104.08,76.88A4.13,4.13,0,0,0,105,74V68.48a4.1,4.1,0,0,0-1-2.89,3.53,3.53,0,0,0-5.08,0,4.11,4.11,0,0,0-1,2.87V74a4.11,4.11,0,0,0,1,2.87A3.37,3.37,0,0,0,101.53,78,3.32,3.32,0,0,0,104.08,76.88Z"/><path class="cls-1" d="M108.1,33.94h0a9,9,0,0,0-4.95-1.42,8.49,8.49,0,0,0-3.93.85,7.53,7.53,0,0,0-2.71,2.36,13.4,13.4,0,0,0-1.67,3.35,40.62,40.62,0,0,0-1.16,4.06q-.43,1.7-.65,2.43a6.49,6.49,0,0,1-.52,1.23,2.22,2.22,0,0,1-.59.72.78.78,0,0,1-.51.15c-.25,0-.6-.08-1-.67a4.18,4.18,0,0,1-.63-2.46,3.61,3.61,0,0,1,.5-2.29,5.48,5.48,0,0,1,1.87-1.35,7.25,7.25,0,0,0,1.81-1.27,3.21,3.21,0,0,0,.83-2.32,3.48,3.48,0,0,0-1.21-2.67c-1.38-1.21-3.25-1.33-5.29-.33a7.93,7.93,0,0,0-2.49,2A10.08,10.08,0,0,0,84,39.64a14.2,14.2,0,0,0-.66,4.55,15.17,15.17,0,0,0,1,5.68,8.7,8.7,0,0,0,3,4,7.79,7.79,0,0,0,4.57,1.41,7.53,7.53,0,0,0,4.55-1.36,8.9,8.9,0,0,0,2.81-3.5,25.77,25.77,0,0,0,1.61-4.92c.3-1.33.59-2.4.86-3.18a3.71,3.71,0,0,1,.88-1.48,1.45,1.45,0,0,1,1.12-.39,1.89,1.89,0,0,1,1.6.9,4.85,4.85,0,0,1,.81,2.95,4.73,4.73,0,0,1-.38,2.09,3,3,0,0,1-.92,1.11,9.09,9.09,0,0,1-1.77.91A5.51,5.51,0,0,0,101,49.7a3.37,3.37,0,0,0-.89,2.33,3.66,3.66,0,0,0,3.68,3.71,7.65,7.65,0,0,0,4.1-1.31,9.79,9.79,0,0,0,3.22-3.33,13.77,13.77,0,0,0,1.63-7A14.62,14.62,0,0,0,111.52,38,9.38,9.38,0,0,0,108.1,33.94Z"/><path class="cls-1" d="M177.47,96.33a4.76,4.76,0,0,0-3.33-1.08H156.79V90.92a4.27,4.27,0,0,0-.93-2.91,3.35,3.35,0,0,0-2.59-1.13A3.39,3.39,0,0,0,150.69,88a4.24,4.24,0,0,0-1,2.94v16.59a4.26,4.26,0,0,0,.91,2.85,3.56,3.56,0,0,0,5.2.05,4.2,4.2,0,0,0,.94-2.91v-4.32h17.35a4.74,4.74,0,0,0,3.32-1.09,3.84,3.84,0,0,0,1.23-2.9A3.8,3.8,0,0,0,177.47,96.33Z"/><path class="cls-1" d="M167.53,66.22A3.37,3.37,0,0,0,165,67.31a4.11,4.11,0,0,0-1,2.87v5.55a4.11,4.11,0,0,0,1,2.87,3.37,3.37,0,0,0,2.55,1.09,3.32,3.32,0,0,0,2.55-1.12,4.13,4.13,0,0,0,.94-2.84V70.18a4.1,4.1,0,0,0-1-2.89A3.36,3.36,0,0,0,167.53,66.22Z"/><path class="cls-1" d="M153.12,57.77a3.12,3.12,0,0,0,2.43-1.08,4,4,0,0,0,.86-2.7V45.56L170,56.9l.88.75q.55.46.9.72a4.37,4.37,0,0,0,1,.55,3.64,3.64,0,0,0,1.3.23,4,4,0,0,0,3.08-1.32,5.08,5.08,0,0,0,1.11-3.48V37.61a3.93,3.93,0,0,0-.9-2.74,3.27,3.27,0,0,0-2.49-1,3.09,3.09,0,0,0-2.45,1.09,4.08,4.08,0,0,0-.82,2.69V48.3L159.12,37.83a25.11,25.11,0,0,0-2.61-2,5.11,5.11,0,0,0-2.75-.69c-2.52,0-4,1.58-4,4.22V54a3.91,3.91,0,0,0,.91,2.73A3.24,3.24,0,0,0,153.12,57.77Z"/><path class="cls-2" d="M197.5,138.92V.68H134.83V138.92h-2V.68H69.16V138.92h-3V.68H2.5V138.92H1v59.26H201V138.92ZM5.5,3.68H63.16V138.92H5.5ZM51.35,185.57h-34v-34h34ZM72.16,3.68h57.67V138.92H72.16ZM118,185.57H84v-34h34ZM137.83,3.68H194.5V138.92H137.83Zm46.85,181.89h-34v-34h34Z"/></svg>