<?xml version="1.0" encoding="utf-8"?>
<!-- Generator: Adobe Illustrator 20.0.0, SVG Export Plug-In . SVG Version: 6.00 Build 0)  -->
<svg version="1.1" id="Layer_1" xmlns="http://www.w3.org/2000/svg" xmlns:xlink="http://www.w3.org/1999/xlink" x="0px" y="0px"
	 viewBox="0 0 200.1 200" style="enable-background:new 0 0 200.1 200;" xml:space="preserve">
<style type="text/css">
	.st0{fill:#5F6163;}
	.st1{fill:#919195;}
</style>
<title>DevDotSvgAssets</title>
<g>
	<path class="st0" d="M200.1,196.9V2.2l0.3-0.3l-0.3-0.3v-2H0v200.1h200.1v-2.3l0.3-0.3L200.1,196.9z M197.1,193.9L172.2,169V30.1
		l24.9-24.9V193.9z M153.8,30.6L30.9,153.2v-29.4l93.2-93.2L153.8,30.6z M30.9,119.6V87.1l56.4-56.6h32.6L30.9,119.6z M30.9,82.9
		V30.6H83L30.9,82.9z M30.9,168.9v-12.3l0.5,0.4L158,30.6h11.2v21.2L52.1,168.9l0,0L30.9,168.9z M169.2,56v36l-77.1,76.9H56.3
		L169.2,56z M169.2,96.3v32.2l-40.4,40.4H96.4L169.2,96.3z M169.2,132.8v36.1h-36.1L169.2,132.8z M170.6,27.6h-46.7l-0.5-0.5
		l-0.5,0.5H30.3L5.4,2.7h190.1L170.6,27.6z M27.9,29.4v140.4L3,194.7V4.5L27.9,29.4z M30,171.9h140.9l24.9,24.9H5.1L30,171.9z"/>
	<circle class="st1" cx="190.4" cy="25.3" r="3.4"/>
	<circle class="st1" cx="181.6" cy="33.8" r="3.4"/>
	<circle class="st1" cx="33.4" cy="180.9" r="3.4"/>
	<circle class="st1" cx="24.6" cy="189.4" r="3.4"/>
	<circle class="st1" cx="18.9" cy="167.7" r="3.4"/>
	<circle class="st1" cx="10.1" cy="176.1" r="3.4"/>
	<circle class="st1" cx="176.6" cy="10.1" r="3.4"/>
	<circle class="st1" cx="167.8" cy="18.6" r="3.4"/>
	<circle class="st1" cx="175.1" cy="190.4" r="3.4"/>
	<circle class="st1" cx="166.6" cy="181.6" r="3.4"/>
	<circle class="st1" cx="19.5" cy="33.4" r="3.4"/>
	<circle class="st1" cx="11" cy="24.6" r="3.4"/>
	<circle class="st1" cx="32.7" cy="18.9" r="3.4"/>
	<circle class="st1" cx="24.2" cy="10.1" r="3.4"/>
	<circle class="st1" cx="190.3" cy="176.7" r="3.4"/>
	<circle class="st1" cx="181.8" cy="167.9" r="3.4"/>
</g>
</svg>
