<?xml version="1.0" encoding="utf-8"?>
<!-- Generator: Adobe Illustrator 20.0.0, SVG Export Plug-In . SVG Version: 6.00 Build 0)  -->
<svg version="1.1" id="Layer_1" xmlns="http://www.w3.org/2000/svg" xmlns:xlink="http://www.w3.org/1999/xlink" x="0px" y="0px"
	 viewBox="0 0 262.5 200" style="enable-background:new 0 0 262.5 200;" xml:space="preserve">
<style type="text/css">
	.st0{fill:#5F6163;}
	.st1{fill:#919195;}
</style>
<title>DevDotSvgAssets</title>
<rect x="35.5" y="31.8" class="st0" width="10.4" height="135.2"/>
<rect x="51.2" y="31.8" class="st0" width="10.4" height="135.2"/>
<rect x="221.9" y="31.8" class="st0" width="9.9" height="135.2"/>
<rect x="70.3" y="31.8" class="st0" width="2" height="112.9"/>
<rect x="94.8" y="31.8" class="st0" width="4" height="112.9"/>
<rect x="106.4" y="31.8" class="st0" width="6.2" height="112.9"/>
<rect x="78.9" y="31.8" class="st0" width="10.4" height="112.9"/>
<rect x="119.1" y="31.8" class="st0" width="6.2" height="112.9"/>
<rect x="146.7" y="31.8" class="st0" width="2" height="112.9"/>
<rect x="165.8" y="31.8" class="st0" width="2" height="112.9"/>
<rect x="159.4" y="31.8" class="st0" width="2" height="112.9"/>
<rect x="134" y="31.8" class="st0" width="2" height="112.9"/>
<rect x="140.4" y="31.8" class="st0" width="2" height="112.9"/>
<rect x="170.1" y="31.8" class="st0" width="6.2" height="112.9"/>
<rect x="195.5" y="31.8" class="st0" width="6.2" height="112.9"/>
<rect x="209.4" y="31.8" class="st0" width="4" height="135.2"/>
<rect x="180.7" y="31.8" class="st0" width="10.4" height="112.9"/>
<path class="st1" d="M78.9,168.6c-0.8,0-1.7-0.2-2.4-0.6c-0.8-0.3-1.4-0.9-1.8-1.6c-0.6-0.7-1-1.5-1.2-2.4c-0.3-1.1-0.4-2.2-0.4-3.4
	c0-1.1,0.2-2.3,0.4-3.4c0.1-0.9,0.6-1.7,1.2-2.4c0.5-0.6,1.1-1.1,1.8-1.4c0.8-0.2,1.6-0.4,2.4-0.4c0.8,0,1.6,0.2,2.4,0.4
	c0.7,0.3,1.3,0.8,1.8,1.4c0.6,0.7,1,1.5,1.2,2.4c0.5,2.2,0.5,4.5,0,6.8c-0.1,0.9-0.6,1.7-1.2,2.4c-0.6,0.6-1.2,1.1-1.8,1.6
	C80.5,168.4,79.7,168.6,78.9,168.6z M78.9,155.7c-0.3-0.1-0.7,0-1,0.2c-0.4,0.2-0.6,0.4-0.8,0.8c-0.2,0.5-0.4,1-0.6,1.6
	c-0.3,1.6-0.3,3.2,0,4.8c0.2,0.5,0.4,1.1,0.6,1.6c0.2,0.4,0.6,0.6,0.8,0.8c0.3,0.2,0.7,0.2,1,0.2c0.3,0.1,0.7,0,1-0.2
	c0.4-0.2,0.6-0.4,0.8-0.8c0.2-0.5,0.4-1,0.6-1.6c0.3-1.6,0.3-3.2,0-4.8c-0.2-0.5-0.4-1.1-0.6-1.6c-0.2-0.4-0.6-0.6-0.8-0.8
	C79.6,155.7,79.2,155.7,78.9,155.7L78.9,155.7z M78.9,162.5c-0.4,0-0.9-0.1-1.2-0.4c-0.8-0.7-0.8-1.9-0.1-2.7c0,0,0,0,0.1-0.1
	c0.3-0.3,0.8-0.5,1.2-0.4c0.4,0,0.9,0.1,1.2,0.4c0.8,0.7,0.8,1.9,0.1,2.7c0,0,0,0-0.1,0.1C79.8,162.4,79.3,162.5,78.9,162.5
	L78.9,162.5z"/>
<path class="st1" d="M98.8,165.4v2.8H87.8v-2.8h4v-8.8h-3.2v-2.2c0.8-0.2,1.6-0.4,2.2-0.6c0.6-0.2,1.2-0.5,1.8-0.8h2.6v12.3
	L98.8,165.4z"/>
<path class="st1" d="M101.8,166.4c0.9-0.9,2-1.8,3-2.6c0.7-0.8,1.5-1.5,2.4-2.2c0.6-0.6,1.1-1.2,1.4-2c0.4-0.5,0.6-1.1,0.6-1.8
	c0.2-1.2-0.6-2.2-1.8-2.4c-0.2,0-0.4,0-0.6,0c-0.6,0-1.1,0.2-1.6,0.4c-0.5,0.3-1,0.6-1.4,1l-2.2-1.6c0.3-0.4,0.7-0.7,1.2-1
	c0.3-0.3,0.8-0.6,1.2-0.8c0.4-0.2,0.9-0.4,1.4-0.4c0.5-0.2,1.1-0.2,1.6-0.2c0.7,0,1.5,0.2,2.2,0.4c0.6,0.2,1.1,0.6,1.6,1
	c0.4,0.5,0.8,1,1.2,1.6c0.2,0.6,0.4,1.3,0.4,2c-0.1,0.7-0.2,1.4-0.4,2c-0.3,0.7-0.7,1.4-1.2,2c-0.6,0.6-1.2,1.4-1.8,2
	c-0.7,0.7-1.4,1.4-2.2,2c0.5,0,0.9,0,1.4-0.2h5v3h-11.4V166.4z"/>
<path class="st1" d="M117.3,164.3c0.6,0.4,1.2,0.8,1.8,1.2c0.6,0.2,1.3,0.4,2,0.4c0.7,0,1.4-0.1,2-0.4c0.5-0.3,0.8-0.8,0.8-1.4
	c0-0.3,0-0.7-0.2-1c-0.2-0.2-0.5-0.5-0.8-0.6c-0.4-0.2-0.9-0.4-1.4-0.4c-0.7-0.2-1.5-0.2-2.2-0.2v-2.4c1.1,0.1,2.2-0.1,3.2-0.6
	c0.6-0.4,1-0.8,1-1.4c0.1-0.5-0.2-1-0.6-1.2c-1-0.5-2.2-0.5-3.2,0c-0.6,0.3-1.1,0.6-1.6,1l-1.8-2.2c0.8-0.5,1.6-1,2.4-1.4
	c0.9-0.4,1.8-0.6,2.8-0.6c0.7,0,1.5,0,2.2,0.2c0.6,0.2,1.2,0.5,1.8,0.8c0.4,0.4,0.8,0.9,1.2,1.4c0.2,0.6,0.4,1.2,0.4,1.8
	c0,0.8-0.3,1.5-0.8,2c-0.6,0.6-1.4,1.1-2.2,1.4l0,0c0.9,0.1,1.8,0.6,2.4,1.4c0.6,0.6,1,1.5,1,2.4c0,0.6-0.1,1.2-0.4,1.8
	c-0.4,0.6-0.8,1-1.4,1.4c-0.6,0.4-1.3,0.7-2,0.8c-0.8,0.2-1.6,0.2-2.4,0.2c-1.2,0-2.3-0.2-3.4-0.6c-0.9-0.4-1.7-0.9-2.4-1.6
	L117.3,164.3z"/>
<path class="st1" d="M136.2,168.6c-0.8,0-1.7-0.2-2.4-0.6c-0.8-0.3-1.4-0.9-1.8-1.6c-0.6-0.7-1-1.5-1.2-2.4
	c-0.3-1.1-0.4-2.2-0.4-3.4c0-1.1,0.2-2.3,0.4-3.4c0.1-0.9,0.6-1.7,1.2-2.4c0.5-0.6,1.1-1.1,1.8-1.4c0.8-0.2,1.6-0.4,2.4-0.4
	c0.8,0,1.6,0.2,2.4,0.4c0.7,0.3,1.3,0.8,1.8,1.4c0.6,0.7,1,1.5,1.2,2.4c0.5,2.2,0.5,4.5,0,6.8c-0.1,0.9-0.6,1.7-1.2,2.4
	c-0.5,0.6-1.1,1.1-1.8,1.6C137.8,168.4,137,168.6,136.2,168.6z M136.2,155.7c-0.3-0.1-0.7,0-1,0.2c-0.4,0.2-0.6,0.4-0.8,0.8
	c-0.2,0.5-0.4,1-0.6,1.6c-0.3,1.6-0.3,3.2,0,4.8c0.2,0.5,0.4,1.1,0.6,1.6c0.2,0.4,0.6,0.6,0.8,0.8c0.3,0.2,0.7,0.2,1,0.2
	c0.3,0.1,0.7,0,1-0.2c0.4-0.2,0.6-0.4,0.8-0.8c0.2-0.5,0.4-1,0.6-1.6c0.3-1.6,0.3-3.2,0-4.8c-0.2-0.5-0.4-1.1-0.6-1.6
	c-0.2-0.4-0.6-0.6-0.8-0.8C136.9,155.7,136.5,155.7,136.2,155.7L136.2,155.7z M136.2,162.5c-0.4,0-0.9-0.1-1.2-0.4
	c-0.8-0.7-0.8-1.9-0.1-2.7c0,0,0,0,0.1-0.1c0.3-0.3,0.8-0.5,1.2-0.4c0.4,0,0.8,0.2,1.2,0.4c0.4,0.4,0.6,0.9,0.6,1.4
	c0,0.5-0.2,1-0.6,1.4C137,162.5,136.8,162.5,136.2,162.5L136.2,162.5z"/>
<path class="st1" d="M150.5,168.6c-0.8,0-1.7-0.2-2.4-0.6c-0.8-0.3-1.4-0.9-1.8-1.6c-0.6-0.7-1-1.5-1.2-2.4
	c-0.3-1.1-0.4-2.2-0.4-3.4c0-1.1,0.2-2.3,0.4-3.4c0.1-0.9,0.6-1.7,1.2-2.4c0.5-0.6,1.1-1.1,1.8-1.4c0.8-0.3,1.6-0.5,2.4-0.4
	c0.8,0,1.6,0.2,2.4,0.4c0.7,0.3,1.3,0.8,1.8,1.4c0.6,0.7,1,1.5,1.2,2.4c0.5,2.2,0.5,4.5,0,6.8c-0.1,0.9-0.6,1.7-1.2,2.4
	c-0.5,0.6-1.1,1.1-1.8,1.6C152.2,168.4,151.3,168.6,150.5,168.6z M150.5,155.7c-0.3-0.1-0.7,0-1,0.2c-0.4,0.2-0.6,0.4-0.8,0.8
	c-0.2,0.5-0.4,1-0.6,1.6c-0.3,1.6-0.3,3.2,0,4.8c0.2,0.5,0.4,1.1,0.6,1.6c0.2,0.4,0.6,0.6,0.8,0.8c0.3,0.2,0.7,0.2,1,0.2
	c0.3,0.1,0.7,0,1-0.2c0.4-0.2,0.6-0.4,0.8-0.8c0.2-0.5,0.4-1,0.6-1.6c0.3-1.6,0.3-3.2,0-4.8c-0.2-0.5-0.4-1.1-0.6-1.6
	c-0.2-0.4-0.6-0.6-0.8-0.8C151.2,155.7,150.8,155.7,150.5,155.7L150.5,155.7z M150.5,162.5c-0.4,0-0.9-0.1-1.2-0.4
	c-0.4-0.4-0.6-0.9-0.6-1.4c0-0.5,0.2-1,0.6-1.4c0.3-0.3,0.8-0.5,1.2-0.4c0.4,0,0.8,0.2,1.2,0.4c0.4,0.4,0.6,0.9,0.6,1.4
	c0,0.5-0.2,1-0.6,1.4C151.3,162.5,151.1,162.5,150.5,162.5L150.5,162.5z"/>
<path class="st1" d="M164.8,168.6c-0.8,0-1.7-0.2-2.4-0.6c-0.8-0.3-1.4-0.9-1.8-1.6c-0.6-0.7-1-1.5-1.2-2.4
	c-0.3-1.1-0.4-2.2-0.4-3.4c0-1.1,0.2-2.3,0.4-3.4c0.1-0.9,0.6-1.7,1.2-2.4c0.5-0.6,1.1-1.1,1.8-1.4c0.8-0.3,1.6-0.5,2.4-0.4
	c0.8,0,1.6,0.2,2.4,0.4c0.7,0.3,1.3,0.8,1.8,1.4c0.6,0.7,1,1.5,1.2,2.4c0.5,2.2,0.5,4.5,0,6.8c-0.1,0.9-0.6,1.7-1.2,2.4
	c-0.5,0.6-1.1,1.1-1.8,1.6C166.5,168.4,165.7,168.6,164.8,168.6z M164.8,155.7c-0.3-0.1-0.7,0-1,0.2c-0.4,0.2-0.6,0.4-0.8,0.8
	c-0.2,0.5-0.4,1-0.6,1.6c-0.3,1.6-0.3,3.2,0,4.8c0.2,0.5,0.4,1.1,0.6,1.6c0.2,0.4,0.6,0.6,0.8,0.8c0.3,0.2,0.7,0.2,1,0.2
	c0.3,0.1,0.7,0,1-0.2c0.4-0.2,0.6-0.4,0.8-0.8c0.2-0.5,0.4-1,0.6-1.6c0.3-1.6,0.3-3.2,0-4.8c-0.2-0.5-0.4-1.1-0.6-1.6
	c-0.2-0.4-0.6-0.6-0.8-0.8C165.5,155.7,165.2,155.7,164.8,155.7L164.8,155.7z M164.8,162.5c-0.4,0-0.9-0.1-1.2-0.4
	c-0.4-0.4-0.6-0.9-0.6-1.4c0-0.5,0.2-1,0.6-1.4c0.3-0.3,0.8-0.5,1.2-0.4c0.4,0,0.8,0.2,1.2,0.4c0.4,0.4,0.6,0.9,0.6,1.4
	c0,0.5-0.2,1-0.6,1.4C165.6,162.5,165.4,162.5,164.8,162.5L164.8,162.5z"/>
<path class="st1" d="M184.7,165.4v2.8h-10.9v-2.8h4v-8.8h-3.2v-2.2c0.8-0.2,1.6-0.4,2.2-0.6c0.6-0.2,1.2-0.5,1.8-0.8h2.6v12.3
	L184.7,165.4z"/>
<path class="st1" d="M187.7,166.4c0.9-0.9,2-1.8,3-2.6c0.7-0.8,1.5-1.5,2.4-2.2c0.6-0.6,1.1-1.2,1.4-2c0.4-0.5,0.6-1.1,0.6-1.8
	c0.2-1.2-0.6-2.2-1.8-2.4c-0.2,0-0.4,0-0.6,0c-0.6,0-1.1,0.2-1.6,0.4c-0.5,0.3-1,0.6-1.4,1l-1.8-1.8c0.3-0.4,0.7-0.7,1.2-1
	c0.3-0.3,0.8-0.6,1.2-0.8c0.4-0.2,0.9-0.4,1.4-0.4c0.5-0.2,1.1-0.2,1.6-0.2c0.7,0,1.5,0.2,2.2,0.4c0.6,0.2,1.1,0.6,1.6,1
	c0.4,0.5,0.8,1,1.2,1.6c0.3,0.6,0.5,1.3,0.4,2c-0.1,0.7-0.2,1.4-0.4,2c-0.3,0.7-0.7,1.4-1.2,2c-0.5,0.7-1.1,1.4-1.8,2
	c-0.7,0.7-1.4,1.4-2.2,2c0.5,0,0.9,0,1.4-0.2h4.5v3h-11.3V166.4z"/>
<path class="st0" d="M262.1,199.6H-0.5V-0.5h262.6V199.6z M2.5,196.6h256.6V2.5H2.5V196.6z"/>
</svg>
