<svg id="Layer_1" data-name="Layer 1" xmlns="http://www.w3.org/2000/svg" xmlns:xlink="http://www.w3.org/1999/xlink" viewBox="0 0 1002.26 442.54"><defs><style>.cls-1,.cls-2,.cls-4{fill:none;}.cls-1,.cls-4{stroke:#d7d7d7;}.cls-1{stroke-miterlimit:10;}.cls-3{clip-path:url(#clip-path);}.cls-4{stroke-width:0.32px;}.cls-5{fill:#fff;}.cls-6{fill:#5f6062;}.cls-7{fill:#0d99d0;}.cls-8{fill:#f60;}.cls-9{fill:#9ad0e7;}.cls-10{fill:#3db0db;}.cls-11{fill:#007fad;}.cls-12{fill:#76c4e3;}.cls-13{fill:#e45225;}.cls-14{clip-path:url(#clip-path-2);}.cls-15{fill:#8fffa7;}.cls-16{fill:#fceb51;}.cls-17{fill:#71e4ff;}.cls-18{fill:#fc88ff;}</style><clipPath id="clip-path"><path class="cls-1" d="M19,267.25c-31.07,0-16.21,26,17.87,26a138.49,138.49,0,0,0,28.67-2.89c9.78,12.51,33.74,35.89,86.25,29.72,33.34,41.82,112.55,39.5,140.61,21.06,14.61,15.34,41,25.58,71.08,25.58a126.43,126.43,0,0,0,27-2.88C395.59,385.51,422.8,402,455.61,402A88.16,88.16,0,0,0,492,394.46c.86,26.63,39.76,48.07,87.65,48.07,46.42,0,84.39-20.14,87.47-45.62a130.39,130.39,0,0,0,36.14,5c43.25,0,78.88-19.84,83.94-45.45h.64c28.87,0,53.27-11.48,61.25-27.26a121.66,121.66,0,0,0,26.13,2.75c36.39,0,65.9-15,65.9-33.46a17.47,17.47,0,0,0-.6-4.46,143.09,143.09,0,0,0,21.23,1.55c35.83,0,52.54-28.32,22.45-28.32Z"/></clipPath><clipPath id="clip-path-2"><rect class="cls-2" x="233.93" y="51.29" width="257.79" height="140.87"/></clipPath></defs><title>DevDotSvgGAssets</title><path class="cls-1" d="M51.37,267.25H19.57c-31.07,0-16.21,26,17.87,26a138.38,138.38,0,0,0,28.67-2.89c9.79,12.51,33.75,35.89,86.26,29.72,33.34,41.82,112.55,39.5,140.61,21.07,14.61,15.33,41,25.57,71.08,25.57a126.05,126.05,0,0,0,27-2.88C396.18,385.51,423.4,402,456.21,402a88.18,88.18,0,0,0,36.38-7.53c.86,26.63,39.76,48.07,87.65,48.07,46.42,0,84.39-20.14,87.47-45.62a130.67,130.67,0,0,0,36.15,5c43.25,0,78.88-19.85,83.95-45.44h.64c28.87,0,53.27-11.49,61.24-27.26a122,122,0,0,0,26.14,2.75c36.39,0,65.9-15,65.9-33.45a17.73,17.73,0,0,0-.6-4.46,143,143,0,0,0,21.23,1.55c35.84,0,52.53-28.32,22.45-28.32H966Z"/><g class="cls-3"><path class="cls-1" d="M19,267.25c-31.07,0-16.21,26,17.87,26a138.49,138.49,0,0,0,28.67-2.89c9.78,12.51,33.74,35.89,86.25,29.72,33.34,41.82,112.55,39.5,140.61,21.06,14.61,15.34,41,25.58,71.08,25.58a126.43,126.43,0,0,0,27-2.88C395.59,385.51,422.8,402,455.61,402A88.16,88.16,0,0,0,492,394.46c.86,26.63,39.76,48.07,87.65,48.07,46.42,0,84.39-20.14,87.47-45.62a130.39,130.39,0,0,0,36.14,5c43.25,0,78.88-19.84,83.94-45.45h.64c28.87,0,53.27-11.48,61.25-27.26a121.66,121.66,0,0,0,26.13,2.75c36.39,0,65.9-15,65.9-33.46a17.47,17.47,0,0,0-.6-4.46,143.09,143.09,0,0,0,21.23,1.55c35.83,0,52.54-28.32,22.45-28.32Z"/><path class="cls-1" d="M23.81,258.12c-31.07,0-16.21,26,17.87,26a138.47,138.47,0,0,0,28.67-2.89c9.78,12.51,33.74,35.89,86.26,29.72,33.34,41.82,112.55,39.5,140.6,21.09,14.61,15.32,41,25.55,71.08,25.55a126.43,126.43,0,0,0,27-2.88c5.16,21.62,32.38,38.11,65.18,38.11a88.24,88.24,0,0,0,36.38-7.53c.86,26.63,39.76,48.07,87.65,48.07,46.42,0,84.39-20.14,87.47-45.62a130.39,130.39,0,0,0,36.14,5c43.25,0,78.88-19.84,83.94-45.44h.64c28.87,0,53.27-11.47,61.25-27.25A122,122,0,0,0,880,322.79c36.39,0,65.9-15,65.9-33.46a17.46,17.46,0,0,0-.6-4.46,143.09,143.09,0,0,0,21.23,1.55c35.83,0,52.54-28.32,22.45-28.32Z"/><path class="cls-1" d="M28.64,249c-31.07,0-16.21,26,17.87,26a138.45,138.45,0,0,0,28.67-2.89C85,284.65,108.93,308,161.44,301.86,194.78,343.68,274,341.36,302,323c14.61,15.32,41,25.55,71.08,25.55a126.11,126.11,0,0,0,27-2.88c5.16,21.62,32.37,38.11,65.18,38.11a88.15,88.15,0,0,0,36.38-7.53c.86,26.63,39.76,48.07,87.65,48.07,46.42,0,84.39-20.14,87.47-45.62a130.6,130.6,0,0,0,36.14,5c43.25,0,78.88-19.84,83.94-45.43h.64c28.87,0,53.27-11.48,61.25-27.27a122,122,0,0,0,26.13,2.75c36.39,0,65.9-15,65.9-33.46a17.46,17.46,0,0,0-.6-4.46,143.81,143.81,0,0,0,21.23,1.55c35.83,0,52.54-28.31,22.45-28.31Z"/><path class="cls-1" d="M33.47,239.87c-31.07,0-16.21,26,17.87,26A138.47,138.47,0,0,0,80,263c9.78,12.51,33.75,35.89,86.26,29.71,33.34,41.84,112.55,39.53,140.6,21.1,14.61,15.33,41,25.55,71.08,25.55a126.51,126.51,0,0,0,27-2.86c5.16,21.61,32.37,38.09,65.18,38.09a88.14,88.14,0,0,0,36.38-7.53c.86,26.63,39.76,48.06,87.65,48.06,46.42,0,84.39-20.13,87.47-45.62a130.39,130.39,0,0,0,36.14,5c43.24,0,78.88-19.84,83.94-45.43h.64c28.87,0,53.27-11.48,61.25-27.27a122.08,122.08,0,0,0,26.13,2.75c36.39,0,65.9-15,65.9-33.46a17.46,17.46,0,0,0-.6-4.46,143.86,143.86,0,0,0,21.23,1.55c35.84,0,52.54-28.31,22.44-28.31Z"/><path class="cls-1" d="M38.31,230.74c-31.07,0-16.21,26,17.87,26a138.46,138.46,0,0,0,28.67-2.89c9.78,12.51,33.74,35.89,86.26,29.71,33.34,41.84,112.55,39.53,140.6,21.1,14.61,15.33,41,25.57,71.08,25.57a126.48,126.48,0,0,0,27-2.88c5.16,21.6,32.37,38.09,65.18,38.09A88.17,88.17,0,0,0,511.31,358C512.17,384.59,551.07,406,599,406c46.42,0,84.39-20.14,87.47-45.62a130.6,130.6,0,0,0,36.14,5c43.24,0,78.88-19.85,83.94-45.42h.64c28.87,0,53.27-11.49,61.25-27.28a122,122,0,0,0,26.13,2.75c36.39,0,65.9-15,65.9-33.46a17.46,17.46,0,0,0-.6-4.46A143.85,143.85,0,0,0,981.07,259c35.84,0,52.54-28.32,22.45-28.32Z"/><path class="cls-1" d="M43.13,221.61c-31.07,0-16.21,26,17.87,26a138.45,138.45,0,0,0,28.67-2.89c9.79,12.5,33.75,35.89,86.26,29.71,33.34,41.84,112.55,39.53,140.6,21.09,14.61,15.33,41,25.58,71.08,25.58a126.45,126.45,0,0,0,27-2.88c5.16,21.6,32.37,38.08,65.18,38.08a88.08,88.08,0,0,0,36.38-7.53c.86,26.63,39.76,48.07,87.65,48.07,46.42,0,84.39-20.14,87.47-45.62a130.64,130.64,0,0,0,36.15,5c43.24,0,78.88-19.83,83.94-45.42H812c28.87,0,53.27-11.49,61.24-27.28a122,122,0,0,0,26.13,2.75c36.39,0,65.9-15,65.9-33.46a17.47,17.47,0,0,0-.6-4.45,143.86,143.86,0,0,0,21.23,1.55c35.84,0,52.54-28.32,22.45-28.32Z"/><path class="cls-1" d="M48,212.49c-31.08,0-16.21,26,17.87,26a138.46,138.46,0,0,0,28.67-2.89c9.79,12.51,33.75,35.89,86.26,29.71,33.34,41.85,112.55,39.53,140.6,21.1C336,301.78,362.34,312,392.45,312a126.1,126.1,0,0,0,27-2.88c5.16,21.62,32.37,38.09,65.18,38.09A88,88,0,0,0,521,339.7c.86,26.63,39.76,48.07,87.65,48.07,46.42,0,84.39-20.14,87.47-45.62a130.6,130.6,0,0,0,36.14,5c43.25,0,78.88-19.82,83.94-45.42h.65c28.87,0,53.26-11.49,61.24-27.28a122,122,0,0,0,26.13,2.75c36.39,0,65.9-15,65.9-33.46a17.59,17.59,0,0,0-.6-4.46,143.81,143.81,0,0,0,21.23,1.55c35.84,0,52.54-28.32,22.45-28.32Z"/><path class="cls-1" d="M52.8,203.36c-31.08,0-16.21,26,17.87,26a138.44,138.44,0,0,0,28.67-2.89c9.79,12.51,33.75,35.89,86.26,29.72,33.34,41.84,112.55,39.53,140.6,21.09,14.61,15.33,41,25.57,71.08,25.57a126.47,126.47,0,0,0,27-2.88c5.16,21.62,32.38,38.1,65.19,38.1a88.19,88.19,0,0,0,36.38-7.53c.86,26.61,39.76,48.05,87.65,48.05,46.42,0,84.39-20.14,87.47-45.6A130.63,130.63,0,0,0,737.07,338c43.25,0,78.89-19.83,83.95-45.43h.65c28.87,0,53.27-11.49,61.24-27.28A122.05,122.05,0,0,0,909,268c36.39,0,65.9-15,65.9-33.45a17.55,17.55,0,0,0-.6-4.47,143.06,143.06,0,0,0,21.23,1.55c35.84,0,52.54-28.32,22.45-28.32Z"/><path class="cls-1" d="M57.63,194.23c-31.08,0-16.21,26,17.87,26a138.45,138.45,0,0,0,28.67-2.89c9.79,12.51,33.75,35.89,86.26,29.73C223.77,288.95,303,286.63,331,268.19c14.61,15.33,41,25.57,71.08,25.57a126.45,126.45,0,0,0,27-2.88c5.16,21.62,32.37,38.11,65.19,38.11a88.18,88.18,0,0,0,36.38-7.53c.86,26.61,39.76,48,87.65,48,46.42,0,84.39-20.14,87.47-45.59a130.63,130.63,0,0,0,36.14,5c43.25,0,78.89-19.84,83.94-45.44h.65c28.87,0,53.27-11.49,61.24-27.28a122.08,122.08,0,0,0,26.13,2.75c36.39,0,65.9-15,65.9-33.46a17.63,17.63,0,0,0-.6-4.46,143,143,0,0,0,21.23,1.55c35.84,0,52.54-28.32,22.45-28.32Z"/><path class="cls-1" d="M62.46,185.11c-31.07,0-16.21,26,17.87,26A138.43,138.43,0,0,0,109,208.26c9.79,12.51,33.75,35.9,86.26,29.73,33.34,41.84,112.55,39.52,140.6,21.08,14.61,15.34,41,25.58,71.08,25.58a126.44,126.44,0,0,0,27-2.88c5.16,21.62,32.38,38.11,65.19,38.11a88.17,88.17,0,0,0,36.38-7.53c.86,26.62,39.76,48,87.65,48,46.41,0,84.38-20.14,87.47-45.59a130.62,130.62,0,0,0,36.14,5c43.25,0,78.89-19.84,83.94-45.44h.64c28.87,0,53.27-11.49,61.24-27.27a122.05,122.05,0,0,0,26.13,2.75c36.39,0,65.9-15,65.9-33.46a17.79,17.79,0,0,0-.6-4.46,143,143,0,0,0,21.22,1.55c35.84,0,52.54-28.32,22.45-28.32Z"/><path class="cls-1" d="M67.29,176c-31.07,0-16.21,26,17.87,26a138.43,138.43,0,0,0,28.67-2.89c9.79,12.51,33.75,35.9,86.26,29.72,33.34,41.84,112.55,39.53,140.6,21.1,14.61,15.33,41,25.57,71.08,25.57a126.45,126.45,0,0,0,27-2.88c5.16,21.62,32.38,38.11,65.19,38.11a88.17,88.17,0,0,0,36.38-7.53c.86,26.63,39.76,48,87.65,48,46.41,0,84.39-20.12,87.47-45.59a130.67,130.67,0,0,0,36.14,5c43.24,0,78.89-19.84,83.94-45.44h.64c28.87,0,53.27-11.49,61.24-27.27a122.08,122.08,0,0,0,26.13,2.75c36.39,0,65.9-15,65.9-33.46a17.63,17.63,0,0,0-.6-4.46,143,143,0,0,0,21.22,1.55c35.84,0,52.54-28.32,22.45-28.32Z"/><path class="cls-1" d="M72.12,166.85c-31.07,0-16.21,26,17.87,26A138.4,138.4,0,0,0,118.66,190c9.79,12.51,33.75,35.9,86.26,29.72,33.34,41.84,112.55,39.53,140.61,21.1,14.61,15.33,41,25.57,71.08,25.57a126.41,126.41,0,0,0,27-2.88c5.16,21.62,32.38,38.11,65.18,38.11a88.18,88.18,0,0,0,36.38-7.53c.86,26.63,39.76,48,87.65,48,46.42,0,84.39-20.11,87.47-45.59a130.46,130.46,0,0,0,36.14,5c43.24,0,78.89-19.84,83.95-45.44H841c28.87,0,53.27-11.48,61.24-27.27a122.09,122.09,0,0,0,26.13,2.75c36.39,0,65.9-15,65.9-33.46a17.79,17.79,0,0,0-.6-4.46,143,143,0,0,0,21.23,1.55c35.84,0,52.54-28.32,22.45-28.32Z"/><path class="cls-1" d="M77,157.73c-31.07,0-16.21,26,17.87,26a138.38,138.38,0,0,0,28.67-2.89c9.79,12.51,33.75,35.9,86.26,29.72,33.34,41.84,112.55,39.53,140.61,21.1,14.61,15.34,41,25.57,71.08,25.57a126.45,126.45,0,0,0,27-2.88c5.16,21.62,32.38,38.11,65.18,38.11A88.17,88.17,0,0,0,550,285c.86,26.63,39.76,48.06,87.65,48.06C684,333,722,312.9,725.08,287.42a130.66,130.66,0,0,0,36.15,5c43.25,0,78.88-19.84,83.95-45.44h.64c28.87,0,53.27-11.49,61.24-27.28a122.11,122.11,0,0,0,26.13,2.74c36.39,0,65.9-15,65.9-33.46a17.79,17.79,0,0,0-.6-4.46,143.05,143.05,0,0,0,21.23,1.55c35.84,0,52.54-28.32,22.45-28.32Z"/><path class="cls-1" d="M81.79,148.6c-31.07,0-16.21,26,17.87,26a138.4,138.4,0,0,0,28.67-2.89c9.79,12.51,33.75,35.9,86.26,29.72,33.34,41.85,112.55,39.53,140.61,21.09,14.61,15.34,41,25.58,71.08,25.58a126.47,126.47,0,0,0,27-2.88c5.16,21.61,32.37,38.11,65.18,38.11a88.18,88.18,0,0,0,36.38-7.53c.86,26.63,39.76,48.07,87.65,48.07,46.42,0,84.39-20.14,87.47-45.62a130.45,130.45,0,0,0,36.14,5c43.24,0,78.88-19.84,83.95-45.44h.64c28.87,0,53.27-11.49,61.24-27.28A122.09,122.09,0,0,0,938,213.27c36.39,0,65.9-15,65.9-33.46a17.8,17.8,0,0,0-.6-4.46,143.05,143.05,0,0,0,21.23,1.55c35.84,0,52.54-28.32,22.44-28.32Z"/><path class="cls-1" d="M86.62,139.47c-31.07,0-16.21,26,17.87,26a138.37,138.37,0,0,0,28.67-2.89c9.79,12.51,33.75,35.9,86.26,29.72C252.75,234.19,332,231.88,360,213.44,374.63,228.77,401,239,431.1,239a126.38,126.38,0,0,0,27-2.87c5.16,21.61,32.38,38.11,65.19,38.11a88.17,88.17,0,0,0,36.38-7.53c.86,26.63,39.76,48.07,87.65,48.07,46.42,0,84.39-20.14,87.47-45.62a130.45,130.45,0,0,0,36.14,5c43.25,0,78.89-19.84,83.95-45.44h.64c28.87,0,53.27-11.49,61.24-27.27a122.08,122.08,0,0,0,26.14,2.74c36.39,0,65.9-15,65.9-33.46a17.8,17.8,0,0,0-.6-4.46,143,143,0,0,0,21.23,1.55c35.84,0,52.54-28.32,22.44-28.32Z"/><path class="cls-1" d="M91.45,130.35c-31.08,0-16.21,26,17.87,26A138.38,138.38,0,0,0,138,153.5c9.79,12.51,33.75,35.89,86.26,29.71,33.34,41.84,112.55,39.53,140.61,21.09,14.61,15.34,41,25.58,71.08,25.58a126.4,126.4,0,0,0,27-2.88c5.16,21.62,32.38,38.11,65.19,38.11a88.17,88.17,0,0,0,36.38-7.53c.86,26.63,39.76,48.07,87.65,48.07,46.42,0,84.39-20.14,87.47-45.62a130.45,130.45,0,0,0,36.14,5c43.25,0,78.89-19.84,83.95-45.44h.64c28.87,0,53.27-11.48,61.24-27.27A122.06,122.06,0,0,0,947.68,195c36.39,0,65.9-15,65.9-33.46a17.8,17.8,0,0,0-.6-4.46,143.06,143.06,0,0,0,21.22,1.55c35.84,0,52.54-28.32,22.45-28.32Z"/><path class="cls-1" d="M96.28,121.22c-31.07,0-16.21,26,17.87,26a138.38,138.38,0,0,0,28.67-2.88c9.79,12.51,33.75,35.89,86.26,29.71,33.34,41.84,112.55,39.53,140.6,21.1,14.61,15.33,41,25.57,71.08,25.57a126.36,126.36,0,0,0,27-2.88C472.88,239.5,500.1,256,532.91,256a88.24,88.24,0,0,0,36.38-7.53c.86,26.63,39.76,48.06,87.65,48.06,46.42,0,84.39-20.14,87.47-45.61a130.67,130.67,0,0,0,36.14,4.95c43.25,0,78.89-19.84,83.95-45.44h.64c28.86,0,53.27-11.49,61.24-27.27a122.05,122.05,0,0,0,26.13,2.74c36.39,0,65.9-15,65.9-33.46a17.67,17.67,0,0,0-.6-4.46,143.07,143.07,0,0,0,21.22,1.55c35.84,0,52.54-28.32,22.45-28.32Z"/><path class="cls-1" d="M101.11,112.09c-31.07,0-16.21,26,17.87,26a138.39,138.39,0,0,0,28.66-2.88c9.79,12.51,33.75,35.89,86.26,29.71,33.34,41.84,112.55,39.53,140.6,21.1,14.61,15.33,41,25.57,71.08,25.57a126.41,126.41,0,0,0,27-2.88c5.16,21.62,32.38,38.12,65.18,38.12a88.2,88.2,0,0,0,36.38-7.53C575,266,613.88,287.4,661.77,287.4c46.42,0,84.39-20.14,87.47-45.61a130.46,130.46,0,0,0,36.15,5c43.25,0,78.88-19.85,83.94-45.45H870c28.86,0,53.27-11.48,61.24-27.27a122,122,0,0,0,26.13,2.74c36.39,0,65.9-15,65.9-33.46a17.66,17.66,0,0,0-.6-4.46,143.05,143.05,0,0,0,21.23,1.55c35.84,0,52.54-28.32,22.45-28.32Z"/><path class="cls-1" d="M105.94,103c-31.07,0-16.21,26,17.87,26a138.39,138.39,0,0,0,28.66-2.88c9.79,12.51,33.75,35.89,86.26,29.71,33.34,41.84,112.55,39.53,140.61,21.1,14.61,15.33,41,25.57,71.08,25.57a126.43,126.43,0,0,0,27-2.88c5.16,21.62,32.38,38.12,65.18,38.12A88.2,88.2,0,0,0,579,230.21c.86,26.63,39.76,48.06,87.65,48.06,46.42,0,84.39-20.14,87.47-45.61a130.49,130.49,0,0,0,36.15,5c43.24,0,78.88-19.84,83.94-45.45h.65c28.86,0,53.26-11.48,61.24-27.27a122.07,122.07,0,0,0,26.13,2.74c36.39,0,65.9-15,65.9-33.46a17.54,17.54,0,0,0-.6-4.46,143.07,143.07,0,0,0,21.23,1.55c35.84,0,52.54-28.32,22.45-28.32Z"/><path class="cls-1" d="M110.77,93.85c-31.07,0-16.21,26,17.87,26A138.42,138.42,0,0,0,157.31,117c9.79,12.51,33.75,35.89,86.26,29.71,33.34,41.84,112.55,39.53,140.6,21.1,14.61,15.33,41,25.57,71.08,25.57a126.45,126.45,0,0,0,27-2.88c5.16,21.62,32.37,38.11,65.18,38.11a88.15,88.15,0,0,0,36.38-7.53c.86,26.63,39.76,48.06,87.65,48.06,46.42,0,84.39-20.13,87.47-45.62a130.49,130.49,0,0,0,36.15,5c43.24,0,78.88-19.84,83.94-45.44h.65c28.87,0,53.26-11.48,61.24-27.27A122,122,0,0,0,967,158.51c36.39,0,65.9-15,65.9-33.46a17.55,17.55,0,0,0-.6-4.46,143,143,0,0,0,21.23,1.55c35.84,0,52.54-28.31,22.45-28.31Z"/><path class="cls-4" d="M115.6,84.72c-31.07,0-16.21,26,17.87,26a138.45,138.45,0,0,0,28.67-2.88c9.79,12.51,33.75,35.89,86.26,29.72C281.74,179.43,361,177.12,389,158.67c14.61,15.34,41,25.58,71.08,25.58a126.44,126.44,0,0,0,27-2.88c5.16,21.62,32.37,38.11,65.18,38.11A88.16,88.16,0,0,0,588.61,212c.86,26.63,39.76,48.06,87.65,48.06,46.42,0,84.39-20.13,87.47-45.62a130.46,130.46,0,0,0,36.15,5c43.24,0,78.88-19.84,83.94-45.44h.65c28.86,0,53.26-11.48,61.24-27.27a122,122,0,0,0,26.13,2.74c36.39,0,65.9-15,65.9-33.46a17.51,17.51,0,0,0-.6-4.46,143,143,0,0,0,21.23,1.55c35.84,0,52.54-28.3,22.45-28.3Z"/><path class="cls-4" d="M120.43,75.61c-31.07,0-16.21,26,17.87,26A138.63,138.63,0,0,0,167,98.75c9.79,12.51,33.75,35.89,86.26,29.71,33.34,41.84,112.55,39.53,140.6,21.09,14.61,15.34,41,25.58,71.08,25.58a126.44,126.44,0,0,0,27-2.88c5.16,21.62,32.37,38.11,65.18,38.11a88.15,88.15,0,0,0,36.38-7.53c.86,26.63,39.77,48.07,87.65,48.07,46.42,0,84.39-20.14,87.47-45.62a130.48,130.48,0,0,0,36.15,5c43.24,0,78.88-19.84,83.94-45.45h.65c28.87,0,53.26-11.48,61.24-27.27a122,122,0,0,0,26.13,2.74c36.39,0,65.9-15,65.9-33.46a17.49,17.49,0,0,0-.6-4.46,143.12,143.12,0,0,0,21.23,1.55c35.84,0,52.54-28.3,22.45-28.3Z"/></g><path class="cls-1" d="M19,267.25c-31.07,0-16.21,26,17.87,26a138.49,138.49,0,0,0,28.67-2.89c9.78,12.51,33.74,35.89,86.25,29.72,33.34,41.82,112.55,39.5,140.61,21.06,14.61,15.34,41,25.58,71.08,25.58a126.43,126.43,0,0,0,27-2.88C395.59,385.51,422.8,402,455.61,402A88.16,88.16,0,0,0,492,394.46c.86,26.63,39.76,48.07,87.65,48.07,46.42,0,84.39-20.14,87.47-45.62a130.39,130.39,0,0,0,36.14,5c43.25,0,78.88-19.84,83.94-45.45h.64c28.87,0,53.27-11.48,61.25-27.26a121.66,121.66,0,0,0,26.13,2.75c36.39,0,65.9-15,65.9-33.46a17.47,17.47,0,0,0-.6-4.46,143.09,143.09,0,0,0,21.23,1.55c35.83,0,52.54-28.32,22.45-28.32Z"/><polyline class="cls-5" points="847.19 301.65 847.19 253.05 856.02 253.05 856.02 298.9"/><polygon class="cls-6" points="848.49 301.65 845.89 301.65 845.89 251.75 857.32 251.75 857.32 298.9 854.72 298.9 854.72 254.35 848.49 254.35 848.49 301.65"/><polyline class="cls-5" points="498.06 304.75 498.06 253.05 506.88 253.05 506.88 305.61"/><polygon class="cls-6" points="508.18 305.61 505.58 305.61 505.58 254.35 499.36 254.35 499.36 304.75 496.76 304.75 496.76 251.75 508.18 251.75 508.18 305.61"/><polyline class="cls-5" points="143.05 287.41 143.05 253.05 151.89 253.05 151.89 288.3"/><polygon class="cls-6" points="153.19 288.3 150.59 288.3 150.59 254.35 144.35 254.35 144.35 287.41 141.75 287.41 141.75 251.75 153.19 251.75 153.19 288.3"/><polyline class="cls-5" points="150.4 278.37 144.44 278.37 144.44 266.41 150.4 266.41"/><rect class="cls-5" x="499.57" y="280.55" width="5.91" height="11.96"/><rect class="cls-5" x="848.62" y="271.3" width="5.98" height="16.1"/><path class="cls-7" d="M661,120.74H604.84v-7l3.08-5.47c2.59-4.62,25.45-45.5,28.49-58.91a36.22,36.22,0,0,0,.91-8.11,36.68,36.68,0,0,0-73.35,0,37.13,37.13,0,0,0,.9,8.09c3,13.43,25.91,54.31,28.5,58.93l3.13,5.56v6.91H540.35V107.31H532v13.43h0v8.35H596.5V136h8.35v-6.9h64.49v-4.17h0V107.31H661ZM573,47.52a28.73,28.73,0,0,1-.7-6.27,28.33,28.33,0,0,1,56.66,0,27.89,27.89,0,0,1-.7,6.27c-2.52,11.17-22.22,46.95-26.7,55h-1.84C595.24,94.47,575.55,58.69,573,47.52Z"/><path class="cls-7" d="M536.18,98.77l3.64-6.47c1.79-3.19,17.57-31.39,19.61-40.46a23.21,23.21,0,0,0,.6-5.3,23.85,23.85,0,1,0-47.12,5.28c2.06,9.09,17.83,37.3,19.63,40.48ZM520.67,46.54a15.51,15.51,0,0,1,31,0A15.26,15.26,0,0,1,551.3,50c-1.21,5.35-9.45,21.21-15.12,31.64C530.51,71.18,522.27,55.32,521.06,50A15.63,15.63,0,0,1,520.67,46.54Z"/><path class="cls-8" d="M590.93,39.66A4.64,4.64,0,1,0,586.3,35,4.64,4.64,0,0,0,590.93,39.66Z"/><rect class="cls-8" x="583.63" y="40.66" width="34.24" height="8.35" transform="translate(144.41 438.11) rotate(-45.02)"/><path class="cls-8" d="M610.36,49.8A4.64,4.64,0,1,0,615,54.44,4.64,4.64,0,0,0,610.36,49.8Z"/><path class="cls-7" d="M665.17,22.69A23.84,23.84,0,0,0,641.9,51.81c2.06,9.09,17.84,37.3,19.63,40.48l3.64,6.47,3.64-6.47c1.79-3.19,17.57-31.39,19.61-40.46a23.21,23.21,0,0,0,.6-5.3A23.87,23.87,0,0,0,665.17,22.69ZM680.28,50c-1.21,5.35-9.45,21.21-15.12,31.64C659.5,71.18,651.26,55.32,650,50a15.5,15.5,0,1,1,30.62-3.44A15.25,15.25,0,0,1,680.28,50Z"/><rect class="cls-9" x="891.61" y="65.78" width="5" height="41.04"/><rect class="cls-9" x="903.51" y="65.78" width="5" height="52.71"/><rect class="cls-9" x="914.67" y="65.78" width="5" height="41.04"/><rect class="cls-9" x="679.76" y="97.04" width="26.24" height="1.46"/><rect class="cls-9" x="500.42" y="97.04" width="20.25" height="1.46"/><rect class="cls-9" x="679.76" y="108.71" width="25.52" height="1.46"/><rect class="cls-9" x="679.76" y="121.83" width="25.52" height="10.21"/><rect class="cls-9" x="500.42" y="108.71" width="20.25" height="1.46"/><rect class="cls-9" x="500.42" y="121.83" width="20.25" height="10.21"/><rect class="cls-10" x="500.42" y="137.87" width="53.31" height="11.66"/><rect class="cls-10" x="669.34" y="137.87" width="35.93" height="11.66"/><path class="cls-8" d="M879.55,119.71a24,24,0,0,0-16.79,6.84,151.5,151.5,0,0,0,2.46-27H716.68c0,35.25,14.88,83,53.44,95.74H716.68V207.5H865.21V195.31H812.58c22-7.06,35.75-24.86,43.67-45.34a24.11,24.11,0,1,0,23.3-30.26Zm0,38.46a14.34,14.34,0,1,1,14.34-14.34A14.35,14.35,0,0,1,879.55,158.17Z"/><circle class="cls-6" cx="97.29" cy="238" r="4.25"/><circle class="cls-6" cx="115.97" cy="238" r="4.25"/><circle class="cls-6" cx="134.66" cy="238" r="4.25"/><path class="cls-6" d="M157.6,238a4.25,4.25,0,1,1-4.25-4.25A4.25,4.25,0,0,1,157.6,238Z"/><ellipse class="cls-6" cx="172.03" cy="238" rx="4.25" ry="4.25"/><circle class="cls-6" cx="190.72" cy="238" r="4.25"/><circle class="cls-6" cx="209.41" cy="238" r="4.25"/><ellipse class="cls-6" cx="228.09" cy="238" rx="4.25" ry="4.25"/><circle class="cls-6" cx="246.78" cy="238" r="4.25"/><circle class="cls-6" cx="265.47" cy="238" r="4.25"/><circle class="cls-6" cx="284.15" cy="238" r="4.25"/><circle class="cls-6" cx="302.84" cy="238" r="4.25"/><ellipse class="cls-6" cx="321.52" cy="238" rx="4.25" ry="4.25"/><circle class="cls-6" cx="340.21" cy="238" r="4.25"/><circle class="cls-6" cx="358.9" cy="238" r="4.25"/><circle class="cls-6" cx="377.59" cy="238" r="4.25"/><path class="cls-6" d="M400.53,238a4.25,4.25,0,1,1-4.26-4.25A4.26,4.26,0,0,1,400.53,238Z"/><circle class="cls-6" cx="414.96" cy="238" r="4.25"/><circle class="cls-6" cx="433.64" cy="238" r="4.25"/><circle class="cls-6" cx="452.33" cy="238" r="4.25"/><circle class="cls-6" cx="471.02" cy="238" r="4.25"/><circle class="cls-6" cx="489.7" cy="238" r="4.25"/><circle class="cls-6" cx="508.39" cy="238" r="4.25"/><circle class="cls-6" cx="527.07" cy="238" r="4.25"/><circle class="cls-6" cx="545.76" cy="238" r="4.25"/><circle class="cls-6" cx="564.45" cy="238" r="4.25"/><circle class="cls-6" cx="583.13" cy="238" r="4.25"/><circle class="cls-6" cx="601.82" cy="238" r="4.25"/><path class="cls-6" d="M624.76,238a4.25,4.25,0,1,1-4.25-4.25A4.26,4.26,0,0,1,624.76,238Z"/><circle class="cls-6" cx="639.19" cy="238" r="4.25"/><circle class="cls-6" cx="657.88" cy="238" r="4.26"/><ellipse class="cls-6" cx="676.56" cy="238" rx="4.25" ry="4.25"/><circle class="cls-6" cx="695.25" cy="238" r="4.25"/><circle class="cls-6" cx="713.93" cy="238" r="4.26"/><circle class="cls-6" cx="732.62" cy="238" r="4.25"/><circle class="cls-6" cx="751.31" cy="238" r="4.25"/><circle class="cls-6" cx="769.99" cy="238" r="4.25"/><ellipse class="cls-6" cx="788.68" cy="238" rx="4.25" ry="4.25"/><path class="cls-6" d="M811.62,238a4.25,4.25,0,1,1-4.26-4.25A4.26,4.26,0,0,1,811.62,238Z"/><circle class="cls-6" cx="826.05" cy="238" r="4.25"/><path class="cls-6" d="M849,238a4.25,4.25,0,1,1-4.25-4.25A4.26,4.26,0,0,1,849,238Z"/><circle class="cls-6" cx="863.43" cy="238" r="4.25"/><circle class="cls-6" cx="882.11" cy="238" r="4.25"/><path class="cls-6" d="M905,238a4.25,4.25,0,1,1-4.25-4.25A4.26,4.26,0,0,1,905,238Z"/><path class="cls-6" d="M923.74,238a4.25,4.25,0,1,1-4.25-4.25A4.26,4.26,0,0,1,923.74,238Z"/><circle class="cls-6" cx="77.85" cy="238" r="5"/><path class="cls-9" d="M831.91,34.08A7,7,0,0,1,827.25,32l1.32-1.82a5.71,5.71,0,0,0,3.33,1.8V28.11c-2.06-.52-4.21-1.26-4.21-3.85,0-2,1.64-3.65,4.21-3.87V18.54h1.6V20.4a6.76,6.76,0,0,1,4,1.82L836.2,24a5.3,5.3,0,0,0-2.7-1.42V26c2.08.54,4.33,1.32,4.33,4,0,2-1.34,3.83-4.33,4.09v1.8h-1.6Zm0-8.51V22.44c-1.12.14-1.82.76-1.82,1.64S830.85,25.25,831.91,25.57Zm1.6,3V32c1.38-.2,1.94-1,1.94-1.8S834.6,28.87,833.5,28.53Z"/><path class="cls-9" d="M871.3,55.35V10.83s.17-1.52-2-1.52H793.13a2,2,0,0,0-2,2V43.25a2,2,0,0,0,2,2h69.69v-4H795.13V14.66L824.05,30V25.47L801.18,13.33h62.56L840.81,25.5V30L867.29,16V59.36h21.77v-4Z"/><rect class="cls-11" x="881.84" y="54.47" width="53.4" height="5.83"/><path class="cls-11" d="M908.54,20.07l-27.66,9.56,1,5.67h2.82V50.9h5.83V35.31h8.15V50.9h5.83V35.31h8.15V50.9h5.83V35.31h8.15V50.9h5.83V35.31h2.81l1-5.67Zm-14,9.4,14-3.86,14,3.86Z"/><path class="cls-11" d="M624.49,158.34l-3.93-7-5.88,2.11a16,16,0,0,0-1.87-1.48l.69-6.2-7.76-2.2-2.66,5.63a16,16,0,0,0-2.38.28l-3.89-4.87-7,3.93,2.1,5.86a16,16,0,0,0-1.49,1.88l-6.19-.69-2.2,7.76,5.64,2.67a16,16,0,0,0,.28,2.37l-4.88,3.9,3.93,7,5.89-2.11a16,16,0,0,0,1.86,1.46l-.69,6.22,7.76,2.2,2.68-5.67a16,16,0,0,0,2.34-.27l3.92,4.9,7-3.93-2.12-5.91a16,16,0,0,0,1.46-1.84l6.24.7,2.2-7.76-5.66-2.68a16,16,0,0,0-.27-2.35ZM606.38,170a5.37,5.37,0,1,1,2.07-7.31A5.37,5.37,0,0,1,606.38,170Z"/><path class="cls-11" d="M562.37,185.29l-1.47-5-4,.49a10.33,10.33,0,0,0-1-1.2l1.31-3.8-4.57-2.48-2.47,3.17a10.33,10.33,0,0,0-1.54-.16l-1.76-3.61-5,1.47.49,4a10.33,10.33,0,0,0-1.2,1l-3.8-1.31-2.48,4.57,3.17,2.48a10.34,10.34,0,0,0-.16,1.53l-3.62,1.76,1.47,5,4-.49a10.33,10.33,0,0,0,1,1.18l-1.32,3.82,4.57,2.48,2.49-3.19a10.33,10.33,0,0,0,1.51.16l1.77,3.64,5-1.47-.49-4a10.34,10.34,0,0,0,1.18-1l3.82,1.32,2.48-4.57-3.18-2.49a10.33,10.33,0,0,0,.16-1.52Zm-13,4.75a3.46,3.46,0,1,1,2.34-4.3A3.46,3.46,0,0,1,549.33,190Z"/><path class="cls-12" d="M736.54,22.47c3.07-1.5,6.24-3.05,6.24-6.36s-3.17-4.86-6.24-6.36c-2.79-1.36-5.42-2.65-5.42-5.05h-1.46c0,3.31,3.17,4.86,6.24,6.36,2.79,1.36,5.42,2.65,5.42,5.05s-2.63,3.69-5.42,5.05c-3.07,1.5-6.24,3.05-6.24,6.36s3.17,4.86,6.24,6.36c2.79,1.36,5.42,2.65,5.42,5s-2.63,3.68-5.42,5c-3.07,1.5-6.24,3.05-6.24,6.36s3.17,4.86,6.24,6.36c2.79,1.36,5.42,2.65,5.42,5s-2.63,3.68-5.42,5c-3.07,1.5-6.24,3-6.24,6.36s3.17,4.86,6.24,6.35c2.79,1.36,5.42,2.65,5.42,5s-2.63,3.68-5.42,5c-3.07,1.5-6.24,3-6.24,6.36h1.46c0-2.39,2.63-3.68,5.42-5,3.07-1.5,6.24-3,6.24-6.35s-3.17-4.86-6.24-6.36c-2.79-1.36-5.42-2.65-5.42-5s2.63-3.68,5.42-5c3.07-1.5,6.24-3,6.24-6.35s-3.17-4.86-6.24-6.36c-2.79-1.36-5.42-2.65-5.42-5s2.63-3.68,5.42-5c3.07-1.5,6.24-3.05,6.24-6.36s-3.17-4.86-6.24-6.36c-2.79-1.36-5.42-2.65-5.42-5S733.75,23.84,736.54,22.47Z"/><path class="cls-12" d="M768.67,22.47c3.07-1.5,6.24-3.05,6.24-6.36s-3.17-4.86-6.24-6.36c-2.79-1.36-5.42-2.65-5.42-5.05h-1.46c0,3.31,3.17,4.86,6.24,6.36,2.79,1.36,5.42,2.65,5.42,5.05s-2.63,3.69-5.42,5.05c-3.07,1.5-6.24,3.05-6.24,6.36S765,32.38,768,33.88c2.79,1.36,5.42,2.65,5.42,5s-2.63,3.68-5.42,5c-3.07,1.5-6.24,3.05-6.24,6.36S765,55.19,768,56.69c2.79,1.36,5.42,2.65,5.42,5s-2.63,3.68-5.42,5c-3.07,1.5-6.24,3-6.24,6.36S765,78,768,79.49c2.79,1.36,5.42,2.65,5.42,5s-2.63,3.68-5.42,5c-3.07,1.5-6.24,3-6.24,6.36h1.46c0-2.39,2.63-3.68,5.42-5,3.07-1.5,6.24-3,6.24-6.35s-3.17-4.86-6.24-6.36c-2.79-1.36-5.42-2.65-5.42-5s2.63-3.68,5.42-5c3.07-1.5,6.24-3,6.24-6.35s-3.17-4.86-6.24-6.36c-2.79-1.36-5.42-2.65-5.42-5s2.63-3.68,5.42-5c3.07-1.5,6.24-3.05,6.24-6.36s-3.17-4.86-6.24-6.36c-2.79-1.36-5.42-2.65-5.42-5S765.88,23.84,768.67,22.47Z"/><path class="cls-12" d="M752.61,22.47c3.07-1.5,6.24-3.05,6.24-6.36s-3.17-4.86-6.24-6.36c-2.79-1.36-5.42-2.65-5.42-5.05h-1.46c0,3.31,3.17,4.86,6.24,6.36,2.79,1.36,5.42,2.65,5.42,5.05s-2.63,3.69-5.42,5.05c-3.07,1.5-6.24,3.05-6.24,6.36s3.17,4.86,6.24,6.36c2.79,1.36,5.42,2.65,5.42,5s-2.63,3.68-5.42,5c-3.07,1.5-6.24,3.05-6.24,6.36s3.17,4.86,6.24,6.36c2.79,1.36,5.42,2.65,5.42,5s-2.63,3.68-5.42,5c-3.07,1.5-6.24,3-6.24,6.36S748.9,78,752,79.49c2.79,1.36,5.42,2.65,5.42,5s-2.63,3.68-5.42,5c-3.07,1.5-6.24,3-6.24,6.36h1.46c0-2.39,2.63-3.68,5.42-5,3.07-1.5,6.24-3,6.24-6.35s-3.17-4.86-6.24-6.36c-2.79-1.36-5.42-2.65-5.42-5s2.63-3.68,5.42-5c3.07-1.5,6.24-3,6.24-6.35s-3.17-4.86-6.24-6.36c-2.79-1.36-5.42-2.65-5.42-5s2.63-3.68,5.42-5c3.07-1.5,6.24-3.05,6.24-6.36s-3.17-4.86-6.24-6.36c-2.79-1.36-5.42-2.65-5.42-5S749.82,23.84,752.61,22.47Z"/><path class="cls-12" d="M832.94,68.09c3.07-1.5,6.24-3,6.24-6.35a4.58,4.58,0,0,0-.11-.9h-1.49a3,3,0,0,1,.14.9c0,2.39-2.63,3.68-5.42,5-3.07,1.5-6.24,3-6.24,6.36s3.17,4.86,6.24,6.35c2.79,1.36,5.42,2.65,5.42,5s-2.63,3.68-5.42,5c-3.07,1.5-6.24,3-6.24,6.36h1.46c0-2.39,2.63-3.68,5.42-5,3.07-1.5,6.24-3,6.24-6.35s-3.17-4.86-6.24-6.36c-2.79-1.36-5.42-2.65-5.42-5S830.15,69.45,832.94,68.09Z"/><path class="cls-12" d="M849,68.09c3.07-1.5,6.24-3,6.24-6.35a4.58,4.58,0,0,0-.11-.9h-1.49a3,3,0,0,1,.14.9c0,2.39-2.63,3.68-5.42,5-3.07,1.5-6.24,3-6.24,6.36s3.17,4.86,6.24,6.35c2.79,1.36,5.42,2.65,5.42,5s-2.63,3.68-5.42,5c-3.07,1.5-6.24,3-6.24,6.36h1.46c0-2.39,2.63-3.68,5.42-5,3.07-1.5,6.24-3,6.24-6.35s-3.17-4.86-6.24-6.36c-2.79-1.36-5.42-2.65-5.42-5S846.22,69.45,849,68.09Z"/><path class="cls-12" d="M816.87,68.09c3.07-1.5,6.24-3,6.24-6.35a4.58,4.58,0,0,0-.11-.9h-1.49a3,3,0,0,1,.14.9c0,2.39-2.63,3.68-5.42,5-3.07,1.5-6.24,3-6.24,6.36s3.17,4.86,6.24,6.35c2.79,1.36,5.42,2.65,5.42,5s-2.63,3.68-5.42,5c-3.07,1.5-6.24,3-6.24,6.36h1.46c0-2.39,2.63-3.68,5.42-5,3.07-1.5,6.24-3,6.24-6.35s-3.17-4.86-6.24-6.36c-2.79-1.36-5.42-2.65-5.42-5S814.09,69.45,816.87,68.09Z"/><path class="cls-12" d="M800.81,68.09c3.07-1.5,6.24-3,6.24-6.35a4.58,4.58,0,0,0-.11-.9h-1.49a3,3,0,0,1,.14.9c0,2.39-2.63,3.68-5.42,5-3.07,1.5-6.24,3-6.24,6.36s3.17,4.86,6.24,6.35c2.79,1.36,5.42,2.65,5.42,5s-2.63,3.68-5.42,5c-3.07,1.5-6.24,3-6.24,6.36h1.46c0-2.39,2.63-3.68,5.42-5,3.07-1.5,6.24-3,6.24-6.35s-3.17-4.86-6.24-6.36c-2.79-1.36-5.42-2.65-5.42-5S798,69.45,800.81,68.09Z"/><path class="cls-12" d="M784.74,68.09c3.07-1.5,6.24-3,6.24-6.35a4.58,4.58,0,0,0-.11-.9h-1.49a3,3,0,0,1,.14.9c0,2.39-2.63,3.68-5.42,5-3.07,1.5-6.24,3-6.24,6.36S781,78,784.1,79.49c2.79,1.36,5.42,2.65,5.42,5s-2.63,3.68-5.42,5c-3.07,1.5-6.24,3-6.24,6.36h1.46c0-2.39,2.63-3.68,5.42-5,3.07-1.5,6.24-3,6.24-6.35s-3.17-4.86-6.24-6.36c-2.79-1.36-5.42-2.65-5.42-5S782,69.45,784.74,68.09Z"/><polygon class="cls-9" points="705.52 196.19 591.82 199.32 557.3 166 501.52 166 501.52 165 557.89 165 592.42 198.09 705.52 194.73 705.52 196.19"/><path class="cls-13" d="M892.61,123.58c-26,11.5-63,18.68-103.95,18.68a312.51,312.51,0,0,1-67.23-7.14c7,26.26,22.33,50.88,48.69,59.88h42.46c22-6,35.75-24.71,43.67-45.18a24.09,24.09,0,1,0,36.36-26.24Zm-13.06,34.59a14.34,14.34,0,1,1,14.34-14.34A14.35,14.35,0,0,1,879.55,158.17Z"/><path class="cls-5" d="M810.23,139.94,809,137.09a93.72,93.72,0,0,0-17.19,17.1s-2.57-3.14-4.08-4.84l-2.13,5c3.06,4.56,5.08,8.47,6.19,10.35C794,161,799.27,150.14,810.23,139.94Z"/><path class="cls-5" d="M808.8,147.77a81.53,81.53,0,0,0-5.85,6.91L807.78,166h8.68Z"/><path class="cls-5" d="M791.61,129h.4l.71,1.81,4.46,10.46a86.33,86.33,0,0,1,6.42-6l-8-19.28H788l-20.82,50h8.68l15.05-35.29Z"/><path class="cls-11" d="M147.91,108.74a33,33,0,1,0-32.95-33A33,33,0,0,0,147.91,108.74Zm0-58.44a25.48,25.48,0,1,1-25.47,25.48A25.51,25.51,0,0,1,147.91,50.3Z"/><path class="cls-11" d="M147.52,115.13c-36.21,0-66,24.22-66,54V173h132v-3.89C213.52,139.35,183.74,115.13,147.52,115.13ZM201.67,166h-112l1-4.75c4.93-22.22,29-38.5,57.31-38.5s52.39,16.36,57.32,38.57l1,4.67Z"/><path class="cls-6" d="M233,184.89H491.72V45.19H233Z"/><g class="cls-14"><path class="cls-15" d="M241.15,54.07l0-1.76h1.76l0,1.76-.4,3.6h-.9Zm3.66,0,0-1.76h1.76l0,1.76-.4,3.6h-.9Z"/><path class="cls-15" d="M252.75,53.93h-3.46V52.81h8.26v1.12h-3.46V63.3h-1.34Z"/><path class="cls-15" d="M259.18,59.43a4.54,4.54,0,0,1,.31-1.74,3.9,3.9,0,0,1,.84-1.29,3.53,3.53,0,0,1,1.22-.8,4.08,4.08,0,0,1,2.93,0,3.55,3.55,0,0,1,1.22.8,3.91,3.91,0,0,1,.84,1.29,4.54,4.54,0,0,1,.31,1.74,4.49,4.49,0,0,1-.31,1.72,3.8,3.8,0,0,1-.84,1.28,3.61,3.61,0,0,1-1.22.79,4.06,4.06,0,0,1-2.93,0,3.6,3.6,0,0,1-1.22-.79,3.79,3.79,0,0,1-.84-1.28A4.49,4.49,0,0,1,259.18,59.43Zm1.36,0a3.93,3.93,0,0,0,.18,1.21,2.77,2.77,0,0,0,.5.94,2.35,2.35,0,0,0,3.6,0,2.77,2.77,0,0,0,.5-.94,3.9,3.9,0,0,0,.18-1.21,4,4,0,0,0-.18-1.22,2.84,2.84,0,0,0-.5-1,2.25,2.25,0,0,0-.78-.62,2.51,2.51,0,0,0-2,0,2.25,2.25,0,0,0-.78.62,2.84,2.84,0,0,0-.5,1A4,4,0,0,0,260.54,59.43Z"/><path class="cls-15" d="M271.12,56.6h-2.19v-1l2.24-.08.18-2.18h1.09v2.18h3.81V56.6h-3.81v3.7a3.88,3.88,0,0,0,.1.92,1.62,1.62,0,0,0,.32.66,1.34,1.34,0,0,0,.61.41,2.82,2.82,0,0,0,.94.14,4.93,4.93,0,0,0,1-.1,5.74,5.74,0,0,0,.86-.26l.27,1a7.85,7.85,0,0,1-1.15.33,6.2,6.2,0,0,1-1.28.14,3.83,3.83,0,0,1-1.42-.23,2.22,2.22,0,0,1-.92-.66,2.61,2.61,0,0,1-.5-1,5.26,5.26,0,0,1-.15-1.31Z"/><path class="cls-15" d="M278.72,61.29a2.08,2.08,0,0,1,.31-1.14,2.51,2.51,0,0,1,1-.84,7,7,0,0,1,1.75-.58,22.21,22.21,0,0,1,2.58-.35,2.87,2.87,0,0,0-.13-.75,1.63,1.63,0,0,0-.35-.62,1.7,1.7,0,0,0-.63-.42,2.51,2.51,0,0,0-1-.16,3.76,3.76,0,0,0-1.47.29,9.05,9.05,0,0,0-1.25.63l-.51-.9a7.47,7.47,0,0,1,.68-.39,7.67,7.67,0,0,1,.83-.36,6.9,6.9,0,0,1,.94-.26,4.82,4.82,0,0,1,1-.1,3,3,0,0,1,2.38.87,3.37,3.37,0,0,1,.78,2.33V63.3h-1.07l-.11-1.05h0a7.44,7.44,0,0,1-1.45.88,3.8,3.8,0,0,1-1.62.37,3.37,3.37,0,0,1-1-.15,2.68,2.68,0,0,1-.84-.43,2,2,0,0,1-.78-1.62Zm1.28-.1a1.06,1.06,0,0,0,.14.57,1.24,1.24,0,0,0,.38.38,1.69,1.69,0,0,0,.54.22,2.83,2.83,0,0,0,.65.07,3.15,3.15,0,0,0,1.32-.3,5.94,5.94,0,0,0,1.32-.86v-2a16.75,16.75,0,0,0-2.09.27,5.77,5.77,0,0,0-1.34.42,1.77,1.77,0,0,0-.71.56A1.22,1.22,0,0,0,280,61.19Z"/><path class="cls-15" d="M288.32,51.91h4v8.88a1.62,1.62,0,0,0,.41,1.24,1.58,1.58,0,0,0,1.11.38,3.7,3.7,0,0,0,1.47-.37l.34,1q-.53.19-1,.33a4,4,0,0,1-1.1.14,2.45,2.45,0,0,1-1.9-.71,3,3,0,0,1-.65-2.1V53h-2.66Z"/><path class="cls-15" d="M303.31,60.11H299.5l-1,3.2h-1.36l3.54-10.5h1.5l3.54,10.5H304.3ZM303,59l-.5-1.6q-.27-.88-.53-1.75c-.17-.58-.34-1.18-.51-1.79h-.06c-.17.61-.34,1.2-.51,1.79s-.35,1.16-.53,1.75l-.5,1.6Z"/><path class="cls-15" d="M307.18,55.53h1l.11,1h0a3,3,0,0,1,.68-.88,1.58,1.58,0,0,1,1.06-.34q1.19,0,1.47,1.34a3.89,3.89,0,0,1,.77-1,1.55,1.55,0,0,1,1.07-.37,1.45,1.45,0,0,1,1.26.62,3,3,0,0,1,.44,1.78V63.3h-1.26V57.85q0-1.38-.85-1.38a1,1,0,0,0-.72.3,3.35,3.35,0,0,0-.61.9V63.3h-1.06V57.85q0-1.38-.88-1.38a.94.94,0,0,0-.7.3,3.65,3.65,0,0,0-.59.9V63.3h-1.26Z"/><path class="cls-15" d="M316.78,59.43a4.54,4.54,0,0,1,.31-1.74,3.9,3.9,0,0,1,.84-1.29,3.53,3.53,0,0,1,1.22-.8,4.08,4.08,0,0,1,2.93,0,3.55,3.55,0,0,1,1.22.8,3.91,3.91,0,0,1,.84,1.29,4.54,4.54,0,0,1,.31,1.74,4.49,4.49,0,0,1-.31,1.72,3.8,3.8,0,0,1-.84,1.28,3.61,3.61,0,0,1-1.22.79,4.06,4.06,0,0,1-2.93,0,3.6,3.6,0,0,1-1.22-.79,3.79,3.79,0,0,1-.84-1.28A4.49,4.49,0,0,1,316.78,59.43Zm1.36,0a3.93,3.93,0,0,0,.18,1.21,2.77,2.77,0,0,0,.5.94,2.35,2.35,0,0,0,3.6,0,2.77,2.77,0,0,0,.5-.94,3.9,3.9,0,0,0,.18-1.21,4,4,0,0,0-.18-1.22,2.84,2.84,0,0,0-.5-1,2.25,2.25,0,0,0-.78-.62,2.51,2.51,0,0,0-2,0,2.25,2.25,0,0,0-.78.62,2.84,2.84,0,0,0-.5,1A4,4,0,0,0,318.14,59.43Z"/><path class="cls-15" d="M333.5,63.3h-1.07l-.11-1.36h-.06A5.57,5.57,0,0,1,331,63.06a3,3,0,0,1-1.61.43,2.51,2.51,0,0,1-2.06-.79,3.63,3.63,0,0,1-.65-2.34V55.53H328v4.66a2.69,2.69,0,0,0,.41,1.64,1.63,1.63,0,0,0,1.38.54A2.24,2.24,0,0,0,331,62a5.89,5.89,0,0,0,1.2-1.1V55.53h1.31Z"/><path class="cls-15" d="M336.51,55.53h1.09l.11,1.33h.06a6.2,6.2,0,0,1,1.31-1.09,3,3,0,0,1,1.62-.43,2.48,2.48,0,0,1,2,.79,3.63,3.63,0,0,1,.65,2.34V63.3h-1.31V58.65a2.66,2.66,0,0,0-.42-1.64,1.64,1.64,0,0,0-1.38-.54,2.27,2.27,0,0,0-.65.09,2.46,2.46,0,0,0-.58.26,4.59,4.59,0,0,0-.59.44q-.3.26-.64.62V63.3h-1.31Z"/><path class="cls-15" d="M347.92,56.6h-2.19v-1l2.24-.08.18-2.18h1.09v2.18H353V56.6h-3.81v3.7a3.88,3.88,0,0,0,.1.92,1.62,1.62,0,0,0,.32.66,1.34,1.34,0,0,0,.61.41,2.82,2.82,0,0,0,.94.14,4.93,4.93,0,0,0,1-.1,5.74,5.74,0,0,0,.86-.26l.27,1a7.85,7.85,0,0,1-1.15.33,6.2,6.2,0,0,1-1.28.14,3.83,3.83,0,0,1-1.42-.23,2.22,2.22,0,0,1-.92-.66,2.61,2.61,0,0,1-.5-1,5.26,5.26,0,0,1-.15-1.31Z"/><path class="cls-15" d="M356.35,54.07l0-1.76h1.76l0,1.76-.4,3.6h-.9Zm3.66,0,0-1.76h1.76l0,1.76-.4,3.6h-.9Z"/><path class="cls-5" d="M367.32,56.43a1.33,1.33,0,0,1,.38-1,1.31,1.31,0,0,1,1.84,0,1.33,1.33,0,0,1,.38,1,1.3,1.3,0,0,1-.38,1,1.33,1.33,0,0,1-1.84,0A1.3,1.3,0,0,1,367.32,56.43Zm0,5.73a1.33,1.33,0,0,1,.38-1,1.31,1.31,0,0,1,1.84,0,1.33,1.33,0,0,1,.38,1,1.3,1.3,0,0,1-.38,1,1.33,1.33,0,0,1-1.84,0A1.3,1.3,0,0,1,367.32,62.15Z"/><path class="cls-5" d="M385.15,54.07l0-1.76h1.76l0,1.76-.4,3.6h-.9Zm3.66,0,0-1.76h1.76l0,1.76-.4,3.6h-.9Z"/><path class="cls-5" d="M401.07,62.22V63.3h-6.88V62.22h2.9V54.7h-2.18v-.85a10.7,10.7,0,0,0,1.42-.31,6.07,6.07,0,0,0,1.09-.44h1v9.12Z"/><path class="cls-5" d="M407,63.5a3.11,3.11,0,0,1-2.69-1.38,6.78,6.78,0,0,1-1-3.94,6.61,6.61,0,0,1,1-3.92,3.36,3.36,0,0,1,5.38,0,6.62,6.62,0,0,1,1,3.92,6.79,6.79,0,0,1-1,3.94A3.12,3.12,0,0,1,407,63.5ZM407,54a2,2,0,0,0-1,.24,2.12,2.12,0,0,0-.78.76,4.15,4.15,0,0,0-.5,1.31,8.86,8.86,0,0,0-.18,1.9,6,6,0,0,0,.68,3.23,2,2,0,0,0,3.5,0,6,6,0,0,0,.68-3.23,8.86,8.86,0,0,0-.18-1.9,4.15,4.15,0,0,0-.5-1.31,2.12,2.12,0,0,0-.78-.76A2,2,0,0,0,407,54Zm0,5.17a1,1,0,0,1-.7-.28,1,1,0,0,1-.3-.79,1,1,0,0,1,.3-.78,1,1,0,0,1,1.39,0,1,1,0,0,1,.3.78,1,1,0,0,1-.3.79A1,1,0,0,1,407,59.13Z"/><path class="cls-5" d="M413.95,54.07l0-1.76h1.76l0,1.76-.4,3.6h-.9Zm3.66,0,0-1.76h1.76l0,1.76-.4,3.6H418Z"/><path class="cls-5" d="M424.57,65.88a3.86,3.86,0,0,0,1.49-1.08,2.65,2.65,0,0,0,.53-1.59l-.15,0h-.15a1.36,1.36,0,0,1-.88-.29A1.09,1.09,0,0,1,425,62a1.1,1.1,0,0,1,.38-.9,1.38,1.38,0,0,1,.9-.31,1.2,1.2,0,0,1,1.08.55,2.71,2.71,0,0,1,.36,1.5,3.79,3.79,0,0,1-.74,2.38,4.54,4.54,0,0,1-2.07,1.46Z"/><path class="cls-15" d="M241.15,73.27l0-1.76h1.76l0,1.76-.4,3.6h-.9Zm3.66,0,0-1.76h1.76l0,1.76-.4,3.6h-.9Z"/><path class="cls-15" d="M252.75,73.13h-3.46V72h8.26v1.12h-3.46v9.38h-1.34Z"/><path class="cls-15" d="M259.18,78.63a4.55,4.55,0,0,1,.31-1.74,3.87,3.87,0,0,1,.84-1.29,3.54,3.54,0,0,1,1.22-.8,4.08,4.08,0,0,1,2.93,0,3.55,3.55,0,0,1,1.22.8,3.89,3.89,0,0,1,.84,1.29,4.55,4.55,0,0,1,.31,1.74,4.49,4.49,0,0,1-.31,1.72,3.79,3.79,0,0,1-.84,1.28,3.59,3.59,0,0,1-1.22.79,4.08,4.08,0,0,1-2.93,0,3.57,3.57,0,0,1-1.22-.79,3.78,3.78,0,0,1-.84-1.28A4.49,4.49,0,0,1,259.18,78.63Zm1.36,0a4,4,0,0,0,.18,1.22,2.76,2.76,0,0,0,.5.94,2.27,2.27,0,0,0,.78.61,2.49,2.49,0,0,0,2,0,2.27,2.27,0,0,0,.78-.61,2.76,2.76,0,0,0,.5-.94,3.92,3.92,0,0,0,.18-1.22,4,4,0,0,0-.18-1.22,2.85,2.85,0,0,0-.5-1,2.27,2.27,0,0,0-.78-.62,2.49,2.49,0,0,0-2,0,2.27,2.27,0,0,0-.78.62,2.85,2.85,0,0,0-.5,1A4,4,0,0,0,260.54,78.63Z"/><path class="cls-15" d="M271.12,75.8h-2.19v-1l2.24-.08.18-2.18h1.09v2.18h3.81V75.8h-3.81v3.7a3.88,3.88,0,0,0,.1.92,1.62,1.62,0,0,0,.32.66,1.35,1.35,0,0,0,.61.41,2.87,2.87,0,0,0,.94.13,4.8,4.8,0,0,0,1-.1,5.73,5.73,0,0,0,.86-.26l.27,1a7.85,7.85,0,0,1-1.15.33,6.07,6.07,0,0,1-1.28.14,3.83,3.83,0,0,1-1.42-.23,2.22,2.22,0,0,1-.92-.66,2.6,2.6,0,0,1-.5-1,5.26,5.26,0,0,1-.15-1.31Z"/><path class="cls-15" d="M278.72,80.49a2.08,2.08,0,0,1,.31-1.14,2.49,2.49,0,0,1,1-.84,6.94,6.94,0,0,1,1.75-.58,21.4,21.4,0,0,1,2.58-.35,2.86,2.86,0,0,0-.13-.75,1.64,1.64,0,0,0-.35-.62,1.73,1.73,0,0,0-.63-.42,2.55,2.55,0,0,0-1-.16,3.76,3.76,0,0,0-1.47.3,9.28,9.28,0,0,0-1.25.63l-.51-.89a6.65,6.65,0,0,1,.68-.39,7.31,7.31,0,0,1,.83-.36,6.9,6.9,0,0,1,.94-.27,5,5,0,0,1,1-.1,3,3,0,0,1,2.38.87,3.37,3.37,0,0,1,.78,2.33v4.77h-1.07l-.11-1.06h0a7.45,7.45,0,0,1-1.45.88,3.83,3.83,0,0,1-1.62.37,3.37,3.37,0,0,1-1-.15,2.64,2.64,0,0,1-.84-.43,2,2,0,0,1-.78-1.62Zm1.28-.1a1.06,1.06,0,0,0,.14.57,1.25,1.25,0,0,0,.38.38,1.69,1.69,0,0,0,.54.22,3,3,0,0,0,.65.07,3.15,3.15,0,0,0,1.32-.29,5.94,5.94,0,0,0,1.32-.86v-2a16.8,16.8,0,0,0-2.09.27,5.87,5.87,0,0,0-1.34.42,1.78,1.78,0,0,0-.71.56A1.23,1.23,0,0,0,280,80.39Z"/><path class="cls-15" d="M288.32,71.11h4V80a1.62,1.62,0,0,0,.41,1.24,1.57,1.57,0,0,0,1.11.38,3.73,3.73,0,0,0,1.47-.37l.34,1q-.53.19-1,.33a3.91,3.91,0,0,1-1.1.14,2.45,2.45,0,0,1-1.9-.7,3,3,0,0,1-.65-2.1V72.19h-2.66Z"/><path class="cls-15" d="M298,72h2.56a4.69,4.69,0,0,1,3.62,1.34,5.49,5.49,0,0,1,1.24,3.86,7.38,7.38,0,0,1-.31,2.23,4.49,4.49,0,0,1-.92,1.66,4,4,0,0,1-1.5,1,5.5,5.5,0,0,1-2.06.36H298Zm2.48,9.41a3.23,3.23,0,0,0,2.68-1.11,4.82,4.82,0,0,0,.89-3.1,4.62,4.62,0,0,0-.89-3.05,3.3,3.3,0,0,0-2.68-1.06h-1.15v8.32Z"/><path class="cls-15" d="M307.66,74.73h4.93v7.78h-1.31V75.8h-3.62Zm4.13-1.6a1.08,1.08,0,0,1-.76-.27,1,1,0,0,1-.3-.74,1,1,0,0,1,.3-.74,1.16,1.16,0,0,1,1.51,0,1,1,0,0,1,.3.74.94.94,0,0,1-.3.74A1.09,1.09,0,0,1,311.79,73.13Z"/><path class="cls-15" d="M317.61,80.62a6,6,0,0,0,1.41.77,5,5,0,0,0,1.81.29,2.8,2.8,0,0,0,1.57-.35,1,1,0,0,0,.51-.87,1,1,0,0,0-.55-.8,7.27,7.27,0,0,0-2-.71,8.66,8.66,0,0,1-1.14-.35,4.34,4.34,0,0,1-.94-.49,2.61,2.61,0,0,1-.64-.62,1.26,1.26,0,0,1-.24-.75,1.89,1.89,0,0,1,.21-.87,2,2,0,0,1,.62-.7,3.13,3.13,0,0,1,1-.46,5.42,5.42,0,0,1,1.42-.17,5.08,5.08,0,0,1,1.71.3,6,6,0,0,1,1.41.7l-.64.85a4.66,4.66,0,0,0-1.14-.59,4,4,0,0,0-1.34-.22,4.11,4.11,0,0,0-.91.09,1.86,1.86,0,0,0-.59.24.89.89,0,0,0-.32.36,1,1,0,0,0-.1.43q0,.48.66.79a9.53,9.53,0,0,0,1.71.58,7.8,7.8,0,0,1,2.34.91,1.61,1.61,0,0,1,.76,1.41,1.87,1.87,0,0,1-.22.9,2.21,2.21,0,0,1-.66.74,3.45,3.45,0,0,1-1.09.5,5.42,5.42,0,0,1-1.48.18,6,6,0,0,1-2.12-.36,7.62,7.62,0,0,1-1.69-.86Z"/><path class="cls-15" d="M326.7,78.63A4.17,4.17,0,0,1,327,76.9a3.81,3.81,0,0,1,.94-1.29,4,4,0,0,1,1.38-.8,5.15,5.15,0,0,1,1.67-.27,3.77,3.77,0,0,1,1.66.34,4.47,4.47,0,0,1,1.18.8l-.66.85a4.26,4.26,0,0,0-1-.66,2.66,2.66,0,0,0-1.13-.24,3.39,3.39,0,0,0-1.23.22,2.66,2.66,0,0,0-1,.62,2.9,2.9,0,0,0-.62,1,3.22,3.22,0,0,0-.22,1.22,3.26,3.26,0,0,0,.22,1.22,2.66,2.66,0,0,0,1.55,1.54,3.32,3.32,0,0,0,1.22.22,3.1,3.1,0,0,0,1.32-.28,5,5,0,0,0,1.1-.7l.58.85a4.82,4.82,0,0,1-1.43.9,4.39,4.39,0,0,1-1.66.32,5.06,5.06,0,0,1-1.69-.27,3.92,3.92,0,0,1-1.35-.79,3.56,3.56,0,0,1-.9-1.28A4.4,4.4,0,0,1,326.7,78.63Z"/><path class="cls-15" d="M336,78.63a4.55,4.55,0,0,1,.31-1.74,3.87,3.87,0,0,1,.84-1.29,3.54,3.54,0,0,1,1.22-.8,4.08,4.08,0,0,1,2.93,0,3.55,3.55,0,0,1,1.22.8,3.89,3.89,0,0,1,.84,1.29,4.55,4.55,0,0,1,.31,1.74,4.49,4.49,0,0,1-.31,1.72,3.79,3.79,0,0,1-.84,1.28,3.59,3.59,0,0,1-1.22.79,4.08,4.08,0,0,1-2.93,0,3.57,3.57,0,0,1-1.22-.79,3.78,3.78,0,0,1-.84-1.28A4.49,4.49,0,0,1,336,78.63Zm1.36,0a4,4,0,0,0,.18,1.22,2.76,2.76,0,0,0,.5.94,2.27,2.27,0,0,0,.78.61,2.49,2.49,0,0,0,2,0,2.27,2.27,0,0,0,.78-.61,2.76,2.76,0,0,0,.5-.94,3.92,3.92,0,0,0,.18-1.22,4,4,0,0,0-.18-1.22,2.85,2.85,0,0,0-.5-1,2.27,2.27,0,0,0-.78-.62,2.49,2.49,0,0,0-2,0,2.27,2.27,0,0,0-.78.62,2.85,2.85,0,0,0-.5,1A4,4,0,0,0,337.34,78.63Z"/><path class="cls-15" d="M352.7,82.51h-1.07l-.11-1.36h-.06a5.62,5.62,0,0,1-1.29,1.12,3,3,0,0,1-1.61.43,2.5,2.5,0,0,1-2.06-.79,3.64,3.64,0,0,1-.65-2.35V74.73h1.33v4.66a2.7,2.7,0,0,0,.41,1.64,1.63,1.63,0,0,0,1.38.54,2.22,2.22,0,0,0,1.22-.34,5.78,5.78,0,0,0,1.2-1.1V74.73h1.31Z"/><path class="cls-15" d="M355.71,74.73h1.09l.11,1.33H357A6.32,6.32,0,0,1,358.28,75a3,3,0,0,1,1.62-.43,2.48,2.48,0,0,1,2,.79,3.63,3.63,0,0,1,.65,2.34v4.83h-1.31V77.85a2.66,2.66,0,0,0-.42-1.64,1.63,1.63,0,0,0-1.38-.54,2.27,2.27,0,0,0-.65.09,2.46,2.46,0,0,0-.58.26,4.39,4.39,0,0,0-.59.44c-.2.18-.42.38-.64.62v5.42h-1.31Z"/><path class="cls-15" d="M367.12,75.8h-2.19v-1l2.24-.08.18-2.18h1.09v2.18h3.81V75.8h-3.81v3.7a3.88,3.88,0,0,0,.1.92,1.62,1.62,0,0,0,.32.66,1.35,1.35,0,0,0,.61.41,2.87,2.87,0,0,0,.94.13,4.8,4.8,0,0,0,1-.1,5.73,5.73,0,0,0,.86-.26l.27,1a7.85,7.85,0,0,1-1.15.33,6.07,6.07,0,0,1-1.28.14,3.83,3.83,0,0,1-1.42-.23,2.22,2.22,0,0,1-.92-.66,2.6,2.6,0,0,1-.5-1,5.26,5.26,0,0,1-.15-1.31Z"/><path class="cls-15" d="M375.55,73.27l0-1.76h1.76l0,1.76-.4,3.6h-.9Zm3.66,0,0-1.76h1.76l0,1.76-.4,3.6h-.9Z"/><path class="cls-16" d="M386.52,75.63a1.33,1.33,0,0,1,.38-1,1.32,1.32,0,0,1,1.84,0,1.33,1.33,0,0,1,.38,1,1.3,1.3,0,0,1-.38,1,1.34,1.34,0,0,1-1.84,0A1.3,1.3,0,0,1,386.52,75.63Zm0,5.73a1.33,1.33,0,0,1,.38-1,1.32,1.32,0,0,1,1.84,0,1.33,1.33,0,0,1,.38,1,1.3,1.3,0,0,1-.38,1,1.34,1.34,0,0,1-1.84,0A1.3,1.3,0,0,1,386.52,81.35Z"/><path class="cls-17" d="M404.35,73.27l0-1.76h1.76l0,1.76-.4,3.6h-.9Zm3.66,0,0-1.76h1.76l0,1.76-.4,3.6h-.9Z"/><path class="cls-17" d="M416.62,82.7a3.11,3.11,0,0,1-2.69-1.38,6.77,6.77,0,0,1-1-3.94,6.62,6.62,0,0,1,1-3.92,3.36,3.36,0,0,1,5.38,0,6.63,6.63,0,0,1,1,3.92,6.78,6.78,0,0,1-1,3.94A3.11,3.11,0,0,1,416.62,82.7Zm0-9.54a2,2,0,0,0-1,.24,2.09,2.09,0,0,0-.78.76,4.12,4.12,0,0,0-.5,1.31,8.88,8.88,0,0,0-.18,1.9,6,6,0,0,0,.68,3.23,2,2,0,0,0,3.5,0,6,6,0,0,0,.68-3.23,8.87,8.87,0,0,0-.18-1.9,4.12,4.12,0,0,0-.5-1.31,2.09,2.09,0,0,0-.78-.76A2,2,0,0,0,416.62,73.16Zm0,5.17a1,1,0,0,1-.7-.28,1,1,0,0,1-.3-.79,1,1,0,0,1,.3-.78,1,1,0,0,1,1.39,0,1,1,0,0,1,.3.78,1,1,0,0,1-.3.79A1,1,0,0,1,416.62,78.33Z"/><path class="cls-17" d="M423.55,73.27l0-1.76h1.76l0,1.76-.4,3.6h-.9Zm3.66,0,0-1.76h1.76l0,1.76-.4,3.6h-.9Z"/><path class="cls-16" d="M434.17,85.08A3.88,3.88,0,0,0,435.66,84a2.65,2.65,0,0,0,.53-1.59l-.15,0h-.15a1.35,1.35,0,0,1-.88-.3,1.27,1.27,0,0,1,0-1.81,1.37,1.37,0,0,1,.9-.31,1.2,1.2,0,0,1,1.08.55,2.7,2.7,0,0,1,.36,1.5,3.78,3.78,0,0,1-.74,2.38,4.55,4.55,0,0,1-2.07,1.46Z"/><path class="cls-15" d="M241.15,92.47l0-1.76h1.76l0,1.76-.4,3.6h-.9Zm3.66,0,0-1.76h1.76l0,1.76-.4,3.6h-.9Z"/><path class="cls-15" d="M252.75,92.33h-3.46V91.21h8.26v1.12h-3.46v9.37h-1.34Z"/><path class="cls-15" d="M259.18,97.83a4.54,4.54,0,0,1,.31-1.74,3.9,3.9,0,0,1,.84-1.29,3.53,3.53,0,0,1,1.22-.8,4.08,4.08,0,0,1,2.93,0,3.55,3.55,0,0,1,1.22.8,3.91,3.91,0,0,1,.84,1.29,4.54,4.54,0,0,1,.31,1.74,4.49,4.49,0,0,1-.31,1.72,3.8,3.8,0,0,1-.84,1.28,3.61,3.61,0,0,1-1.22.79,4.06,4.06,0,0,1-2.93,0,3.6,3.6,0,0,1-1.22-.79,3.79,3.79,0,0,1-.84-1.28A4.49,4.49,0,0,1,259.18,97.83Zm1.36,0a3.93,3.93,0,0,0,.18,1.21,2.77,2.77,0,0,0,.5.94,2.35,2.35,0,0,0,3.6,0,2.77,2.77,0,0,0,.5-.94,3.9,3.9,0,0,0,.18-1.21,4,4,0,0,0-.18-1.22,2.84,2.84,0,0,0-.5-1A2.25,2.25,0,0,0,264,95a2.51,2.51,0,0,0-2,0,2.25,2.25,0,0,0-.78.62,2.84,2.84,0,0,0-.5,1A4,4,0,0,0,260.54,97.83Z"/><path class="cls-15" d="M271.12,95h-2.19V94l2.24-.08.18-2.18h1.09v2.18h3.81V95h-3.81v3.7a3.88,3.88,0,0,0,.1.92,1.62,1.62,0,0,0,.32.66,1.34,1.34,0,0,0,.61.41,2.82,2.82,0,0,0,.94.14,4.93,4.93,0,0,0,1-.1,5.74,5.74,0,0,0,.86-.26l.27,1a7.85,7.85,0,0,1-1.15.33,6.2,6.2,0,0,1-1.28.14,3.83,3.83,0,0,1-1.42-.23,2.22,2.22,0,0,1-.92-.66,2.61,2.61,0,0,1-.5-1,5.26,5.26,0,0,1-.15-1.31Z"/><path class="cls-15" d="M278.72,99.69a2.08,2.08,0,0,1,.31-1.14,2.51,2.51,0,0,1,1-.84,7,7,0,0,1,1.75-.58,22.21,22.21,0,0,1,2.58-.35,2.87,2.87,0,0,0-.13-.75,1.63,1.63,0,0,0-.35-.62,1.7,1.7,0,0,0-.63-.42,2.51,2.51,0,0,0-1-.16,3.76,3.76,0,0,0-1.47.29,9.05,9.05,0,0,0-1.25.63l-.51-.9a7.47,7.47,0,0,1,.68-.39,7.67,7.67,0,0,1,.83-.36,6.9,6.9,0,0,1,.94-.26,4.82,4.82,0,0,1,1-.1,3,3,0,0,1,2.38.87,3.37,3.37,0,0,1,.78,2.33v4.77h-1.07l-.11-1.05h0a7.44,7.44,0,0,1-1.45.88,3.8,3.8,0,0,1-1.62.37,3.37,3.37,0,0,1-1-.15,2.68,2.68,0,0,1-.84-.43,2,2,0,0,1-.78-1.62Zm1.28-.1a1.06,1.06,0,0,0,.14.57,1.24,1.24,0,0,0,.38.38,1.69,1.69,0,0,0,.54.22,2.83,2.83,0,0,0,.65.07,3.15,3.15,0,0,0,1.32-.3,5.94,5.94,0,0,0,1.32-.86v-2a16.75,16.75,0,0,0-2.09.27,5.77,5.77,0,0,0-1.34.42,1.77,1.77,0,0,0-.71.56A1.22,1.22,0,0,0,280,99.59Z"/><path class="cls-15" d="M288.32,90.31h4v8.88a1.62,1.62,0,0,0,.41,1.24,1.58,1.58,0,0,0,1.11.38,3.7,3.7,0,0,0,1.47-.37l.34,1q-.53.19-1,.33a4,4,0,0,1-1.1.14,2.45,2.45,0,0,1-1.9-.71,3,3,0,0,1-.65-2.1V91.38h-2.66Z"/><path class="cls-15" d="M298.46,91.21h6.48v1.12H299.8v3.29h4.34v1.14H299.8v3.81h5.3v1.13h-6.64Z"/><path class="cls-15" d="M310.2,97.67l-2.74-3.74h1.46l1.23,1.71.44.66.47.66h.06c.15-.21.3-.44.45-.67l.43-.67,1.17-1.68h1.39l-2.77,3.86,3,3.92h-1.44L312,99.91l-.5-.71-.52-.7h-.06l-.48.7-.48.71-1.28,1.79h-1.41Z"/><path class="cls-15" d="M316.92,97.83a4.21,4.21,0,0,1,.34-1.72,4,4,0,0,1,.89-1.29,3.84,3.84,0,0,1,1.26-.81,4.15,4.15,0,0,1,3,0,3.11,3.11,0,0,1,1.11.74,3.21,3.21,0,0,1,.7,1.15,4.39,4.39,0,0,1,.24,1.49,4.47,4.47,0,0,1,0,.72h-6.08a2.83,2.83,0,0,0,.89,2,3,3,0,0,0,2.09.74,3.94,3.94,0,0,0,1.26-.19,5.44,5.44,0,0,0,1.11-.53l.46.87a7,7,0,0,1-1.31.64,4.82,4.82,0,0,1-1.68.27,4.64,4.64,0,0,1-1.62-.28,4,4,0,0,1-1.33-.8,3.72,3.72,0,0,1-.9-1.27A4.24,4.24,0,0,1,316.92,97.83Zm6.27-.59a2.54,2.54,0,0,0-.61-1.83,2.24,2.24,0,0,0-1.7-.63,2.57,2.57,0,0,0-.92.17,2.52,2.52,0,0,0-.79.48,2.76,2.76,0,0,0-.6.77,2.8,2.8,0,0,0-.31,1Z"/><path class="cls-15" d="M326.38,93.93h1l.11,1h0a3,3,0,0,1,.68-.88,1.58,1.58,0,0,1,1.06-.34q1.19,0,1.47,1.34a3.89,3.89,0,0,1,.77-1,1.55,1.55,0,0,1,1.07-.37,1.45,1.45,0,0,1,1.26.62,3,3,0,0,1,.44,1.78v5.57h-1.26V96.25q0-1.38-.85-1.38a1,1,0,0,0-.72.3,3.35,3.35,0,0,0-.61.9v5.63h-1.06V96.25q0-1.38-.88-1.38a.94.94,0,0,0-.7.3,3.65,3.65,0,0,0-.59.9v5.63h-1.26Z"/><path class="cls-15" d="M337.82,102.36V105h-1.31V93.93h1.09l.11,1h0a4.77,4.77,0,0,1,1.26-.85,3.32,3.32,0,0,1,1.43-.34,3.25,3.25,0,0,1,1.38.28,2.74,2.74,0,0,1,1,.8,3.59,3.59,0,0,1,.62,1.25,6,6,0,0,1,.21,1.64,5,5,0,0,1-.29,1.77,4.05,4.05,0,0,1-.78,1.32,3.24,3.24,0,0,1-1.13.82,3.31,3.31,0,0,1-1.34.28,3.08,3.08,0,0,1-1.18-.27,4,4,0,0,1-1.16-.74Zm0-2.48a3.59,3.59,0,0,0,1.12.71,2.83,2.83,0,0,0,1,.21,2.14,2.14,0,0,0,1.73-.81,3.49,3.49,0,0,0,.67-2.27,5,5,0,0,0-.13-1.17,2.67,2.67,0,0,0-.39-.9,1.81,1.81,0,0,0-.68-.58,2.2,2.2,0,0,0-1-.21,2.56,2.56,0,0,0-1.1.28,4.45,4.45,0,0,0-1.19.89Z"/><path class="cls-15" d="M347.92,95h-2.19V94l2.24-.08.18-2.18h1.09v2.18H353V95h-3.81v3.7a3.88,3.88,0,0,0,.1.92,1.62,1.62,0,0,0,.32.66,1.34,1.34,0,0,0,.61.41,2.82,2.82,0,0,0,.94.14,4.93,4.93,0,0,0,1-.1,5.74,5.74,0,0,0,.86-.26l.27,1a7.85,7.85,0,0,1-1.15.33,6.2,6.2,0,0,1-1.28.14,3.83,3.83,0,0,1-1.42-.23,2.22,2.22,0,0,1-.92-.66,2.61,2.61,0,0,1-.5-1,5.26,5.26,0,0,1-.15-1.31Z"/><path class="cls-15" d="M355.66,93.93h4.93v7.78h-1.31V95h-3.62Zm4.13-1.6a1.08,1.08,0,0,1-.76-.27,1,1,0,0,1-.3-.73,1,1,0,0,1,.3-.74,1.16,1.16,0,0,1,1.51,0,1,1,0,0,1,.3.74.93.93,0,0,1-.3.73A1.09,1.09,0,0,1,359.79,92.33Z"/><path class="cls-15" d="M364.78,97.83a4.54,4.54,0,0,1,.31-1.74,3.9,3.9,0,0,1,.84-1.29,3.53,3.53,0,0,1,1.22-.8,4.08,4.08,0,0,1,2.93,0,3.55,3.55,0,0,1,1.22.8,3.91,3.91,0,0,1,.84,1.29,4.54,4.54,0,0,1,.31,1.74,4.49,4.49,0,0,1-.31,1.72,3.8,3.8,0,0,1-.84,1.28,3.61,3.61,0,0,1-1.22.79,4.06,4.06,0,0,1-2.93,0,3.6,3.6,0,0,1-1.22-.79,3.79,3.79,0,0,1-.84-1.28A4.49,4.49,0,0,1,364.78,97.83Zm1.36,0a3.93,3.93,0,0,0,.18,1.21,2.77,2.77,0,0,0,.5.94,2.35,2.35,0,0,0,3.6,0,2.77,2.77,0,0,0,.5-.94,3.9,3.9,0,0,0,.18-1.21,4,4,0,0,0-.18-1.22,2.84,2.84,0,0,0-.5-1,2.25,2.25,0,0,0-.78-.62,2.51,2.51,0,0,0-2,0,2.25,2.25,0,0,0-.78.62,2.84,2.84,0,0,0-.5,1A4,4,0,0,0,366.14,97.83Z"/><path class="cls-15" d="M374.91,93.93H376l.11,1.33h.06a6.2,6.2,0,0,1,1.31-1.09,3,3,0,0,1,1.62-.43,2.48,2.48,0,0,1,2,.79,3.63,3.63,0,0,1,.65,2.34v4.83h-1.31V97a2.66,2.66,0,0,0-.42-1.64,1.64,1.64,0,0,0-1.38-.54A2.27,2.27,0,0,0,378,95a2.46,2.46,0,0,0-.58.26,4.59,4.59,0,0,0-.59.44q-.3.26-.64.62v5.42h-1.31Z"/><path class="cls-15" d="M385.15,92.47l0-1.76h1.76l0,1.76-.4,3.6h-.9Zm3.66,0,0-1.76h1.76l0,1.76-.4,3.6h-.9Z"/><path class="cls-16" d="M396.12,94.83a1.33,1.33,0,0,1,.38-1,1.31,1.31,0,0,1,1.84,0,1.33,1.33,0,0,1,.38,1,1.3,1.3,0,0,1-.38,1,1.33,1.33,0,0,1-1.84,0A1.3,1.3,0,0,1,396.12,94.83Zm0,5.73a1.33,1.33,0,0,1,.38-1,1.31,1.31,0,0,1,1.84,0,1.33,1.33,0,0,1,.38,1,1.3,1.3,0,0,1-.38,1,1.33,1.33,0,0,1-1.84,0A1.3,1.3,0,0,1,396.12,100.55Z"/><path class="cls-17" d="M413.95,92.47l0-1.76h1.76l0,1.76-.4,3.6h-.9Zm3.66,0,0-1.76h1.76l0,1.76-.4,3.6H418Z"/><path class="cls-17" d="M426.22,101.9a3.11,3.11,0,0,1-2.69-1.38,6.78,6.78,0,0,1-1-3.94,6.61,6.61,0,0,1,1-3.92,3.36,3.36,0,0,1,5.38,0,6.62,6.62,0,0,1,1,3.92,6.79,6.79,0,0,1-1,3.94A3.12,3.12,0,0,1,426.22,101.9Zm0-9.54a2,2,0,0,0-1,.24,2.12,2.12,0,0,0-.78.76,4.15,4.15,0,0,0-.5,1.31,8.86,8.86,0,0,0-.18,1.9,6,6,0,0,0,.68,3.23,2,2,0,0,0,3.5,0,6,6,0,0,0,.68-3.23,8.86,8.86,0,0,0-.18-1.9,4.15,4.15,0,0,0-.5-1.31,2.12,2.12,0,0,0-.78-.76A2,2,0,0,0,426.22,92.36Zm0,5.17a1,1,0,0,1-.7-.28,1,1,0,0,1-.3-.79,1,1,0,0,1,.3-.78,1,1,0,0,1,1.39,0,1,1,0,0,1,.3.78,1,1,0,0,1-.3.79A1,1,0,0,1,426.22,97.53Z"/><path class="cls-17" d="M433.15,92.47l0-1.76h1.76l0,1.76-.4,3.6h-.9Zm3.66,0,0-1.76h1.76l0,1.76-.4,3.6h-.9Z"/><path class="cls-16" d="M443.77,104.28a3.86,3.86,0,0,0,1.49-1.08,2.65,2.65,0,0,0,.53-1.59l-.15,0h-.15a1.36,1.36,0,0,1-.88-.29,1.09,1.09,0,0,1-.37-.9,1.1,1.1,0,0,1,.38-.9,1.38,1.38,0,0,1,.9-.31,1.2,1.2,0,0,1,1.08.55,2.71,2.71,0,0,1,.36,1.5,3.79,3.79,0,0,1-.74,2.38,4.54,4.54,0,0,1-2.07,1.46Z"/><path class="cls-15" d="M241.15,111.67l0-1.76h1.76l0,1.76-.4,3.6h-.9Zm3.66,0,0-1.76h1.76l0,1.76-.4,3.6h-.9Z"/><path class="cls-15" d="M252.75,111.53h-3.46v-1.12h8.26v1.12h-3.46v9.38h-1.34Z"/><path class="cls-15" d="M259.18,117a4.54,4.54,0,0,1,.31-1.74,3.9,3.9,0,0,1,.84-1.29,3.53,3.53,0,0,1,1.22-.8,4.08,4.08,0,0,1,2.93,0,3.55,3.55,0,0,1,1.22.8,3.91,3.91,0,0,1,.84,1.29,4.54,4.54,0,0,1,.31,1.74,4.49,4.49,0,0,1-.31,1.72,3.8,3.8,0,0,1-.84,1.28,3.61,3.61,0,0,1-1.22.79,4.06,4.06,0,0,1-2.93,0,3.6,3.6,0,0,1-1.22-.79,3.79,3.79,0,0,1-.84-1.28A4.49,4.49,0,0,1,259.18,117Zm1.36,0a3.93,3.93,0,0,0,.18,1.21,2.77,2.77,0,0,0,.5.94,2.35,2.35,0,0,0,3.6,0,2.77,2.77,0,0,0,.5-.94,3.9,3.9,0,0,0,.18-1.21,4,4,0,0,0-.18-1.22,2.84,2.84,0,0,0-.5-1,2.25,2.25,0,0,0-.78-.62,2.51,2.51,0,0,0-2,0,2.25,2.25,0,0,0-.78.62,2.84,2.84,0,0,0-.5,1A4,4,0,0,0,260.54,117Z"/><path class="cls-15" d="M271.12,114.2h-2.19v-1l2.24-.08.18-2.18h1.09v2.18h3.81v1.07h-3.81v3.7a3.88,3.88,0,0,0,.1.92,1.62,1.62,0,0,0,.32.66,1.34,1.34,0,0,0,.61.41,2.82,2.82,0,0,0,.94.14,4.93,4.93,0,0,0,1-.1,5.74,5.74,0,0,0,.86-.26l.27,1a7.85,7.85,0,0,1-1.15.33,6.2,6.2,0,0,1-1.28.14,3.83,3.83,0,0,1-1.42-.23,2.22,2.22,0,0,1-.92-.66,2.61,2.61,0,0,1-.5-1,5.26,5.26,0,0,1-.15-1.31Z"/><path class="cls-15" d="M278.72,118.89a2.08,2.08,0,0,1,.31-1.14,2.51,2.51,0,0,1,1-.84,7,7,0,0,1,1.75-.58,22.21,22.21,0,0,1,2.58-.35,2.87,2.87,0,0,0-.13-.75,1.63,1.63,0,0,0-.35-.62,1.7,1.7,0,0,0-.63-.42,2.51,2.51,0,0,0-1-.16,3.76,3.76,0,0,0-1.47.29,9.05,9.05,0,0,0-1.25.63l-.51-.9a7.47,7.47,0,0,1,.68-.39,7.67,7.67,0,0,1,.83-.36,6.9,6.9,0,0,1,.94-.26,4.82,4.82,0,0,1,1-.1,3,3,0,0,1,2.38.87,3.37,3.37,0,0,1,.78,2.33v4.77h-1.07l-.11-1.05h0a7.44,7.44,0,0,1-1.45.88,3.8,3.8,0,0,1-1.62.37,3.37,3.37,0,0,1-1-.15,2.68,2.68,0,0,1-.84-.43,2,2,0,0,1-.78-1.62Zm1.28-.1a1.06,1.06,0,0,0,.14.57,1.24,1.24,0,0,0,.38.38,1.69,1.69,0,0,0,.54.22,2.83,2.83,0,0,0,.65.07,3.15,3.15,0,0,0,1.32-.3,5.94,5.94,0,0,0,1.32-.86v-2a16.75,16.75,0,0,0-2.09.27,5.77,5.77,0,0,0-1.34.42,1.77,1.77,0,0,0-.71.56A1.22,1.22,0,0,0,280,118.79Z"/><path class="cls-15" d="M288.32,109.51h4v8.88a1.62,1.62,0,0,0,.41,1.24,1.58,1.58,0,0,0,1.11.38,3.7,3.7,0,0,0,1.47-.37l.34,1q-.53.19-1,.33a4,4,0,0,1-1.1.14,2.45,2.45,0,0,1-1.9-.71,3,3,0,0,1-.65-2.1v-7.71h-2.66Z"/><path class="cls-15" d="M300.75,111.53h-3.46v-1.12h8.26v1.12h-3.46v9.38h-1.34Z"/><path class="cls-15" d="M307.52,118.89a2.08,2.08,0,0,1,.31-1.14,2.51,2.51,0,0,1,1-.84,7,7,0,0,1,1.75-.58,22.21,22.21,0,0,1,2.58-.35,2.87,2.87,0,0,0-.13-.75,1.63,1.63,0,0,0-.35-.62,1.7,1.7,0,0,0-.63-.42,2.51,2.51,0,0,0-1-.16,3.76,3.76,0,0,0-1.47.29,9.05,9.05,0,0,0-1.25.63l-.51-.9a7.47,7.47,0,0,1,.68-.39,7.67,7.67,0,0,1,.83-.36,6.9,6.9,0,0,1,.94-.26,4.82,4.82,0,0,1,1-.1,3,3,0,0,1,2.38.87,3.37,3.37,0,0,1,.78,2.33v4.77h-1.07l-.11-1.05h0a7.44,7.44,0,0,1-1.45.88,3.8,3.8,0,0,1-1.62.37,3.37,3.37,0,0,1-1-.15,2.68,2.68,0,0,1-.84-.43,2,2,0,0,1-.78-1.62Zm1.28-.1a1.06,1.06,0,0,0,.14.57,1.24,1.24,0,0,0,.38.38,1.69,1.69,0,0,0,.54.22,2.83,2.83,0,0,0,.65.07,3.15,3.15,0,0,0,1.32-.3,5.94,5.94,0,0,0,1.32-.86v-2a16.75,16.75,0,0,0-2.09.27,5.77,5.77,0,0,0-1.34.42,1.77,1.77,0,0,0-.71.56A1.22,1.22,0,0,0,308.8,118.79Z"/><path class="cls-15" d="M319.81,116.87l-2.74-3.74h1.46l1.23,1.71.44.66.47.66h.06c.15-.21.3-.44.45-.67l.43-.67,1.17-1.68h1.39L321.41,117l3,3.92h-1.44l-1.36-1.79-.5-.71-.52-.7h-.06l-.48.7-.48.71-1.28,1.79h-1.41Z"/><path class="cls-15" d="M326.72,118.89a2.08,2.08,0,0,1,.31-1.14,2.51,2.51,0,0,1,1-.84,7,7,0,0,1,1.75-.58,22.21,22.21,0,0,1,2.58-.35,2.87,2.87,0,0,0-.13-.75,1.63,1.63,0,0,0-.35-.62,1.7,1.7,0,0,0-.63-.42,2.51,2.51,0,0,0-1-.16,3.76,3.76,0,0,0-1.47.29,9.05,9.05,0,0,0-1.25.63l-.51-.9a7.47,7.47,0,0,1,.68-.39,7.67,7.67,0,0,1,.83-.36,6.9,6.9,0,0,1,.94-.26,4.82,4.82,0,0,1,1-.1,3,3,0,0,1,2.38.87,3.37,3.37,0,0,1,.78,2.33v4.77h-1.07l-.11-1.05h0a7.44,7.44,0,0,1-1.45.88,3.8,3.8,0,0,1-1.62.37,3.37,3.37,0,0,1-1-.15,2.68,2.68,0,0,1-.84-.43,2,2,0,0,1-.78-1.62Zm1.28-.1a1.06,1.06,0,0,0,.14.57,1.24,1.24,0,0,0,.38.38,1.69,1.69,0,0,0,.54.22,2.83,2.83,0,0,0,.65.07,3.15,3.15,0,0,0,1.32-.3,5.94,5.94,0,0,0,1.32-.86v-2a16.75,16.75,0,0,0-2.09.27,5.77,5.77,0,0,0-1.34.42,1.77,1.77,0,0,0-.71.56A1.22,1.22,0,0,0,328,118.79Z"/><path class="cls-15" d="M336.51,109.51h1.31v3.1l0,1.5a4.5,4.5,0,0,1,1.26-.87,3.37,3.37,0,0,1,2.78,0,2.72,2.72,0,0,1,1,.8,3.59,3.59,0,0,1,.62,1.25,5.89,5.89,0,0,1,.21,1.62,5.11,5.11,0,0,1-.29,1.78,4,4,0,0,1-.78,1.33,3.29,3.29,0,0,1-2.46,1.11,3,3,0,0,1-1.21-.28,4.51,4.51,0,0,1-1.21-.78h0l-.11.86h-1.06Zm1.31,9.57a3.55,3.55,0,0,0,1.13.71,2.93,2.93,0,0,0,1,.21,2.1,2.1,0,0,0,.94-.21,2.3,2.3,0,0,0,.75-.61,2.8,2.8,0,0,0,.5-1,4.41,4.41,0,0,0,.18-1.3,5,5,0,0,0-.13-1.17,2.67,2.67,0,0,0-.39-.9,1.81,1.81,0,0,0-.68-.58,2.2,2.2,0,0,0-1-.21,2.56,2.56,0,0,0-1.1.28,4.45,4.45,0,0,0-1.19.89Z"/><path class="cls-15" d="M345.92,109.51h4v8.88a1.62,1.62,0,0,0,.41,1.24,1.58,1.58,0,0,0,1.11.38,3.7,3.7,0,0,0,1.47-.37l.34,1q-.53.19-1,.33a4,4,0,0,1-1.1.14,2.45,2.45,0,0,1-1.9-.71,3,3,0,0,1-.65-2.1v-7.71h-2.66Z"/><path class="cls-15" d="M355.32,117a4.21,4.21,0,0,1,.34-1.72,4,4,0,0,1,.89-1.29,3.84,3.84,0,0,1,1.26-.81,4.15,4.15,0,0,1,3,0,3.11,3.11,0,0,1,1.11.74,3.21,3.21,0,0,1,.7,1.15,4.39,4.39,0,0,1,.24,1.49,4.47,4.47,0,0,1,0,.72h-6.08a2.83,2.83,0,0,0,.89,2,3,3,0,0,0,2.09.74,3.94,3.94,0,0,0,1.26-.19,5.44,5.44,0,0,0,1.11-.53l.46.87a7,7,0,0,1-1.31.64,4.82,4.82,0,0,1-1.68.27,4.64,4.64,0,0,1-1.62-.28,4,4,0,0,1-1.33-.8,3.72,3.72,0,0,1-.9-1.27A4.24,4.24,0,0,1,355.32,117Zm6.27-.59a2.54,2.54,0,0,0-.61-1.83,2.24,2.24,0,0,0-1.7-.63,2.57,2.57,0,0,0-.92.17,2.52,2.52,0,0,0-.79.48,2.76,2.76,0,0,0-.6.77,2.8,2.8,0,0,0-.31,1Z"/><path class="cls-15" d="M365.95,111.67l0-1.76h1.76l0,1.76-.4,3.6h-.9Zm3.66,0,0-1.76h1.76l0,1.76-.4,3.6H370Z"/><path class="cls-16" d="M376.92,114a1.33,1.33,0,0,1,.38-1,1.31,1.31,0,0,1,1.84,0,1.33,1.33,0,0,1,.38,1,1.3,1.3,0,0,1-.38,1,1.33,1.33,0,0,1-1.84,0A1.3,1.3,0,0,1,376.92,114Zm0,5.73a1.33,1.33,0,0,1,.38-1,1.31,1.31,0,0,1,1.84,0,1.33,1.33,0,0,1,.38,1,1.3,1.3,0,0,1-.38,1,1.33,1.33,0,0,1-1.84,0A1.3,1.3,0,0,1,376.92,119.75Z"/><path class="cls-17" d="M394.75,111.67l0-1.76h1.76l0,1.76-.4,3.6h-.9Zm3.66,0,0-1.76h1.76l0,1.76-.4,3.6h-.9Z"/><path class="cls-17" d="M410.67,119.82v1.09h-6.88v-1.09h2.9V112.3h-2.18v-.85a10.7,10.7,0,0,0,1.42-.31,6.07,6.07,0,0,0,1.09-.44h1v9.12Z"/><path class="cls-17" d="M416.62,121.1a3.11,3.11,0,0,1-2.69-1.38,6.78,6.78,0,0,1-1-3.94,6.61,6.61,0,0,1,1-3.92,3.36,3.36,0,0,1,5.38,0,6.62,6.62,0,0,1,1,3.92,6.79,6.79,0,0,1-1,3.94A3.12,3.12,0,0,1,416.62,121.1Zm0-9.54a2,2,0,0,0-1,.24,2.12,2.12,0,0,0-.78.76,4.15,4.15,0,0,0-.5,1.31,8.86,8.86,0,0,0-.18,1.9,6,6,0,0,0,.68,3.23,2,2,0,0,0,3.5,0,6,6,0,0,0,.68-3.23,8.86,8.86,0,0,0-.18-1.9,4.15,4.15,0,0,0-.5-1.31,2.12,2.12,0,0,0-.78-.76A2,2,0,0,0,416.62,111.56Zm0,5.17a1,1,0,0,1-.7-.28,1,1,0,0,1-.3-.79,1,1,0,0,1,.3-.78,1,1,0,0,1,1.39,0,1,1,0,0,1,.3.78,1,1,0,0,1-.3.79A1,1,0,0,1,416.62,116.73Z"/><path class="cls-17" d="M423.55,111.67l0-1.76h1.76l0,1.76-.4,3.6h-.9Zm3.66,0,0-1.76h1.76l0,1.76-.4,3.6h-.9Z"/><path class="cls-16" d="M434.17,123.48a3.86,3.86,0,0,0,1.49-1.08,2.65,2.65,0,0,0,.53-1.59l-.15,0h-.15a1.36,1.36,0,0,1-.88-.29,1.09,1.09,0,0,1-.37-.9,1.1,1.1,0,0,1,.38-.9,1.38,1.38,0,0,1,.9-.31A1.2,1.2,0,0,1,437,119a2.71,2.71,0,0,1,.36,1.5,3.79,3.79,0,0,1-.74,2.38,4.54,4.54,0,0,1-2.07,1.46Z"/><path class="cls-15" d="M241.15,130.87l0-1.76h1.76l0,1.76-.4,3.6h-.9Zm3.66,0,0-1.76h1.76l0,1.76-.4,3.6h-.9Z"/><path class="cls-15" d="M252.75,130.73h-3.46v-1.12h8.26v1.12h-3.46v9.38h-1.34Z"/><path class="cls-15" d="M259.18,136.23a4.55,4.55,0,0,1,.31-1.74,3.87,3.87,0,0,1,.84-1.29,3.54,3.54,0,0,1,1.22-.8,4.08,4.08,0,0,1,2.93,0,3.55,3.55,0,0,1,1.22.8,3.89,3.89,0,0,1,.84,1.29,4.55,4.55,0,0,1,.31,1.74,4.49,4.49,0,0,1-.31,1.72,3.79,3.79,0,0,1-.84,1.28,3.59,3.59,0,0,1-1.22.79,4.08,4.08,0,0,1-2.93,0,3.57,3.57,0,0,1-1.22-.79,3.78,3.78,0,0,1-.84-1.28A4.49,4.49,0,0,1,259.18,136.23Zm1.36,0a4,4,0,0,0,.18,1.22,2.76,2.76,0,0,0,.5.94,2.27,2.27,0,0,0,.78.61,2.49,2.49,0,0,0,2,0,2.27,2.27,0,0,0,.78-.61,2.76,2.76,0,0,0,.5-.94,3.92,3.92,0,0,0,.18-1.22,4,4,0,0,0-.18-1.22,2.85,2.85,0,0,0-.5-1,2.27,2.27,0,0,0-.78-.62,2.49,2.49,0,0,0-2,0,2.27,2.27,0,0,0-.78.62,2.85,2.85,0,0,0-.5,1A4,4,0,0,0,260.54,136.23Z"/><path class="cls-15" d="M271.12,133.4h-2.19v-1l2.24-.08.18-2.18h1.09v2.18h3.81v1.07h-3.81v3.7a3.88,3.88,0,0,0,.1.92,1.62,1.62,0,0,0,.32.66,1.35,1.35,0,0,0,.61.41,2.87,2.87,0,0,0,.94.13,4.8,4.8,0,0,0,1-.1,5.73,5.73,0,0,0,.86-.26l.27,1a7.85,7.85,0,0,1-1.15.33,6.07,6.07,0,0,1-1.28.14,3.83,3.83,0,0,1-1.42-.23,2.22,2.22,0,0,1-.92-.66,2.6,2.6,0,0,1-.5-1,5.26,5.26,0,0,1-.15-1.31Z"/><path class="cls-15" d="M278.72,138.09a2.08,2.08,0,0,1,.31-1.14,2.49,2.49,0,0,1,1-.84,6.94,6.94,0,0,1,1.75-.58,21.4,21.4,0,0,1,2.58-.35,2.86,2.86,0,0,0-.13-.75,1.64,1.64,0,0,0-.35-.62,1.73,1.73,0,0,0-.63-.42,2.55,2.55,0,0,0-1-.16,3.76,3.76,0,0,0-1.47.3,9.28,9.28,0,0,0-1.25.63l-.51-.89a6.65,6.65,0,0,1,.68-.39,7.31,7.31,0,0,1,.83-.36,6.9,6.9,0,0,1,.94-.27,5,5,0,0,1,1-.1,3,3,0,0,1,2.38.87,3.37,3.37,0,0,1,.78,2.33v4.77h-1.07l-.11-1.06h0a7.45,7.45,0,0,1-1.45.88,3.83,3.83,0,0,1-1.62.37,3.37,3.37,0,0,1-1-.15,2.64,2.64,0,0,1-.84-.43,2,2,0,0,1-.78-1.62ZM280,138a1.06,1.06,0,0,0,.14.57,1.25,1.25,0,0,0,.38.38,1.69,1.69,0,0,0,.54.22,3,3,0,0,0,.65.07,3.15,3.15,0,0,0,1.32-.29,5.94,5.94,0,0,0,1.32-.86v-2a16.8,16.8,0,0,0-2.09.27,5.87,5.87,0,0,0-1.34.42,1.78,1.78,0,0,0-.71.56A1.23,1.23,0,0,0,280,138Z"/><path class="cls-15" d="M288.32,128.71h4v8.88a1.62,1.62,0,0,0,.41,1.24,1.57,1.57,0,0,0,1.11.38,3.73,3.73,0,0,0,1.47-.37l.34,1q-.53.19-1,.33a3.91,3.91,0,0,1-1.1.14,2.45,2.45,0,0,1-1.9-.7,3,3,0,0,1-.65-2.1v-7.71h-2.66Z"/><path class="cls-15" d="M300.75,130.73h-3.46v-1.12h8.26v1.12h-3.46v9.38h-1.34Z"/><path class="cls-15" d="M307.52,138.09a2.08,2.08,0,0,1,.31-1.14,2.49,2.49,0,0,1,1-.84,6.94,6.94,0,0,1,1.75-.58,21.4,21.4,0,0,1,2.58-.35,2.86,2.86,0,0,0-.13-.75,1.64,1.64,0,0,0-.35-.62,1.73,1.73,0,0,0-.63-.42,2.55,2.55,0,0,0-1-.16,3.76,3.76,0,0,0-1.47.3,9.28,9.28,0,0,0-1.25.63l-.51-.89a6.65,6.65,0,0,1,.68-.39,7.31,7.31,0,0,1,.83-.36,6.9,6.9,0,0,1,.94-.27,5,5,0,0,1,1-.1,3,3,0,0,1,2.38.87,3.37,3.37,0,0,1,.78,2.33v4.77h-1.07l-.11-1.06h0a7.45,7.45,0,0,1-1.45.88,3.83,3.83,0,0,1-1.62.37,3.37,3.37,0,0,1-1-.15,2.64,2.64,0,0,1-.84-.43,2,2,0,0,1-.78-1.62Zm1.28-.1a1.06,1.06,0,0,0,.14.57,1.25,1.25,0,0,0,.38.38,1.69,1.69,0,0,0,.54.22,3,3,0,0,0,.65.07,3.15,3.15,0,0,0,1.32-.29,5.94,5.94,0,0,0,1.32-.86v-2a16.8,16.8,0,0,0-2.09.27,5.87,5.87,0,0,0-1.34.42,1.78,1.78,0,0,0-.71.56A1.23,1.23,0,0,0,308.8,138Z"/><path class="cls-15" d="M319.81,136.07l-2.74-3.74h1.46l1.23,1.71.44.66.47.66h.06c.15-.21.3-.44.45-.67l.43-.67,1.17-1.68h1.39l-2.77,3.86,3,3.92h-1.44l-1.36-1.79-.5-.7-.52-.71h-.06l-.48.7-.48.71-1.28,1.79h-1.41Z"/><path class="cls-15" d="M327.55,130.87l0-1.76h1.76l0,1.76-.4,3.6h-.9Zm3.66,0,0-1.76h1.76l0,1.76-.4,3.6h-.9Z"/><path class="cls-16" d="M338.52,133.22a1.33,1.33,0,0,1,.38-1,1.32,1.32,0,0,1,1.84,0,1.33,1.33,0,0,1,.38,1,1.3,1.3,0,0,1-.38,1,1.34,1.34,0,0,1-1.84,0A1.3,1.3,0,0,1,338.52,133.22Zm0,5.73a1.33,1.33,0,0,1,.38-1,1.32,1.32,0,0,1,1.84,0,1.33,1.33,0,0,1,.38,1,1.3,1.3,0,0,1-.38,1,1.34,1.34,0,0,1-1.84,0A1.3,1.3,0,0,1,338.52,139Z"/><path class="cls-17" d="M356.35,130.87l0-1.76h1.76l0,1.76-.4,3.6h-.9Zm3.66,0,0-1.76h1.76l0,1.76-.4,3.6h-.9Z"/><path class="cls-17" d="M368.62,140.3a3.11,3.11,0,0,1-2.69-1.38,6.77,6.77,0,0,1-1-3.94,6.62,6.62,0,0,1,1-3.92,3.36,3.36,0,0,1,5.38,0,6.63,6.63,0,0,1,1,3.92,6.78,6.78,0,0,1-1,3.94A3.11,3.11,0,0,1,368.62,140.3Zm0-9.54a2,2,0,0,0-1,.24,2.09,2.09,0,0,0-.78.76,4.12,4.12,0,0,0-.5,1.31,8.88,8.88,0,0,0-.18,1.9,6,6,0,0,0,.68,3.23,2,2,0,0,0,3.5,0,6,6,0,0,0,.68-3.23,8.87,8.87,0,0,0-.18-1.9,4.12,4.12,0,0,0-.5-1.31,2.09,2.09,0,0,0-.78-.76A2,2,0,0,0,368.62,130.76Zm0,5.17a1,1,0,0,1-.7-.28,1,1,0,0,1-.3-.79,1,1,0,0,1,.3-.78,1,1,0,0,1,1.39,0,1,1,0,0,1,.3.78,1,1,0,0,1-.3.79A1,1,0,0,1,368.62,135.93Z"/><path class="cls-17" d="M376.92,139a1.33,1.33,0,0,1,.38-1,1.32,1.32,0,0,1,1.84,0,1.33,1.33,0,0,1,.38,1,1.3,1.3,0,0,1-.38,1,1.34,1.34,0,0,1-1.84,0A1.3,1.3,0,0,1,376.92,139Z"/><path class="cls-17" d="M384.11,137.5a2.23,2.23,0,0,1,.19-.94,3,3,0,0,1,.5-.75,3.34,3.34,0,0,1,.7-.58,6.76,6.76,0,0,1,.81-.44v-.06a4.18,4.18,0,0,1-1.1-1,2.21,2.21,0,0,1-.46-1.4,2.42,2.42,0,0,1,.23-1.07,2.37,2.37,0,0,1,.66-.82,3.15,3.15,0,0,1,1-.54,4,4,0,0,1,1.26-.19,4.13,4.13,0,0,1,1.34.2,2.92,2.92,0,0,1,1,.56,2.39,2.39,0,0,1,.62.86,2.77,2.77,0,0,1,.22,1.1,2.27,2.27,0,0,1-.46,1.35,4.57,4.57,0,0,1-1.1,1.08v.06a8,8,0,0,1,.78.45,3.26,3.26,0,0,1,.64.54,2.23,2.23,0,0,1,.42.71,2.71,2.71,0,0,1,.15,1,2.36,2.36,0,0,1-.25,1.07,2.56,2.56,0,0,1-.71.87,3.46,3.46,0,0,1-1.14.58,5.4,5.4,0,0,1-1.56.21,5.51,5.51,0,0,1-1.56-.21,3.53,3.53,0,0,1-1.18-.58,2.71,2.71,0,0,1-.74-.89A2.41,2.41,0,0,1,384.11,137.5Zm1.2-.13a1.71,1.71,0,0,0,.7,1.41,3,3,0,0,0,1.88.54,2.72,2.72,0,0,0,1.76-.5,1.59,1.59,0,0,0,.61-1.29,1.53,1.53,0,0,0-.25-.89,2.12,2.12,0,0,0-.68-.62,5.47,5.47,0,0,0-1-.46l-1.26-.42a5.16,5.16,0,0,0-1.25.94A1.8,1.8,0,0,0,385.31,137.37Zm3.34-2.83a2.58,2.58,0,0,0,1.28-2,1.73,1.73,0,0,0-.53-1.29,2.46,2.46,0,0,0-2.93-.07,1.49,1.49,0,0,0-.53,1.2,1.45,1.45,0,0,0,.21.79,2.06,2.06,0,0,0,.58.58,4.43,4.43,0,0,0,.86.46Q388.08,134.36,388.65,134.54Z"/><path class="cls-17" d="M396.51,137.46a12.71,12.71,0,0,1,.61-2.26,12.11,12.11,0,0,1,1-2.08,18.6,18.6,0,0,1,1.5-2.08h-5.89V129.9h7.39v.82a17,17,0,0,0-1.66,2.21,11.28,11.28,0,0,0-1.63,4.46,24.67,24.67,0,0,0-.22,2.72h-1.38A20.68,20.68,0,0,1,396.51,137.46Z"/><path class="cls-17" d="M404.35,130.87l0-1.76h1.76l0,1.76-.4,3.6h-.9Zm3.66,0,0-1.76h1.76l0,1.76-.4,3.6h-.9Z"/><path class="cls-16" d="M415,142.68a3.88,3.88,0,0,0,1.49-1.08A2.65,2.65,0,0,0,417,140l-.15,0h-.15a1.35,1.35,0,0,1-.88-.3,1.27,1.27,0,0,1,0-1.81,1.37,1.37,0,0,1,.9-.31,1.2,1.2,0,0,1,1.08.55,2.7,2.7,0,0,1,.36,1.5,3.78,3.78,0,0,1-.74,2.38,4.55,4.55,0,0,1-2.07,1.46Z"/><path class="cls-15" d="M241.15,150.07l0-1.76h1.76l0,1.76-.4,3.6h-.9Zm3.66,0,0-1.76h1.76l0,1.76-.4,3.6h-.9Z"/><path class="cls-15" d="M252.75,149.93h-3.46v-1.12h8.26v1.12h-3.46v9.38h-1.34Z"/><path class="cls-15" d="M259.18,155.43a4.54,4.54,0,0,1,.31-1.74,3.9,3.9,0,0,1,.84-1.29,3.53,3.53,0,0,1,1.22-.8,4.08,4.08,0,0,1,2.93,0,3.55,3.55,0,0,1,1.22.8,3.91,3.91,0,0,1,.84,1.29,4.54,4.54,0,0,1,.31,1.74,4.49,4.49,0,0,1-.31,1.72,3.8,3.8,0,0,1-.84,1.28,3.61,3.61,0,0,1-1.22.79,4.06,4.06,0,0,1-2.93,0,3.6,3.6,0,0,1-1.22-.79,3.79,3.79,0,0,1-.84-1.28A4.49,4.49,0,0,1,259.18,155.43Zm1.36,0a3.93,3.93,0,0,0,.18,1.21,2.77,2.77,0,0,0,.5.94,2.35,2.35,0,0,0,3.6,0,2.77,2.77,0,0,0,.5-.94,3.9,3.9,0,0,0,.18-1.21,4,4,0,0,0-.18-1.22,2.84,2.84,0,0,0-.5-1,2.25,2.25,0,0,0-.78-.62,2.51,2.51,0,0,0-2,0,2.25,2.25,0,0,0-.78.62,2.84,2.84,0,0,0-.5,1A4,4,0,0,0,260.54,155.43Z"/><path class="cls-15" d="M271.12,152.6h-2.19v-1l2.24-.08.18-2.18h1.09v2.18h3.81v1.07h-3.81v3.7a3.88,3.88,0,0,0,.1.92,1.62,1.62,0,0,0,.32.66,1.34,1.34,0,0,0,.61.41,2.82,2.82,0,0,0,.94.14,4.93,4.93,0,0,0,1-.1,5.74,5.74,0,0,0,.86-.26l.27,1a7.85,7.85,0,0,1-1.15.33,6.2,6.2,0,0,1-1.28.14,3.83,3.83,0,0,1-1.42-.23,2.22,2.22,0,0,1-.92-.66,2.61,2.61,0,0,1-.5-1,5.26,5.26,0,0,1-.15-1.31Z"/><path class="cls-15" d="M278.72,157.29a2.08,2.08,0,0,1,.31-1.14,2.51,2.51,0,0,1,1-.84,7,7,0,0,1,1.75-.58,22.21,22.21,0,0,1,2.58-.35,2.87,2.87,0,0,0-.13-.75,1.63,1.63,0,0,0-.35-.62,1.7,1.7,0,0,0-.63-.42,2.51,2.51,0,0,0-1-.16,3.76,3.76,0,0,0-1.47.29,9.05,9.05,0,0,0-1.25.63l-.51-.9a7.47,7.47,0,0,1,.68-.39,7.67,7.67,0,0,1,.83-.36,6.9,6.9,0,0,1,.94-.26,4.82,4.82,0,0,1,1-.1,3,3,0,0,1,2.38.87,3.37,3.37,0,0,1,.78,2.33v4.77h-1.07l-.11-1.05h0a7.44,7.44,0,0,1-1.45.88,3.8,3.8,0,0,1-1.62.37,3.37,3.37,0,0,1-1-.15,2.68,2.68,0,0,1-.84-.43,2,2,0,0,1-.78-1.62Zm1.28-.1a1.06,1.06,0,0,0,.14.57,1.24,1.24,0,0,0,.38.38,1.69,1.69,0,0,0,.54.22,2.83,2.83,0,0,0,.65.07,3.15,3.15,0,0,0,1.32-.3,5.94,5.94,0,0,0,1.32-.86v-2a16.75,16.75,0,0,0-2.09.27,5.77,5.77,0,0,0-1.34.42,1.77,1.77,0,0,0-.71.56A1.22,1.22,0,0,0,280,157.19Z"/><path class="cls-15" d="M288.32,147.91h4v8.88a1.62,1.62,0,0,0,.41,1.24,1.58,1.58,0,0,0,1.11.38,3.7,3.7,0,0,0,1.47-.37l.34,1q-.53.19-1,.33a4,4,0,0,1-1.1.14,2.45,2.45,0,0,1-1.9-.71,3,3,0,0,1-.65-2.1V149h-2.66Z"/><path class="cls-15" d="M300.75,149.93h-3.46v-1.12h8.26v1.12h-3.46v9.38h-1.34Z"/><path class="cls-15" d="M307.52,157.29a2.08,2.08,0,0,1,.31-1.14,2.51,2.51,0,0,1,1-.84,7,7,0,0,1,1.75-.58,22.21,22.21,0,0,1,2.58-.35,2.87,2.87,0,0,0-.13-.75,1.63,1.63,0,0,0-.35-.62,1.7,1.7,0,0,0-.63-.42,2.51,2.51,0,0,0-1-.16,3.76,3.76,0,0,0-1.47.29,9.05,9.05,0,0,0-1.25.63l-.51-.9a7.47,7.47,0,0,1,.68-.39,7.67,7.67,0,0,1,.83-.36,6.9,6.9,0,0,1,.94-.26,4.82,4.82,0,0,1,1-.1,3,3,0,0,1,2.38.87,3.37,3.37,0,0,1,.78,2.33v4.77h-1.07l-.11-1.05h0a7.44,7.44,0,0,1-1.45.88,3.8,3.8,0,0,1-1.62.37,3.37,3.37,0,0,1-1-.15,2.68,2.68,0,0,1-.84-.43,2,2,0,0,1-.78-1.62Zm1.28-.1a1.06,1.06,0,0,0,.14.57,1.24,1.24,0,0,0,.38.38,1.69,1.69,0,0,0,.54.22,2.83,2.83,0,0,0,.65.07,3.15,3.15,0,0,0,1.32-.3,5.94,5.94,0,0,0,1.32-.86v-2a16.75,16.75,0,0,0-2.09.27,5.77,5.77,0,0,0-1.34.42,1.77,1.77,0,0,0-.71.56A1.22,1.22,0,0,0,308.8,157.19Z"/><path class="cls-15" d="M319.81,155.27l-2.74-3.74h1.46l1.23,1.71.44.66.47.66h.06c.15-.21.3-.44.45-.67l.43-.67,1.17-1.68h1.39l-2.77,3.86,3,3.92h-1.44l-1.36-1.79-.5-.71-.52-.7h-.06l-.48.7-.48.71-1.28,1.79h-1.41Z"/><path class="cls-15" d="M326.48,154.06a7,7,0,0,1,.34-2.27,5,5,0,0,1,1-1.71,4.2,4.2,0,0,1,1.49-1.08,4.66,4.66,0,0,1,1.89-.38,3.52,3.52,0,0,1,1.68.38,4.34,4.34,0,0,1,1.18.89l-.75.85a3.52,3.52,0,0,0-.93-.7,2.55,2.55,0,0,0-1.18-.26,3.12,3.12,0,0,0-1.37.3,2.91,2.91,0,0,0-1,.85,4,4,0,0,0-.66,1.34,6.17,6.17,0,0,0-.23,1.76,6.31,6.31,0,0,0,.23,1.78,4.06,4.06,0,0,0,.66,1.35,3,3,0,0,0,1,.86,3,3,0,0,0,1.37.3,2.64,2.64,0,0,0,1.28-.3,4.16,4.16,0,0,0,1.07-.86l.77.81a4.68,4.68,0,0,1-1.41,1.12,3.9,3.9,0,0,1-1.79.4,4.5,4.5,0,0,1-1.83-.37,4.12,4.12,0,0,1-1.46-1.06,5,5,0,0,1-1-1.71A7,7,0,0,1,326.48,154.06Z"/><path class="cls-15" d="M336.32,157.29a2.08,2.08,0,0,1,.31-1.14,2.51,2.51,0,0,1,1-.84,7,7,0,0,1,1.75-.58,22.21,22.21,0,0,1,2.58-.35,2.87,2.87,0,0,0-.13-.75,1.63,1.63,0,0,0-.35-.62,1.7,1.7,0,0,0-.63-.42,2.51,2.51,0,0,0-1-.16,3.76,3.76,0,0,0-1.47.29,9.05,9.05,0,0,0-1.25.63l-.51-.9a7.47,7.47,0,0,1,.68-.39,7.67,7.67,0,0,1,.83-.36,6.9,6.9,0,0,1,.94-.26,4.82,4.82,0,0,1,1-.1,3,3,0,0,1,2.38.87,3.37,3.37,0,0,1,.78,2.33v4.77h-1.07l-.11-1.05h0a7.44,7.44,0,0,1-1.45.88,3.8,3.8,0,0,1-1.62.37,3.37,3.37,0,0,1-1-.15,2.68,2.68,0,0,1-.84-.43,2,2,0,0,1-.78-1.62Zm1.28-.1a1.06,1.06,0,0,0,.14.57,1.24,1.24,0,0,0,.38.38,1.69,1.69,0,0,0,.54.22,2.83,2.83,0,0,0,.65.07,3.15,3.15,0,0,0,1.32-.3,5.94,5.94,0,0,0,1.32-.86v-2a16.75,16.75,0,0,0-2.09.27,5.77,5.77,0,0,0-1.34.42,1.77,1.77,0,0,0-.71.56A1.22,1.22,0,0,0,337.6,157.19Z"/><path class="cls-15" d="M345.92,147.91h4v8.88a1.62,1.62,0,0,0,.41,1.24,1.58,1.58,0,0,0,1.11.38,3.7,3.7,0,0,0,1.47-.37l.34,1q-.53.19-1,.33a4,4,0,0,1-1.1.14,2.45,2.45,0,0,1-1.9-.71,3,3,0,0,1-.65-2.1V149h-2.66Z"/><path class="cls-15" d="M355.5,155.43a4.17,4.17,0,0,1,.34-1.74,3.83,3.83,0,0,1,.94-1.29,4,4,0,0,1,1.38-.8,5.1,5.1,0,0,1,1.67-.27,3.77,3.77,0,0,1,1.66.34,4.46,4.46,0,0,1,1.18.8l-.66.85a4.19,4.19,0,0,0-1-.65,2.66,2.66,0,0,0-1.13-.24,3.43,3.43,0,0,0-1.23.21,2.64,2.64,0,0,0-1,.62,2.89,2.89,0,0,0-.62,1,3.48,3.48,0,0,0,0,2.44,2.66,2.66,0,0,0,1.55,1.54,3.32,3.32,0,0,0,1.22.21,3.07,3.07,0,0,0,1.32-.28,4.94,4.94,0,0,0,1.1-.7l.58.85a4.82,4.82,0,0,1-1.43.9,4.39,4.39,0,0,1-1.66.32,5.06,5.06,0,0,1-1.69-.27,4,4,0,0,1-1.35-.79,3.57,3.57,0,0,1-.9-1.28A4.4,4.4,0,0,1,355.5,155.43Z"/><path class="cls-15" d="M371.9,159.3h-1.07l-.11-1.36h-.06a5.57,5.57,0,0,1-1.29,1.12,3,3,0,0,1-1.61.43,2.51,2.51,0,0,1-2.06-.79,3.63,3.63,0,0,1-.65-2.34v-4.83h1.33v4.66a2.69,2.69,0,0,0,.41,1.64,1.63,1.63,0,0,0,1.38.54,2.24,2.24,0,0,0,1.22-.34,5.89,5.89,0,0,0,1.2-1.1v-5.39h1.31Z"/><path class="cls-15" d="M374.72,147.91h4v8.88a1.62,1.62,0,0,0,.41,1.24,1.58,1.58,0,0,0,1.11.38,3.7,3.7,0,0,0,1.47-.37l.34,1q-.53.19-1,.33a4,4,0,0,1-1.1.14,2.45,2.45,0,0,1-1.9-.71,3,3,0,0,1-.65-2.1V149h-2.66Z"/><path class="cls-15" d="M384.32,157.29a2.08,2.08,0,0,1,.31-1.14,2.51,2.51,0,0,1,1-.84,7,7,0,0,1,1.75-.58,22.21,22.21,0,0,1,2.58-.35,2.87,2.87,0,0,0-.13-.75,1.63,1.63,0,0,0-.35-.62,1.7,1.7,0,0,0-.63-.42,2.51,2.51,0,0,0-1-.16,3.76,3.76,0,0,0-1.47.29,9.05,9.05,0,0,0-1.25.63l-.51-.9a7.47,7.47,0,0,1,.68-.39,7.67,7.67,0,0,1,.83-.36,6.9,6.9,0,0,1,.94-.26,4.82,4.82,0,0,1,1-.1,3,3,0,0,1,2.38.87,3.37,3.37,0,0,1,.78,2.33v4.77h-1.07l-.11-1.05h0a7.44,7.44,0,0,1-1.45.88,3.8,3.8,0,0,1-1.62.37,3.37,3.37,0,0,1-1-.15,2.68,2.68,0,0,1-.84-.43,2,2,0,0,1-.78-1.62Zm1.28-.1a1.06,1.06,0,0,0,.14.57,1.24,1.24,0,0,0,.38.38,1.69,1.69,0,0,0,.54.22,2.83,2.83,0,0,0,.65.07,3.15,3.15,0,0,0,1.32-.3,5.94,5.94,0,0,0,1.32-.86v-2a16.75,16.75,0,0,0-2.09.27,5.77,5.77,0,0,0-1.34.42,1.77,1.77,0,0,0-.71.56A1.22,1.22,0,0,0,385.6,157.19Z"/><path class="cls-15" d="M395.92,152.6h-2.19v-1l2.24-.08.18-2.18h1.09v2.18H401v1.07h-3.81v3.7a3.88,3.88,0,0,0,.1.92,1.62,1.62,0,0,0,.32.66,1.34,1.34,0,0,0,.61.41,2.82,2.82,0,0,0,.94.14,4.93,4.93,0,0,0,1-.1,5.74,5.74,0,0,0,.86-.26l.27,1a7.85,7.85,0,0,1-1.15.33,6.2,6.2,0,0,1-1.28.14,3.83,3.83,0,0,1-1.42-.23,2.22,2.22,0,0,1-.92-.66,2.61,2.61,0,0,1-.5-1,5.26,5.26,0,0,1-.15-1.31Z"/><path class="cls-15" d="M403.32,155.43a4.21,4.21,0,0,1,.34-1.72,4,4,0,0,1,.89-1.29,3.84,3.84,0,0,1,1.26-.81,4.15,4.15,0,0,1,3,0,3.11,3.11,0,0,1,1.11.74,3.21,3.21,0,0,1,.7,1.15,4.39,4.39,0,0,1,.24,1.49,4.47,4.47,0,0,1,0,.72h-6.08a2.83,2.83,0,0,0,.89,2,3,3,0,0,0,2.09.74,3.94,3.94,0,0,0,1.26-.19,5.44,5.44,0,0,0,1.11-.53l.46.87a7,7,0,0,1-1.31.64,4.82,4.82,0,0,1-1.68.27,4.64,4.64,0,0,1-1.62-.28,4,4,0,0,1-1.33-.8,3.72,3.72,0,0,1-.9-1.27A4.24,4.24,0,0,1,403.32,155.43Zm6.27-.59A2.54,2.54,0,0,0,409,153a2.24,2.24,0,0,0-1.7-.63,2.57,2.57,0,0,0-.92.17,2.52,2.52,0,0,0-.79.48,2.76,2.76,0,0,0-.6.77,2.8,2.8,0,0,0-.31,1Z"/><path class="cls-15" d="M412.78,155.43a4.68,4.68,0,0,1,.3-1.71,4,4,0,0,1,.78-1.29,3.45,3.45,0,0,1,1.13-.82,3.21,3.21,0,0,1,1.33-.29,2.79,2.79,0,0,1,1.26.27,5.4,5.4,0,0,1,1.09.74l0-1.44v-3h1.31V159.3h-1.09l-.11-1h0a4.72,4.72,0,0,1-1.14.86,2.86,2.86,0,0,1-1.38.36,3.38,3.38,0,0,1-1.38-.27,3,3,0,0,1-1.06-.79,3.61,3.61,0,0,1-.69-1.27A5.69,5.69,0,0,1,412.78,155.43Zm1.36,0a3.53,3.53,0,0,0,.6,2.19,2,2,0,0,0,1.69.78,3,3,0,0,0,2.19-1.17v-3.87a3.5,3.5,0,0,0-1-.71,2.64,2.64,0,0,0-1-.21,2.15,2.15,0,0,0-1,.21,2.35,2.35,0,0,0-.77.61,3,3,0,0,0-.52.94A3.64,3.64,0,0,0,414.14,155.42Z"/><path class="cls-15" d="M423.55,150.07l0-1.76h1.76l0,1.76-.4,3.6h-.9Zm3.66,0,0-1.76h1.76l0,1.76-.4,3.6h-.9Z"/><path class="cls-16" d="M434.52,152.43a1.33,1.33,0,0,1,.38-1,1.31,1.31,0,0,1,1.84,0,1.33,1.33,0,0,1,.38,1,1.3,1.3,0,0,1-.38,1,1.33,1.33,0,0,1-1.84,0A1.3,1.3,0,0,1,434.52,152.43Zm0,5.73a1.33,1.33,0,0,1,.38-1,1.31,1.31,0,0,1,1.84,0,1.33,1.33,0,0,1,.38,1,1.3,1.3,0,0,1-.38,1,1.33,1.33,0,0,1-1.84,0A1.3,1.3,0,0,1,434.52,158.15Z"/><path class="cls-17" d="M452.35,150.07l0-1.76h1.76l0,1.76-.4,3.6h-.9Zm3.66,0,0-1.76h1.76l0,1.76-.4,3.6h-.9Z"/><path class="cls-17" d="M464.62,159.5a3.11,3.11,0,0,1-2.69-1.38,6.78,6.78,0,0,1-1-3.94,6.61,6.61,0,0,1,1-3.92,3.36,3.36,0,0,1,5.38,0,6.62,6.62,0,0,1,1,3.92,6.79,6.79,0,0,1-1,3.94A3.12,3.12,0,0,1,464.62,159.5Zm0-9.54a2,2,0,0,0-1,.24,2.12,2.12,0,0,0-.78.76,4.15,4.15,0,0,0-.5,1.31,8.86,8.86,0,0,0-.18,1.9,6,6,0,0,0,.68,3.23,2,2,0,0,0,3.5,0,6,6,0,0,0,.68-3.23,8.86,8.86,0,0,0-.18-1.9,4.15,4.15,0,0,0-.5-1.31,2.12,2.12,0,0,0-.78-.76A2,2,0,0,0,464.62,150Zm0,5.17a1,1,0,0,1-.7-.28,1,1,0,0,1-.3-.79,1,1,0,0,1,.3-.78,1,1,0,0,1,1.39,0,1,1,0,0,1,.3.78,1,1,0,0,1-.3.79A1,1,0,0,1,464.62,155.13Z"/><path class="cls-17" d="M472.92,158.15a1.33,1.33,0,0,1,.38-1,1.31,1.31,0,0,1,1.84,0,1.33,1.33,0,0,1,.38,1,1.3,1.3,0,0,1-.38,1,1.33,1.33,0,0,1-1.84,0A1.3,1.3,0,0,1,472.92,158.15Z"/><path class="cls-17" d="M480.11,156.7a2.23,2.23,0,0,1,.19-.94,2.93,2.93,0,0,1,.5-.75,3.29,3.29,0,0,1,.7-.58,7.07,7.07,0,0,1,.81-.44v-.06a4.25,4.25,0,0,1-1.1-1,2.21,2.21,0,0,1-.46-1.4,2.44,2.44,0,0,1,.23-1.07,2.39,2.39,0,0,1,.66-.82,3.14,3.14,0,0,1,1-.54,4,4,0,0,1,1.26-.19,4.13,4.13,0,0,1,1.34.2,2.89,2.89,0,0,1,1,.56,2.37,2.37,0,0,1,.62.86,2.76,2.76,0,0,1,.22,1.1,2.26,2.26,0,0,1-.46,1.35,4.57,4.57,0,0,1-1.1,1.08v.06a8,8,0,0,1,.78.45,3.2,3.2,0,0,1,.64.54,2.22,2.22,0,0,1,.42.71,2.73,2.73,0,0,1,.15,1,2.36,2.36,0,0,1-.25,1.07,2.55,2.55,0,0,1-.71.86,3.42,3.42,0,0,1-1.14.58,5.33,5.33,0,0,1-1.56.21,5.43,5.43,0,0,1-1.56-.21,3.53,3.53,0,0,1-1.18-.58,2.69,2.69,0,0,1-.74-.89A2.4,2.4,0,0,1,480.11,156.7Zm1.2-.13A1.7,1.7,0,0,0,482,158a3,3,0,0,0,1.88.54,2.73,2.73,0,0,0,1.76-.5,1.59,1.59,0,0,0,.61-1.3,1.53,1.53,0,0,0-.25-.89,2.14,2.14,0,0,0-.68-.62,5.48,5.48,0,0,0-1-.46l-1.26-.42a5.16,5.16,0,0,0-1.25.94A1.79,1.79,0,0,0,481.31,156.57Zm3.34-2.83a2.58,2.58,0,0,0,1.28-2,1.74,1.74,0,0,0-.53-1.29,2.1,2.1,0,0,0-1.54-.52,2.08,2.08,0,0,0-1.39.45,1.49,1.49,0,0,0-.53,1.2,1.44,1.44,0,0,0,.21.79,2.06,2.06,0,0,0,.58.58,4.33,4.33,0,0,0,.86.46Q484.07,153.56,484.65,153.74Z"/><path class="cls-17" d="M500.35,150.07l0-1.76h1.76l0,1.76-.4,3.6h-.9Zm3.66,0,0-1.76h1.76l0,1.76-.4,3.6h-.9Z"/><path class="cls-5" d="M511,161.88a3.86,3.86,0,0,0,1.49-1.08,2.65,2.65,0,0,0,.53-1.59l-.15,0h-.15a1.36,1.36,0,0,1-.88-.29,1.09,1.09,0,0,1-.37-.9,1.1,1.1,0,0,1,.38-.9,1.38,1.38,0,0,1,.9-.31,1.2,1.2,0,0,1,1.08.55,2.71,2.71,0,0,1,.36,1.5,3.79,3.79,0,0,1-.74,2.38,4.54,4.54,0,0,1-2.07,1.46Z"/><path class="cls-15" d="M241.15,169.27l0-1.76h1.76l0,1.76-.4,3.6h-.9Zm3.66,0,0-1.76h1.76l0,1.76-.4,3.6h-.9Z"/><path class="cls-15" d="M252.75,169.13h-3.46V168h8.26v1.12h-3.46v9.38h-1.34Z"/><path class="cls-15" d="M259.52,176.49a2.08,2.08,0,0,1,.31-1.14,2.49,2.49,0,0,1,1-.84,6.94,6.94,0,0,1,1.75-.58,21.4,21.4,0,0,1,2.58-.35,2.86,2.86,0,0,0-.13-.75,1.64,1.64,0,0,0-.35-.62,1.73,1.73,0,0,0-.63-.42,2.55,2.55,0,0,0-1-.16,3.76,3.76,0,0,0-1.47.3,9.28,9.28,0,0,0-1.25.63l-.51-.89a6.65,6.65,0,0,1,.68-.39,7.31,7.31,0,0,1,.83-.36,6.9,6.9,0,0,1,.94-.27,5,5,0,0,1,1-.1,3,3,0,0,1,2.38.87,3.37,3.37,0,0,1,.78,2.33v4.77h-1.07l-.11-1.06h0a7.45,7.45,0,0,1-1.45.88,3.83,3.83,0,0,1-1.62.37,3.37,3.37,0,0,1-1-.15,2.64,2.64,0,0,1-.84-.43,2,2,0,0,1-.78-1.62Zm1.28-.1a1.06,1.06,0,0,0,.14.57,1.25,1.25,0,0,0,.38.38,1.69,1.69,0,0,0,.54.22,3,3,0,0,0,.65.07,3.15,3.15,0,0,0,1.32-.29,5.94,5.94,0,0,0,1.32-.86v-2a16.8,16.8,0,0,0-2.09.27,5.87,5.87,0,0,0-1.34.42,1.78,1.78,0,0,0-.71.56A1.23,1.23,0,0,0,260.8,176.39Z"/><path class="cls-15" d="M271.81,174.47l-2.74-3.74h1.46l1.23,1.71.44.66.47.66h.06c.15-.21.3-.44.45-.67l.43-.67,1.17-1.68h1.39l-2.77,3.86,3,3.92h-1.44l-1.36-1.79-.5-.7-.52-.71h-.06l-.48.7-.48.71-1.28,1.79h-1.41Z"/><path class="cls-15" d="M279.56,168h1.31v9.36h5.2v1.14h-6.51Z"/><path class="cls-15" d="M288.46,170.73h4.93v7.78h-1.31V171.8h-3.62Zm4.13-1.6a1.08,1.08,0,0,1-.76-.27,1,1,0,0,1-.3-.74,1,1,0,0,1,.3-.74,1.16,1.16,0,0,1,1.51,0,1,1,0,0,1,.3.74.94.94,0,0,1-.3.74A1.09,1.09,0,0,1,292.59,169.13Z"/><path class="cls-15" d="M298.11,170.73h1.09l.11,1.33h.06a6.32,6.32,0,0,1,1.31-1.09,3,3,0,0,1,1.62-.43,2.48,2.48,0,0,1,2,.79,3.63,3.63,0,0,1,.65,2.34v4.83h-1.31v-4.66a2.66,2.66,0,0,0-.42-1.64,1.63,1.63,0,0,0-1.38-.54,2.27,2.27,0,0,0-.65.09,2.46,2.46,0,0,0-.58.26,4.39,4.39,0,0,0-.59.44c-.2.18-.42.38-.64.62v5.42h-1.31Z"/><path class="cls-15" d="M307.32,174.63a4.2,4.2,0,0,1,.34-1.72,4,4,0,0,1,.89-1.29,3.87,3.87,0,0,1,1.26-.81,4.15,4.15,0,0,1,3,0,3.11,3.11,0,0,1,1.11.74,3.22,3.22,0,0,1,.7,1.15,4.39,4.39,0,0,1,.24,1.49,4.5,4.5,0,0,1,0,.72h-6.08a2.84,2.84,0,0,0,.89,2,3,3,0,0,0,2.09.73,3.88,3.88,0,0,0,1.26-.19,5.43,5.43,0,0,0,1.11-.53l.46.86a6.84,6.84,0,0,1-1.31.64,4.82,4.82,0,0,1-1.68.27,4.68,4.68,0,0,1-1.62-.28,4,4,0,0,1-1.33-.8,3.69,3.69,0,0,1-.9-1.27A4.25,4.25,0,0,1,307.32,174.63Zm6.27-.59a2.54,2.54,0,0,0-.61-1.83,2.25,2.25,0,0,0-1.7-.63,2.53,2.53,0,0,0-.92.17,2.55,2.55,0,0,0-.79.48,2.79,2.79,0,0,0-.91,1.82Z"/><path class="cls-15" d="M317.61,176.62a6,6,0,0,0,1.41.77,5,5,0,0,0,1.81.29,2.8,2.8,0,0,0,1.57-.35,1,1,0,0,0,.51-.87,1,1,0,0,0-.55-.8,7.27,7.27,0,0,0-2-.71,8.66,8.66,0,0,1-1.14-.35,4.34,4.34,0,0,1-.94-.49,2.61,2.61,0,0,1-.64-.62,1.26,1.26,0,0,1-.24-.75,1.89,1.89,0,0,1,.21-.87,2,2,0,0,1,.62-.7,3.13,3.13,0,0,1,1-.46,5.42,5.42,0,0,1,1.42-.17,5.08,5.08,0,0,1,1.71.3,6,6,0,0,1,1.41.7l-.64.85a4.66,4.66,0,0,0-1.14-.59,4,4,0,0,0-1.34-.22,4.11,4.11,0,0,0-.91.09,1.86,1.86,0,0,0-.59.24.89.89,0,0,0-.32.36,1,1,0,0,0-.1.43q0,.48.66.79a9.53,9.53,0,0,0,1.71.58,7.8,7.8,0,0,1,2.34.91,1.61,1.61,0,0,1,.76,1.41,1.87,1.87,0,0,1-.22.9,2.21,2.21,0,0,1-.66.74,3.45,3.45,0,0,1-1.09.5,5.42,5.42,0,0,1-1.48.18,6,6,0,0,1-2.12-.36,7.62,7.62,0,0,1-1.69-.86Z"/><path class="cls-15" d="M327.55,169.27l0-1.76h1.76l0,1.76-.4,3.6h-.9Zm3.66,0,0-1.76h1.76l0,1.76-.4,3.6h-.9Z"/><path class="cls-18" d="M338.52,171.63a1.33,1.33,0,0,1,.38-1,1.32,1.32,0,0,1,1.84,0,1.33,1.33,0,0,1,.38,1,1.3,1.3,0,0,1-.38,1,1.34,1.34,0,0,1-1.84,0A1.3,1.3,0,0,1,338.52,171.63Zm0,5.73a1.33,1.33,0,0,1,.38-1,1.32,1.32,0,0,1,1.84,0,1.33,1.33,0,0,1,.38,1,1.3,1.3,0,0,1-.38,1,1.34,1.34,0,0,1-1.84,0A1.3,1.3,0,0,1,338.52,177.35Z"/><path class="cls-18" d="M357.84,167.18h4.42v.77h-3.38v12.22h3.38v.77h-4.42Z"/></g><rect class="cls-5" x="339.35" y="190.84" width="46.57" height="14.81"/><path class="cls-9" d="M496.21,187.13V40.7H228.47V187.13H197.21v19.36H522.92V187.13ZM379.92,199.32H344.76v-6.4h35.16Zm111.8-14.43H233V45.19H491.72Z"/><path class="cls-6" d="M927.63,254.35H67.42a17.19,17.19,0,0,1,0-34.38H927.63a17.19,17.19,0,0,1,0,34.38ZM67.42,222.57a14.59,14.59,0,0,0,0,29.18H927.63a14.59,14.59,0,0,0,0-29.18Z"/></svg>