<svg id="Layer_1" data-name="Layer 1" xmlns="http://www.w3.org/2000/svg" xmlns:xlink="http://www.w3.org/1999/xlink" viewBox="0 0 920.53 395.98"><defs><style>.cls-1,.cls-3{fill:none;stroke:#d7d7d7;}.cls-1{stroke-miterlimit:10;}.cls-2{clip-path:url(#clip-path);}.cls-3{stroke-width:0.32px;}.cls-4{clip-path:url(#clip-path-2);}.cls-5{fill:#fff;}.cls-6{fill:#f60;}.cls-7{fill:#ea721d;}.cls-8{fill:#5f6062;}</style><clipPath id="clip-path"><path class="cls-1" d="M17.58,233.77c-28.51,0-14.87,23.89,16.4,23.89A127.08,127.08,0,0,0,60.29,255c9,11.48,31,32.94,79.15,27.27,30.6,38.37,103.28,36.24,129,19.33,13.41,14.08,37.6,23.47,65.22,23.47a116,116,0,0,0,24.74-2.64c4.74,19.84,29.71,35,59.81,35a80.89,80.89,0,0,0,33.38-6.91c.79,24.43,36.49,44.11,80.43,44.11,42.59,0,77.43-18.48,80.27-41.86a119.64,119.64,0,0,0,33.16,4.55c39.68,0,72.38-18.21,77-41.71h.59c26.49,0,48.88-10.54,56.2-25a111.64,111.64,0,0,0,24,2.52c33.39,0,60.47-13.74,60.47-30.7a16,16,0,0,0-.55-4.09,131.3,131.3,0,0,0,19.48,1.42c32.88,0,48.21-26,20.6-26Z"/></clipPath><clipPath id="clip-path-2"><path class="cls-1" d="M-1043.28,267.25c-31.07,0-16.21,26,17.87,26a138.49,138.49,0,0,0,28.67-2.89c9.78,12.51,33.74,35.89,86.25,29.72,33.34,41.82,112.55,39.5,140.61,21.06,14.61,15.34,41,25.58,71.08,25.58a126.43,126.43,0,0,0,27-2.88c5.16,21.62,32.38,38.11,65.18,38.11a88.16,88.16,0,0,0,36.38-7.53c.86,26.63,39.76,48.07,87.65,48.07,46.42,0,84.39-20.14,87.47-45.62a130.39,130.39,0,0,0,36.14,5c43.25,0,78.88-19.84,83.94-45.45h.64c28.87,0,53.27-11.48,61.25-27.26A121.66,121.66,0,0,0-187,331.91c36.39,0,65.9-15,65.9-33.46a17.47,17.47,0,0,0-.6-4.46,143.09,143.09,0,0,0,21.23,1.55c35.83,0,52.54-28.32,22.45-28.32Z"/></clipPath></defs><title>DevDotSvgGAssets</title><path class="cls-1" d="M47.31,233.77H18.13c-28.51,0-14.87,23.89,16.4,23.89A127,127,0,0,0,60.83,255c9,11.48,31,32.94,79.15,27.27,30.6,38.37,103.28,36.25,129,19.33,13.41,14.07,37.6,23.46,65.22,23.46A115.67,115.67,0,0,0,359,322.44c4.73,19.84,29.71,35,59.81,35a80.91,80.91,0,0,0,33.38-6.91c.79,24.43,36.49,44.11,80.42,44.11,42.6,0,77.44-18.48,80.27-41.86A119.9,119.9,0,0,0,646,357.3c39.68,0,72.38-18.21,77-41.7h.59c26.49,0,48.88-10.54,56.2-25a112,112,0,0,0,24,2.52c33.39,0,60.47-13.74,60.47-30.7a16.27,16.27,0,0,0-.55-4.1,131.23,131.23,0,0,0,19.48,1.42c32.88,0,48.21-26,20.6-26H886.57Z"/><g class="cls-2"><path class="cls-1" d="M17.58,233.77c-28.51,0-14.87,23.89,16.4,23.89A127.08,127.08,0,0,0,60.29,255c9,11.48,31,32.94,79.15,27.27,30.6,38.37,103.28,36.24,129,19.33,13.41,14.08,37.6,23.47,65.22,23.47a116,116,0,0,0,24.74-2.64c4.74,19.84,29.71,35,59.81,35a80.89,80.89,0,0,0,33.38-6.91c.79,24.43,36.49,44.11,80.43,44.11,42.59,0,77.43-18.48,80.27-41.86a119.64,119.64,0,0,0,33.16,4.55c39.68,0,72.38-18.21,77-41.71h.59c26.49,0,48.88-10.54,56.2-25a111.64,111.64,0,0,0,24,2.52c33.39,0,60.47-13.74,60.47-30.7a16,16,0,0,0-.55-4.09,131.3,131.3,0,0,0,19.48,1.42c32.88,0,48.21-26,20.6-26Z"/><path class="cls-1" d="M22,225.39c-28.51,0-14.87,23.89,16.4,23.89a127.06,127.06,0,0,0,26.31-2.65c9,11.48,31,32.94,79.15,27.27,30.59,38.38,103.28,36.25,129,19.35,13.41,14.06,37.6,23.45,65.22,23.45a116,116,0,0,0,24.74-2.64c4.74,19.84,29.71,35,59.81,35a81,81,0,0,0,33.38-6.91c.79,24.43,36.49,44.11,80.43,44.11,42.6,0,77.43-18.48,80.27-41.86a119.64,119.64,0,0,0,33.16,4.55c39.68,0,72.39-18.2,77-41.7h.59c26.49,0,48.88-10.52,56.2-25a112,112,0,0,0,24,2.52c33.39,0,60.47-13.75,60.47-30.71a16,16,0,0,0-.55-4.09,131.3,131.3,0,0,0,19.48,1.42c32.88,0,48.21-26,20.6-26Z"/><path class="cls-1" d="M26.45,217c-28.51,0-14.87,23.89,16.4,23.89a127,127,0,0,0,26.31-2.65c9,11.48,31,32.94,79.15,27.27,30.59,38.38,103.28,36.25,129,19.36,13.41,14.06,37.6,23.44,65.22,23.44a115.72,115.72,0,0,0,24.75-2.64c4.73,19.84,29.71,35,59.81,35a80.89,80.89,0,0,0,33.38-6.91c.79,24.43,36.49,44.11,80.43,44.11,42.6,0,77.43-18.48,80.27-41.86a119.84,119.84,0,0,0,33.16,4.55c39.68,0,72.39-18.21,77-41.69H732c26.49,0,48.88-10.53,56.2-25a112,112,0,0,0,24,2.52c33.39,0,60.47-13.75,60.47-30.71a16,16,0,0,0-.55-4.09A132,132,0,0,0,891.54,243c32.88,0,48.21-26,20.6-26Z"/><path class="cls-1" d="M30.88,208.65c-28.51,0-14.87,23.89,16.4,23.89a127.06,127.06,0,0,0,26.31-2.65c9,11.48,31,32.94,79.15,27.27,30.59,38.39,103.28,36.27,129,19.36C295.16,290.57,319.36,300,347,300a116.09,116.09,0,0,0,24.75-2.62c4.73,19.83,29.71,35,59.81,35a80.88,80.88,0,0,0,33.38-6.91c.79,24.43,36.49,44.1,80.43,44.1,42.6,0,77.43-18.47,80.27-41.86a119.65,119.65,0,0,0,33.17,4.55c39.68,0,72.38-18.21,77-41.68h.59c26.49,0,48.88-10.53,56.2-25a112,112,0,0,0,24,2.52C850,268,877,254.24,877,237.28a16,16,0,0,0-.55-4.09A132,132,0,0,0,896,234.61c32.88,0,48.21-26,20.59-26Z"/><path class="cls-1" d="M35.31,200.27c-28.51,0-14.87,23.89,16.4,23.89A127.05,127.05,0,0,0,78,221.51c9,11.48,31,32.94,79.15,27.27,30.59,38.4,103.28,36.28,129,19.36,13.41,14.07,37.6,23.46,65.23,23.46A116.06,116.06,0,0,0,376.16,289c4.73,19.82,29.71,35,59.81,35A80.91,80.91,0,0,0,469.35,317c.78,24.44,36.48,44.11,80.43,44.11,42.59,0,77.43-18.48,80.27-41.86a119.84,119.84,0,0,0,33.17,4.55c39.68,0,72.38-18.21,77-41.68h.59c26.49,0,48.88-10.54,56.2-25a112,112,0,0,0,24,2.52c33.39,0,60.47-13.75,60.47-30.71a16,16,0,0,0-.55-4.09,132,132,0,0,0,19.48,1.42c32.88,0,48.21-26,20.6-26Z"/><path class="cls-1" d="M39.74,191.89c-28.51,0-14.87,23.9,16.4,23.9a127,127,0,0,0,26.31-2.65c9,11.47,31,32.93,79.15,27.27,30.59,38.4,103.28,36.27,129,19.35,13.41,14.07,37.6,23.47,65.23,23.47a116,116,0,0,0,24.74-2.64c4.73,19.82,29.71,34.95,59.81,34.95a80.83,80.83,0,0,0,33.38-6.91c.79,24.44,36.48,44.11,80.43,44.11,42.6,0,77.43-18.48,80.26-41.86a119.88,119.88,0,0,0,33.17,4.55c39.68,0,72.38-18.2,77-41.68h.59c26.49,0,48.88-10.54,56.2-25a112,112,0,0,0,24,2.52c33.39,0,60.47-13.75,60.47-30.71a16,16,0,0,0-.55-4.09,132,132,0,0,0,19.48,1.42c32.88,0,48.21-26,20.6-26Z"/><path class="cls-1" d="M44.18,183.52c-28.52,0-14.87,23.9,16.4,23.9a127.05,127.05,0,0,0,26.31-2.65c9,11.48,31,32.93,79.15,27.26,30.59,38.4,103.28,36.28,129,19.36,13.41,14.07,37.6,23.47,65.22,23.47A115.71,115.71,0,0,0,385,272.21c4.73,19.84,29.71,35,59.81,35a80.79,80.79,0,0,0,33.38-6.91c.79,24.44,36.49,44.11,80.43,44.11,42.6,0,77.43-18.48,80.27-41.86A119.84,119.84,0,0,0,672.08,307c39.68,0,72.39-18.19,77-41.68h.59c26.49,0,48.88-10.54,56.2-25a112,112,0,0,0,24,2.52c33.39,0,60.47-13.75,60.47-30.7a16.14,16.14,0,0,0-.55-4.09,132,132,0,0,0,19.48,1.42c32.89,0,48.21-26,20.6-26Z"/><path class="cls-1" d="M48.62,175.14C20.1,175.14,33.74,199,65,199a127,127,0,0,0,26.31-2.65c9,11.48,31,32.94,79.15,27.27,30.59,38.4,103.28,36.27,129,19.35,13.41,14.07,37.6,23.47,65.22,23.47a116.05,116.05,0,0,0,24.75-2.64c4.73,19.84,29.71,35,59.82,35a80.93,80.93,0,0,0,33.38-6.91c.78,24.42,36.48,44.09,80.42,44.09,42.6,0,77.44-18.48,80.27-41.84a119.87,119.87,0,0,0,33.16,4.54c39.69,0,72.39-18.2,77-41.69h.59c26.49,0,48.88-10.54,56.2-25a112,112,0,0,0,24,2.52c33.39,0,60.47-13.75,60.47-30.7a16.1,16.1,0,0,0-.55-4.1,131.27,131.27,0,0,0,19.48,1.43c32.89,0,48.21-26,20.6-26Z"/><path class="cls-1" d="M53,166.77c-28.52,0-14.88,23.89,16.4,23.89A127,127,0,0,0,95.75,188c9,11.48,31,32.94,79.15,27.28,30.6,38.39,103.28,36.27,129,19.35,13.41,14.07,37.61,23.47,65.22,23.47a116,116,0,0,0,24.75-2.64c4.73,19.84,29.71,35,59.82,35a80.92,80.92,0,0,0,33.38-6.91c.79,24.41,36.48,44.09,80.43,44.09,42.59,0,77.43-18.48,80.26-41.84a119.87,119.87,0,0,0,33.16,4.55c39.69,0,72.39-18.21,77-41.7h.59c26.49,0,48.88-10.54,56.2-25a112,112,0,0,0,24,2.52c33.39,0,60.47-13.74,60.47-30.7a16.18,16.18,0,0,0-.55-4.1,131.26,131.26,0,0,0,19.48,1.42c32.89,0,48.21-26,20.6-26Z"/><path class="cls-1" d="M57.48,158.39c-28.51,0-14.87,23.89,16.4,23.89a127,127,0,0,0,26.31-2.65c9,11.48,31,32.94,79.15,27.28,30.6,38.39,103.28,36.27,129,19.35,13.41,14.08,37.6,23.47,65.22,23.47a116,116,0,0,0,24.74-2.64c4.73,19.84,29.71,35,59.82,35a80.91,80.91,0,0,0,33.38-6.91c.79,24.43,36.48,44.09,80.43,44.09,42.59,0,77.43-18.48,80.26-41.84a119.86,119.86,0,0,0,33.17,4.55c39.69,0,72.39-18.21,77-41.7H763c26.49,0,48.88-10.54,56.2-25a112,112,0,0,0,24,2.52c33.39,0,60.47-13.75,60.47-30.71a16.33,16.33,0,0,0-.55-4.1,131.22,131.22,0,0,0,19.47,1.42c32.89,0,48.21-26,20.6-26Z"/><path class="cls-1" d="M61.91,150C33.4,150,47,173.91,78.31,173.91a127,127,0,0,0,26.31-2.65c9,11.48,31,32.94,79.15,27.27,30.6,38.4,103.28,36.27,129,19.36C326.2,232,350.39,241.35,378,241.35a116,116,0,0,0,24.74-2.64c4.73,19.84,29.71,35,59.82,35A80.91,80.91,0,0,0,496,266.77c.79,24.43,36.49,44.09,80.43,44.09,42.59,0,77.43-18.46,80.26-41.84a119.9,119.9,0,0,0,33.17,4.55c39.68,0,72.39-18.21,77-41.7h.59c26.49,0,48.88-10.54,56.2-25a112,112,0,0,0,24,2.52c33.39,0,60.47-13.75,60.47-30.71a16.18,16.18,0,0,0-.55-4.1A131.17,131.17,0,0,0,927,176c32.89,0,48.21-26,20.6-26Z"/><path class="cls-1" d="M66.34,141.64c-28.51,0-14.87,23.89,16.4,23.89A127,127,0,0,0,109,162.89c9,11.48,31,32.94,79.15,27.27,30.6,38.4,103.28,36.27,129,19.36,13.41,14.07,37.6,23.46,65.22,23.46a116,116,0,0,0,24.74-2.64c4.73,19.84,29.71,35,59.81,35a80.91,80.91,0,0,0,33.38-6.91c.79,24.44,36.49,44.09,80.43,44.09,42.6,0,77.44-18.46,80.27-41.84a119.71,119.71,0,0,0,33.17,4.55c39.68,0,72.39-18.21,77-41.7h.59c26.49,0,48.88-10.54,56.2-25A112,112,0,0,0,852,201c33.39,0,60.47-13.75,60.47-30.71a16.32,16.32,0,0,0-.55-4.1,131.24,131.24,0,0,0,19.48,1.42c32.88,0,48.21-26,20.6-26Z"/><path class="cls-1" d="M70.78,133.27c-28.51,0-14.87,23.89,16.4,23.89a127,127,0,0,0,26.31-2.65c9,11.48,31,32.94,79.15,27.27,30.6,38.4,103.28,36.28,129,19.36,13.41,14.08,37.6,23.46,65.22,23.46A116,116,0,0,0,411.62,222c4.73,19.84,29.71,35,59.81,35A80.91,80.91,0,0,0,504.82,250c.79,24.44,36.49,44.1,80.42,44.1,42.6,0,77.44-18.47,80.27-41.85a119.89,119.89,0,0,0,33.17,4.55c39.68,0,72.38-18.21,77-41.7h.59c26.49,0,48.88-10.54,56.2-25a112,112,0,0,0,24,2.52c33.39,0,60.47-13.75,60.47-30.7a16.33,16.33,0,0,0-.55-4.1,131.27,131.27,0,0,0,19.48,1.42c32.88,0,48.21-26,20.6-26Z"/><path class="cls-1" d="M75.21,124.89c-28.51,0-14.87,23.9,16.4,23.9a127,127,0,0,0,26.31-2.65c9,11.48,31,32.94,79.15,27.27,30.6,38.4,103.28,36.28,129,19.35,13.41,14.08,37.6,23.47,65.22,23.47a116.05,116.05,0,0,0,24.75-2.64c4.73,19.83,29.71,35,59.81,35a80.92,80.92,0,0,0,33.38-6.91c.79,24.44,36.49,44.11,80.43,44.11,42.59,0,77.44-18.48,80.26-41.86a119.7,119.7,0,0,0,33.17,4.55c39.68,0,72.39-18.21,77-41.7h.59c26.49,0,48.88-10.55,56.2-25a112,112,0,0,0,24,2.52c33.39,0,60.47-13.75,60.47-30.7a16.33,16.33,0,0,0-.55-4.1,131.27,131.27,0,0,0,19.48,1.42c32.88,0,48.21-26,20.59-26Z"/><path class="cls-1" d="M79.65,116.52c-28.51,0-14.87,23.9,16.4,23.9a127,127,0,0,0,26.31-2.65c9,11.48,31,32.94,79.15,27.27,30.6,38.4,103.28,36.28,129,19.36,13.41,14.07,37.6,23.46,65.22,23.46a116,116,0,0,0,24.74-2.63c4.73,19.83,29.71,35,59.82,35a80.91,80.91,0,0,0,33.38-6.91c.79,24.44,36.49,44.11,80.43,44.11,42.59,0,77.44-18.48,80.26-41.86a119.7,119.7,0,0,0,33.17,4.55c39.69,0,72.39-18.21,77-41.7h.59c26.49,0,48.88-10.54,56.2-25a112,112,0,0,0,24,2.52c33.39,0,60.47-13.75,60.47-30.7a16.33,16.33,0,0,0-.55-4.1,131.26,131.26,0,0,0,19.48,1.42c32.88,0,48.21-26,20.59-26Z"/><path class="cls-1" d="M84.08,108.14c-28.52,0-14.87,23.89,16.4,23.89a127,127,0,0,0,26.31-2.64c9,11.48,31,32.94,79.15,27.27,30.6,38.4,103.28,36.28,129,19.35,13.41,14.08,37.6,23.47,65.22,23.47a116,116,0,0,0,24.74-2.64c4.73,19.84,29.71,35,59.82,35a80.91,80.91,0,0,0,33.38-6.91c.78,24.44,36.48,44.11,80.43,44.11,42.59,0,77.43-18.48,80.26-41.86A119.7,119.7,0,0,0,712,231.69c39.69,0,72.39-18.2,77-41.7h.59c26.49,0,48.88-10.54,56.2-25a112,112,0,0,0,24,2.52c33.39,0,60.47-13.75,60.47-30.7a16.33,16.33,0,0,0-.55-4.1,131.27,131.27,0,0,0,19.47,1.42c32.89,0,48.21-26,20.6-26Z"/><path class="cls-1" d="M88.51,99.77c-28.51,0-14.87,23.89,16.4,23.89A127,127,0,0,0,131.21,121c9,11.48,31,32.94,79.15,27.27,30.59,38.4,103.28,36.28,129,19.36,13.41,14.07,37.6,23.46,65.22,23.46a116,116,0,0,0,24.74-2.64c4.73,19.84,29.71,35,59.82,35a81,81,0,0,0,33.38-6.91c.79,24.43,36.49,44.1,80.43,44.1,42.59,0,77.43-18.48,80.26-41.85a119.9,119.9,0,0,0,33.17,4.54c39.69,0,72.39-18.2,77-41.7H794c26.49,0,48.88-10.54,56.2-25a112,112,0,0,0,24,2.52c33.39,0,60.47-13.75,60.47-30.7a16.21,16.21,0,0,0-.55-4.1,131.28,131.28,0,0,0,19.47,1.42c32.89,0,48.21-26,20.6-26Z"/><path class="cls-1" d="M92.94,91.39c-28.51,0-14.87,23.89,16.4,23.89a127,127,0,0,0,26.3-2.64c9,11.48,31,32.94,79.15,27.27,30.6,38.4,103.28,36.28,129,19.36,13.41,14.07,37.6,23.46,65.22,23.46a116,116,0,0,0,24.74-2.64c4.73,19.84,29.71,35,59.81,35A80.93,80.93,0,0,0,527,208.15c.78,24.43,36.48,44.1,80.43,44.1,42.59,0,77.43-18.48,80.26-41.85a119.71,119.71,0,0,0,33.17,4.55c39.68,0,72.39-18.21,77-41.71h.59c26.48,0,48.88-10.54,56.2-25a112,112,0,0,0,24,2.52c33.39,0,60.47-13.75,60.47-30.7a16.21,16.21,0,0,0-.55-4.1A131.27,131.27,0,0,0,958,117.36c32.89,0,48.21-26,20.6-26Z"/><path class="cls-1" d="M97.38,83c-28.51,0-14.87,23.89,16.4,23.89a127,127,0,0,0,26.3-2.64c9,11.48,31,32.94,79.15,27.27,30.6,38.4,103.28,36.28,129,19.36,13.41,14.07,37.6,23.46,65.22,23.46a116,116,0,0,0,24.74-2.64c4.73,19.84,29.71,35,59.81,35a80.93,80.93,0,0,0,33.39-6.91c.78,24.43,36.48,44.1,80.42,44.1,42.6,0,77.44-18.48,80.26-41.85a119.74,119.74,0,0,0,33.17,4.55c39.68,0,72.39-18.21,77-41.71h.59c26.48,0,48.87-10.54,56.19-25a112,112,0,0,0,24,2.52c33.39,0,60.47-13.75,60.47-30.7a16.09,16.09,0,0,0-.55-4.1A131.28,131.28,0,0,0,962.47,109c32.89,0,48.21-26,20.6-26Z"/><path class="cls-1" d="M101.81,74.65c-28.51,0-14.87,23.88,16.4,23.88a127,127,0,0,0,26.31-2.64c9,11.48,31,32.94,79.15,27.27,30.6,38.4,103.28,36.28,129,19.36,13.4,14.07,37.6,23.46,65.22,23.46a116,116,0,0,0,24.75-2.64c4.73,19.84,29.71,35,59.81,35a80.89,80.89,0,0,0,33.38-6.91c.79,24.44,36.49,44.1,80.43,44.1,42.6,0,77.44-18.47,80.26-41.86a119.74,119.74,0,0,0,33.17,4.55c39.68,0,72.38-18.2,77-41.7h.59c26.49,0,48.87-10.54,56.2-25a112,112,0,0,0,24,2.52c33.39,0,60.47-13.75,60.47-30.7a16.11,16.11,0,0,0-.55-4.1,131.26,131.26,0,0,0,19.48,1.42c32.89,0,48.21-26,20.6-26Z"/><path class="cls-3" d="M106.24,66.28c-28.51,0-14.87,23.88,16.4,23.88A127,127,0,0,0,149,87.52c9,11.48,31,32.94,79.15,27.27,30.6,38.4,103.28,36.28,129,19.35,13.4,14.08,37.6,23.47,65.22,23.47A116,116,0,0,0,447.09,155c4.73,19.84,29.71,35,59.81,35A80.89,80.89,0,0,0,540.28,183c.79,24.44,36.49,44.1,80.43,44.1,42.6,0,77.44-18.47,80.27-41.86a119.71,119.71,0,0,0,33.17,4.55c39.68,0,72.38-18.2,77-41.7h.59c26.49,0,48.87-10.54,56.2-25a112,112,0,0,0,24,2.52c33.39,0,60.47-13.75,60.47-30.7a16.06,16.06,0,0,0-.55-4.1,131.24,131.24,0,0,0,19.48,1.42c32.89,0,48.21-26,20.6-26Z"/><path class="cls-3" d="M110.68,57.91c-28.51,0-14.87,23.88,16.4,23.88a127.21,127.21,0,0,0,26.31-2.64c9,11.48,31,32.93,79.15,27.26,30.6,38.4,103.27,36.27,129,19.35,13.41,14.08,37.6,23.47,65.22,23.47a116,116,0,0,0,24.75-2.64c4.73,19.84,29.71,35,59.81,35a80.89,80.89,0,0,0,33.38-6.91c.79,24.43,36.49,44.11,80.43,44.11,42.6,0,77.43-18.48,80.26-41.86a119.73,119.73,0,0,0,33.17,4.55c39.68,0,72.38-18.21,77-41.71h.59c26.49,0,48.88-10.54,56.2-25a112,112,0,0,0,24,2.52c33.39,0,60.47-13.75,60.47-30.7a16.05,16.05,0,0,0-.55-4.09,131.33,131.33,0,0,0,19.48,1.42c32.89,0,48.21-26,20.6-26Z"/></g><path class="cls-1" d="M17.58,233.77c-28.51,0-14.87,23.89,16.4,23.89A127.08,127.08,0,0,0,60.29,255c9,11.48,31,32.94,79.15,27.27,30.6,38.37,103.28,36.24,129,19.33,13.41,14.08,37.6,23.47,65.22,23.47a116,116,0,0,0,24.74-2.64c4.74,19.84,29.71,35,59.81,35a80.89,80.89,0,0,0,33.38-6.91c.79,24.43,36.49,44.11,80.43,44.11,42.59,0,77.43-18.48,80.27-41.86a119.64,119.64,0,0,0,33.16,4.55c39.68,0,72.38-18.21,77-41.71h.59c26.49,0,48.88-10.54,56.2-25a111.64,111.64,0,0,0,24,2.52c33.39,0,60.47-13.74,60.47-30.7a16,16,0,0,0-.55-4.09,131.3,131.3,0,0,0,19.48,1.42c32.88,0,48.21-26,20.6-26Z"/><g class="cls-4"><path class="cls-1" d="M-980.47,148.6c-31.07,0-16.21,26,17.87,26a138.4,138.4,0,0,0,28.67-2.89c9.79,12.51,33.75,35.9,86.26,29.72,33.34,41.85,112.55,39.53,140.61,21.09,14.61,15.34,41,25.58,71.08,25.58a126.47,126.47,0,0,0,27-2.88c5.16,21.61,32.37,38.11,65.18,38.11a88.18,88.18,0,0,0,36.38-7.53c.86,26.63,39.76,48.07,87.65,48.07,46.42,0,84.39-20.14,87.47-45.62a130.45,130.45,0,0,0,36.14,5c43.24,0,78.88-19.84,83.95-45.44h.64c28.87,0,53.27-11.49,61.24-27.28a122.09,122.09,0,0,0,26.13,2.74c36.39,0,65.9-15,65.9-33.46a17.8,17.8,0,0,0-.6-4.46,143.05,143.05,0,0,0,21.23,1.55c35.84,0,52.54-28.32,22.44-28.32Z"/><path class="cls-1" d="M-975.64,139.47c-31.07,0-16.21,26,17.87,26a138.37,138.37,0,0,0,28.67-2.89c9.79,12.51,33.75,35.9,86.26,29.72,33.34,41.85,112.55,39.53,140.61,21.1,14.61,15.33,41,25.57,71.08,25.57a126.38,126.38,0,0,0,27-2.87c5.16,21.61,32.38,38.11,65.19,38.11a88.17,88.17,0,0,0,36.38-7.53c.86,26.63,39.76,48.07,87.65,48.07,46.42,0,84.39-20.14,87.47-45.62a130.45,130.45,0,0,0,36.14,5c43.25,0,78.89-19.84,83.95-45.44h.64c28.87,0,53.27-11.49,61.24-27.27a122.08,122.08,0,0,0,26.14,2.74c36.39,0,65.9-15,65.9-33.46a17.8,17.8,0,0,0-.6-4.46,143,143,0,0,0,21.23,1.55c35.84,0,52.54-28.32,22.44-28.32Z"/><path class="cls-1" d="M-970.81,130.35c-31.08,0-16.21,26,17.87,26a138.38,138.38,0,0,0,28.67-2.88c9.79,12.51,33.75,35.89,86.26,29.71,33.34,41.84,112.55,39.53,140.61,21.09,14.61,15.34,41,25.58,71.08,25.58a126.4,126.4,0,0,0,27-2.88c5.16,21.62,32.38,38.11,65.19,38.11a88.17,88.17,0,0,0,36.38-7.53c.86,26.63,39.76,48.07,87.65,48.07,46.42,0,84.39-20.14,87.47-45.62a130.45,130.45,0,0,0,36.14,5c43.25,0,78.89-19.84,83.95-45.44h.64c28.87,0,53.27-11.48,61.24-27.27A122.06,122.06,0,0,0-114.58,195c36.39,0,65.9-15,65.9-33.46a17.8,17.8,0,0,0-.6-4.46,143.06,143.06,0,0,0,21.22,1.55c35.84,0,52.54-28.32,22.45-28.32Z"/><path class="cls-1" d="M-966,121.22c-31.07,0-16.21,26,17.87,26a138.38,138.38,0,0,0,28.67-2.88c9.79,12.51,33.75,35.89,86.26,29.71,33.34,41.84,112.55,39.53,140.6,21.1,14.61,15.33,41,25.57,71.08,25.57a126.36,126.36,0,0,0,27-2.88c5.16,21.62,32.38,38.11,65.19,38.11A88.24,88.24,0,0,0-493,248.46c.86,26.63,39.76,48.06,87.65,48.06,46.42,0,84.39-20.14,87.47-45.61a130.67,130.67,0,0,0,36.14,4.95c43.25,0,78.89-19.84,83.95-45.44h.64c28.86,0,53.27-11.49,61.24-27.27a122.05,122.05,0,0,0,26.13,2.74c36.39,0,65.9-15,65.9-33.46a17.67,17.67,0,0,0-.6-4.46,143.07,143.07,0,0,0,21.22,1.55c35.84,0,52.54-28.32,22.45-28.32Z"/><path class="cls-1" d="M-961.15,112.09c-31.07,0-16.21,26,17.87,26a138.39,138.39,0,0,0,28.66-2.88c9.79,12.51,33.75,35.89,86.26,29.71,33.34,41.84,112.55,39.53,140.6,21.1,14.61,15.33,41,25.57,71.08,25.57a126.41,126.41,0,0,0,27-2.88c5.16,21.62,32.38,38.12,65.18,38.12a88.2,88.2,0,0,0,36.38-7.53c.86,26.63,39.76,48.06,87.65,48.06,46.42,0,84.39-20.14,87.47-45.61a130.46,130.46,0,0,0,36.15,5c43.25,0,78.88-19.85,83.94-45.45h.65c28.86,0,53.27-11.48,61.24-27.27a122,122,0,0,0,26.13,2.74c36.39,0,65.9-15,65.9-33.46a17.66,17.66,0,0,0-.6-4.46,143.05,143.05,0,0,0,21.23,1.55c35.84,0,52.54-28.32,22.45-28.32Z"/><path class="cls-1" d="M-956.32,103c-31.07,0-16.21,26,17.87,26a138.39,138.39,0,0,0,28.66-2.88C-900,138.63-876,162-823.53,155.84c33.34,41.84,112.55,39.53,140.61,21.1,14.61,15.33,41,25.57,71.08,25.57a126.43,126.43,0,0,0,27-2.88c5.16,21.62,32.38,38.12,65.18,38.12a88.2,88.2,0,0,0,36.38-7.53c.86,26.63,39.76,48.06,87.65,48.06,46.42,0,84.39-20.14,87.47-45.61a130.49,130.49,0,0,0,36.15,5c43.24,0,78.88-19.84,83.94-45.45h.65c28.86,0,53.26-11.48,61.24-27.27a122.07,122.07,0,0,0,26.13,2.74c36.39,0,65.9-15,65.9-33.46a17.54,17.54,0,0,0-.6-4.46,143.07,143.07,0,0,0,21.23,1.55c35.84,0,52.54-28.32,22.45-28.32Z"/><path class="cls-1" d="M-951.49,93.85c-31.07,0-16.21,26,17.87,26A138.42,138.42,0,0,0-905,117c9.79,12.51,33.75,35.89,86.26,29.71,33.34,41.84,112.55,39.53,140.6,21.1,14.61,15.33,41,25.57,71.08,25.57a126.45,126.45,0,0,0,27-2.88c5.16,21.62,32.37,38.11,65.18,38.11a88.15,88.15,0,0,0,36.38-7.53c.86,26.63,39.76,48.06,87.65,48.06,46.42,0,84.39-20.13,87.47-45.62a130.49,130.49,0,0,0,36.15,5c43.24,0,78.88-19.84,83.94-45.44h.65c28.87,0,53.26-11.48,61.24-27.27a122,122,0,0,0,26.13,2.74c36.39,0,65.9-15,65.9-33.46a17.55,17.55,0,0,0-.6-4.46,143,143,0,0,0,21.23,1.55c35.84,0,52.54-28.31,22.45-28.31Z"/><path class="cls-3" d="M-946.66,84.72c-31.07,0-16.21,26,17.87,26a138.45,138.45,0,0,0,28.67-2.88c9.79,12.51,33.75,35.89,86.26,29.72,33.34,41.84,112.55,39.53,140.6,21.09,14.61,15.34,41,25.58,71.08,25.58a126.44,126.44,0,0,0,27-2.88C-570,203-542.84,219.49-510,219.49A88.16,88.16,0,0,0-473.65,212C-472.79,238.59-433.89,260-386,260c46.42,0,84.39-20.13,87.47-45.62a130.46,130.46,0,0,0,36.15,5c43.24,0,78.88-19.84,83.94-45.44h.65c28.86,0,53.26-11.48,61.24-27.27a122,122,0,0,0,26.13,2.74c36.39,0,65.9-15,65.9-33.46a17.51,17.51,0,0,0-.6-4.46A143,143,0,0,0-3.9,113c35.84,0,52.54-28.3,22.45-28.3Z"/><path class="cls-3" d="M-941.83,75.61c-31.07,0-16.21,26,17.87,26a138.63,138.63,0,0,0,28.67-2.88c9.79,12.51,33.75,35.89,86.26,29.71,33.34,41.84,112.55,39.53,140.6,21.09,14.61,15.34,41,25.58,71.08,25.58a126.44,126.44,0,0,0,27-2.88c5.16,21.62,32.37,38.11,65.18,38.11a88.15,88.15,0,0,0,36.38-7.53c.86,26.63,39.77,48.07,87.65,48.07,46.42,0,84.39-20.14,87.47-45.62a130.48,130.48,0,0,0,36.15,5c43.24,0,78.88-19.84,83.94-45.45h.65c28.87,0,53.26-11.48,61.24-27.27a122,122,0,0,0,26.13,2.74c36.39,0,65.9-15,65.9-33.46a17.49,17.49,0,0,0-.6-4.46A143.12,143.12,0,0,0,.93,103.89c35.84,0,52.54-28.3,22.45-28.3Z"/></g><path class="cls-1" d="M-1043.28,267.25c-31.07,0-16.21,26,17.87,26a138.49,138.49,0,0,0,28.67-2.89c9.78,12.51,33.74,35.89,86.25,29.72,33.34,41.82,112.55,39.5,140.61,21.06,14.61,15.34,41,25.58,71.08,25.58a126.43,126.43,0,0,0,27-2.88c5.16,21.62,32.38,38.11,65.18,38.11a88.16,88.16,0,0,0,36.38-7.53c.86,26.63,39.76,48.07,87.65,48.07,46.42,0,84.39-20.14,87.47-45.62a130.39,130.39,0,0,0,36.14,5c43.25,0,78.88-19.84,83.94-45.45h.64c28.87,0,53.27-11.48,61.25-27.26A121.66,121.66,0,0,0-187,331.91c36.39,0,65.9-15,65.9-33.46a17.47,17.47,0,0,0-.6-4.46,143.09,143.09,0,0,0,21.23,1.55c35.83,0,52.54-28.32,22.45-28.32Z"/><rect class="cls-5" x="667.5" y="90.48" width="5.57" height="17.12"/><polygon class="cls-6" points="767.87 156.11 674.54 156.11 617.05 100.51 624.02 93.31 678.6 146.09 767.87 146.09 767.87 156.11"/><path class="cls-6" d="M294.59,181.85l-3.1-7.81c-1.3-3.26-31.75-80-35.4-96.15a39.48,39.48,0,1,1,77,0C329.45,94.05,299,170.78,297.7,174Zm0-145.49a32.8,32.8,0,0,0-32,40c2.87,12.7,23.95,66.84,32,87.3,8-20.46,29.13-74.59,32-87.29a32.82,32.82,0,0,0-32-40Z"/><path class="cls-6" d="M294.59,91.33A22.13,22.13,0,1,1,316.74,69.2,22.16,22.16,0,0,1,294.59,91.33Zm0-40.93A18.79,18.79,0,1,0,313.4,69.2,18.82,18.82,0,0,0,294.59,50.4Z"/><path class="cls-6" d="M292,62.63A3.94,3.94,0,1,1,288,58.7,3.94,3.94,0,0,1,292,62.63"/><rect class="cls-6" x="441.18" y="84.01" width="163.53" height="10.02"/><path class="cls-6" d="M305.1,75.76a3.94,3.94,0,1,1-3.94-3.93,3.94,3.94,0,0,1,3.94,3.93"/><rect class="cls-6" x="281.67" y="66.77" width="25.57" height="4.4" transform="translate(37.34 228.2) rotate(-44.95)"/><path class="cls-5" d="M604.72,142.05a33.2,33.2,0,1,1,33.2-33.2A33.23,33.23,0,0,1,604.72,142.05Zm0-39.67a6.47,6.47,0,1,0,6.47,6.47A6.47,6.47,0,0,0,604.72,102.38Z"/><path class="cls-6" d="M604.72,133.7a24.85,24.85,0,1,1,24.84-24.85A24.87,24.87,0,0,1,604.72,133.7Zm0-39.67a14.82,14.82,0,1,0,14.82,14.82A14.84,14.84,0,0,0,604.72,94Z"/><path class="cls-6" d="M651.78,185H557.66v-5c0-21.57,21.11-39.12,47.06-39.12s47.06,17.55,47.06,39.12Zm-83.55-10h73c-3-13.66-18.24-24.09-36.49-24.09S571.26,161.27,568.23,174.93Z"/><path class="cls-6" d="M523.56,139.55a14.19,14.19,0,1,1,14.2-14.19A14.21,14.21,0,0,1,523.56,139.55Zm0-21.7a7.51,7.51,0,1,0,7.52,7.51A7.52,7.52,0,0,0,523.56,117.85Z"/><path class="cls-6" d="M549.91,169.29h-52.7V166c0-12.13,11.82-22,26.35-22s26.35,9.87,26.35,22Zm-45.54-6.68h38.39c-2-6.85-9.82-12-19.2-12S506.33,155.76,504.37,162.61Z"/><path class="cls-6" d="M559.45,119.73a8,8,0,1,1,8-8A8,8,0,0,1,559.45,119.73Zm0-12.7a4.68,4.68,0,1,0,4.68,4.68A4.69,4.69,0,0,0,559.45,107Z"/><path class="cls-6" d="M574.58,137.83H544.32v-1.67c0-6.94,6.79-12.59,15.13-12.59s15.13,5.65,15.13,12.59Zm-26.73-3.34H571c-1-4.31-5.82-7.58-11.59-7.58S548.86,130.18,547.85,134.49Z"/><rect class="cls-6" x="455.1" y="117.26" width="10.02" height="51.91"/><rect class="cls-6" x="434.16" y="138.22" width="51.91" height="10.02"/><path class="cls-6" d="M775.7,129.75H677V76.05H775.7ZM680.3,126.4h92.07v-47H680.3Z"/><rect class="cls-7" x="757.76" y="84.68" width="8.26" height="8.26"/><path class="cls-6" d="M767.3,94.23H756.47V83.4H767.3ZM759,91.65h5.69V86H759Z"/><rect class="cls-6" x="705.75" y="102.34" width="18.45" height="3.46"/><rect class="cls-6" x="705.75" y="109.21" width="22.77" height="3.46"/><rect class="cls-6" x="102.2" y="133.98" width="71.92" height="3.34"/><rect class="cls-6" x="121.9" y="122.3" width="52.22" height="2.51"/><rect class="cls-6" x="60.73" y="146.06" width="113.38" height="10.02"/><rect class="cls-6" x="702.94" y="173.49" width="94.53" height="3.34"/><rect class="cls-6" x="682.12" y="164.28" width="94.53" height="3.34"/><polygon class="cls-6" points="421.4 179.22 346.96 179.22 346.96 83.87 411.14 83.87 411.14 87.21 350.3 87.21 350.3 175.88 418.06 175.88 418.06 71.86 446.9 71.91 446.9 47.66 466.95 47.66 466.95 71.92 472.06 71.92 472.06 38.08 492.11 38.08 492.11 71.92 497.2 71.92 497.2 42.64 517.24 42.64 517.24 71.92 522.34 71.92 522.34 19.81 542.38 19.81 542.38 71.94 547.49 72 547.49 12.03 567.54 12.03 567.54 73.58 564.2 73.58 564.2 15.37 550.83 15.37 550.83 75.39 539.04 75.23 539.04 23.15 525.68 23.15 525.68 75.26 513.9 75.26 513.9 45.98 500.54 45.98 500.54 75.26 488.77 75.26 488.77 41.42 475.4 41.42 475.4 75.26 463.61 75.26 463.61 51.01 450.25 51.01 450.25 75.26 421.4 75.21 421.4 179.22"/><rect class="cls-6" x="357.18" y="141.44" width="77.39" height="3.34"/><rect class="cls-6" x="357.17" y="148.92" width="14" height="2.51"/><rect class="cls-6" x="357.17" y="111" width="25.42" height="13.88"/><rect class="cls-6" x="386.28" y="111" width="10.61" height="13.88"/><rect class="cls-6" x="400.57" y="111" width="10.61" height="13.88"/><rect class="cls-6" x="357.17" y="102.96" width="25.42" height="4.75"/><rect class="cls-6" x="386.28" y="102.96" width="10.61" height="4.75"/><rect class="cls-6" x="400.57" y="102.96" width="10.61" height="4.75"/><rect class="cls-6" x="357.17" y="94.93" width="25.42" height="4.74"/><rect class="cls-6" x="386.28" y="94.93" width="10.61" height="4.74"/><path class="cls-6" d="M243,182H188.92V98.86H243Zm-50.74-3.34h47.4V102.2h-47.4Z"/><path class="cls-6" d="M205.67,132.81a3.59,3.59,0,1,1-3.59-3.58A3.59,3.59,0,0,1,205.67,132.81Z"/><circle class="cls-6" cx="215.99" cy="132.81" r="3.59"/><circle class="cls-6" cx="229.9" cy="132.81" r="3.59"/><ellipse class="cls-6" cx="202.08" cy="144.21" rx="3.59" ry="3.58"/><ellipse class="cls-6" cx="215.99" cy="144.21" rx="3.59" ry="3.58"/><circle class="cls-6" cx="229.9" cy="144.21" r="3.59"/><circle class="cls-6" cx="202.08" cy="155.59" r="3.59"/><circle class="cls-6" cx="215.99" cy="155.59" r="3.59"/><circle class="cls-6" cx="229.9" cy="155.59" r="3.59"/><ellipse class="cls-6" cx="202.09" cy="166.98" rx="3.58" ry="3.59"/><circle class="cls-6" cx="215.99" cy="166.98" r="3.59"/><circle class="cls-6" cx="229.9" cy="166.98" r="3.59"/><polygon class="cls-6" points="729.39 98.92 665.94 98.92 642.3 76.07 614.54 76.07 614.54 39.95 623.04 27.05 636.24 27.05 644.73 39.95 644.73 68.29 641.27 68.29 641.27 40.99 634.38 30.51 624.9 30.51 618 40.99 618 72.62 643.7 72.62 667.33 95.46 729.39 95.47 729.39 98.92"/><circle class="cls-7" cx="629.64" cy="35.39" r="2.99"/><path class="cls-7" d="M629,65.66a7.27,7.27,0,0,1-4.8-2.15l1.36-1.88A5.9,5.9,0,0,0,629,63.49v-4c-2.12-.54-4.35-1.29-4.35-4,0-2.1,1.69-3.76,4.35-4v-1.9h1.65v1.91a7,7,0,0,1,4.14,1.87l-1.36,1.79a5.54,5.54,0,0,0-2.78-1.46v3.56c2.14.56,4.47,1.36,4.47,4.12,0,2.1-1.38,4-4.47,4.23v1.85H629Zm0-8.78V53.65c-1.15.14-1.87.79-1.87,1.69S627.89,56.55,629,56.88Zm1.65,3v3.58c1.42-.21,2-1.05,2-1.86S631.76,60.28,630.63,59.93Z"/><rect class="cls-6" x="102.19" y="166.3" width="71.92" height="10.02"/><rect class="cls-5" x="229.26" y="115.88" width="15.76" height="5.16"/><polygon class="cls-6" points="274.45 122.85 198.17 122.85 198.17 107.6 233.75 107.6 233.75 115.92 230.41 115.92 230.41 110.94 201.51 110.94 201.51 119.51 274.45 119.51 274.45 122.85"/><rect class="cls-5" x="673.08" y="98.93" width="35.56" height="3.3"/><rect class="cls-5" x="259.48" y="115.88" width="21.93" height="3.58"/><circle class="cls-8" cx="95.21" cy="206.96" r="3.84"/><circle class="cls-8" cx="112.06" cy="206.96" r="3.83"/><circle class="cls-8" cx="128.91" cy="206.96" r="3.84"/><circle class="cls-8" cx="145.75" cy="206.96" r="3.83"/><circle class="cls-8" cx="162.6" cy="206.96" r="3.83"/><circle class="cls-8" cx="179.45" cy="206.96" r="3.84"/><circle class="cls-8" cx="196.3" cy="206.96" r="3.83"/><circle class="cls-8" cx="213.14" cy="206.96" r="3.83"/><circle class="cls-8" cx="229.99" cy="206.96" r="3.83"/><circle class="cls-8" cx="246.84" cy="206.96" r="3.83"/><circle class="cls-8" cx="263.69" cy="206.96" r="3.83"/><circle class="cls-8" cx="280.53" cy="206.96" r="3.84"/><ellipse class="cls-8" cx="297.38" cy="206.96" rx="3.83" ry="3.84"/><circle class="cls-8" cx="314.23" cy="206.96" r="3.83"/><circle class="cls-8" cx="331.07" cy="206.96" r="3.83"/><circle class="cls-8" cx="347.92" cy="206.96" r="3.83"/><circle class="cls-8" cx="364.77" cy="206.96" r="3.83"/><circle class="cls-8" cx="381.62" cy="206.96" r="3.83"/><circle class="cls-8" cx="398.46" cy="206.96" r="3.83"/><circle class="cls-8" cx="415.31" cy="206.96" r="3.83"/><circle class="cls-8" cx="432.16" cy="206.96" r="3.83"/><circle class="cls-8" cx="449" cy="206.96" r="3.83"/><circle class="cls-8" cx="465.85" cy="206.96" r="3.83"/><circle class="cls-8" cx="482.69" cy="206.96" r="3.83"/><circle class="cls-8" cx="499.54" cy="206.96" r="3.84"/><circle class="cls-8" cx="516.39" cy="206.96" r="3.83"/><circle class="cls-8" cx="533.24" cy="206.96" r="3.83"/><circle class="cls-8" cx="550.08" cy="206.96" r="3.83"/><path class="cls-8" d="M570.77,207a3.83,3.83,0,1,1-3.83-3.83A3.84,3.84,0,0,1,570.77,207Z"/><circle class="cls-8" cx="583.78" cy="206.96" r="3.84"/><circle class="cls-8" cx="600.63" cy="206.96" r="3.84"/><circle class="cls-8" cx="617.48" cy="206.96" r="3.83"/><circle class="cls-8" cx="634.32" cy="206.96" r="3.84"/><circle class="cls-8" cx="651.17" cy="206.96" r="3.84"/><circle class="cls-8" cx="668.02" cy="206.96" r="3.83"/><circle class="cls-8" cx="684.86" cy="206.96" r="3.83"/><circle class="cls-8" cx="701.71" cy="206.96" r="3.84"/><ellipse class="cls-8" cx="718.56" cy="206.96" rx="3.83" ry="3.84"/><circle class="cls-8" cx="735.4" cy="206.96" r="3.83"/><circle class="cls-8" cx="752.25" cy="206.96" r="3.84"/><circle class="cls-8" cx="769.11" cy="206.96" r="3.83"/><circle class="cls-8" cx="785.95" cy="206.96" r="3.83"/><circle class="cls-8" cx="802.79" cy="206.96" r="3.83"/><circle class="cls-8" cx="819.64" cy="206.96" r="3.83"/><circle class="cls-8" cx="836.49" cy="206.96" r="3.83"/><circle class="cls-8" cx="852.14" cy="206.96" r="3.83"/><circle class="cls-8" cx="867.92" cy="206.96" r="3.84"/><circle class="cls-8" cx="77.69" cy="206.96" r="4.51"/><path class="cls-8" d="M881.35,221.71l-805.64-.06a14.65,14.65,0,0,1,0-29.3H866v-15.9H828.26v-2.57h40.26v21H75.71a12.08,12.08,0,0,0,0,24.16l805.64.06Z"/><polyline class="cls-5" points="773.93 264.33 773.93 220.51 781.89 220.51 781.89 261.84"/><polygon class="cls-8" points="775.21 264.33 772.64 264.33 772.64 219.22 783.17 219.22 783.17 261.84 780.6 261.84 780.6 221.8 775.21 221.8 775.21 264.33"/><polyline class="cls-5" points="459.15 267.12 459.15 220.51 467.11 220.51 467.11 267.89"/><polygon class="cls-8" points="468.4 267.89 465.82 267.89 465.82 221.8 460.44 221.8 460.44 267.12 457.87 267.12 457.87 219.22 468.4 219.22 468.4 267.89"/><polyline class="cls-5" points="139.09 251.49 139.09 220.51 147.05 220.51 147.05 252.29"/><polygon class="cls-8" points="148.34 252.29 145.77 252.29 145.77 221.8 140.38 221.8 140.38 251.49 137.8 251.49 137.8 219.22 148.34 219.22 148.34 252.29"/><rect class="cls-5" x="460.52" y="260.57" width="5.33" height="10.79"/><rect class="cls-5" x="775.22" y="252.23" width="5.39" height="14.51"/><rect class="cls-6" x="789.57" y="168.48" width="49.17" height="13.36"/><path class="cls-6" d="M813,122.69s-9.69-11.85-15.36-18.26l-8,18.91c11.53,17.18,19.15,31.95,23.33,39,8.18-13.84,28.12-55,69.43-93.41l-4.56-10.74C851,78,828.12,103.37,813,122.69"/></svg>