<svg id="Layer_1" data-name="Layer 1" xmlns="http://www.w3.org/2000/svg" viewBox="0 0 183.48 200"><defs><style>.cls-1{fill:#5f6163;}.cls-2{fill:#919195;}</style></defs><title>DevDotSvgAssets</title><path class="cls-1" d="M103.49,76H79.39V51.92h24.09ZM85.36,70h12V58h-12Z"/><polygon class="cls-2" points="94.44 91.06 94.44 76.02 88.42 76.02 88.42 91.06 43.28 91.06 43.28 108.3 49.3 108.3 49.3 97.08 88.42 97.08 88.42 108.3 94.44 108.3 94.44 97.08 133.58 97.08 133.58 108.3 139.6 108.3 139.6 91.06 94.44 91.06"/><path class="cls-1" d="M46.29,133.21a15,15,0,1,1,15-15A15,15,0,0,1,46.29,133.21Zm0-24.08a9.06,9.06,0,1,0,9.06,9.06,9.06,9.06,0,0,0-9.06-9.06h0Z"/><path class="cls-1" d="M91.43,133.21a15,15,0,1,1,15-15h0A15.07,15.07,0,0,1,91.43,133.21Zm0-24.08a9.06,9.06,0,1,0,9.06,9.06,9.06,9.06,0,0,0-9.06-9.06h0Z"/><path class="cls-1" d="M136.59,133.21a15,15,0,1,1,15-15A15,15,0,0,1,136.59,133.21Zm0-24.08a9.06,9.06,0,1,0,9.06,9.06,9.06,9.06,0,0,0-9.06-9.06h0Z"/><path class="cls-1" d="M180.24,150.75V32.36H94.44V21.83a3,3,0,0,0-6,0V32.36H2.63V150.47a3,3,0,0,0,.18,6H84.12l-37,37a3,3,0,0,0,4.26,4.26l37-37V189.6a3,3,0,0,0,6,0V160.74l37,37a3,3,0,0,0,4.26-4.26l0,0-37-37h80.42a3,3,0,0,0,1.1-5.77Zm-3-115.38V150.44H5.63V35.36"/></svg>