<svg id="Layer_1" data-name="Layer 1" xmlns="http://www.w3.org/2000/svg" viewBox="0 0 200.14 200"><defs><style>.cls-1{fill:#0680ae;}.cls-2{fill:#0a9bd2;}</style></defs><title>DevDotSvgAssets</title><path class="cls-1" d="M200.14,196.94V2.23l.28-.28-.28-.28v-2H0V199.8H200.14v-2.3l.28-.28Zm-3-3L172.24,169V30.13l24.9-24.9ZM153.76,30.56,30.9,153.23V123.79l93.24-93.24Zm-122.87,89V87.11L87.26,30.56h32.64Zm0-36.69V30.56H83Zm0,86V156.57l.45.45L158,30.56h11.23v21.2L52.12,168.88l0,0ZM169.24,56V92L92.19,168.9H56.34Zm0,40.28v32.24L128.87,168.9H96.44Zm0,36.49V168.9H133.11Zm1.33-105.21H123.89l-.5-.5-.5.5H30.3L5.4,2.66H195.47ZM27.9,29.4V169.78L3,194.68V4.5ZM30,171.9H170.86l24.9,24.9H5.12Z"/><circle class="cls-2" cx="190.37" cy="25.26" r="3.41"/><circle class="cls-2" cx="181.56" cy="33.75" r="3.41"/><circle class="cls-2" cx="33.4" cy="180.89" r="3.41"/><circle class="cls-2" cx="24.59" cy="189.38" r="3.41"/><circle class="cls-2" cx="18.87" cy="167.66" r="3.41"/><circle class="cls-2" cx="10.06" cy="176.15" r="3.41"/><circle class="cls-2" cx="176.65" cy="10.08" r="3.41"/><circle class="cls-2" cx="167.84" cy="18.57" r="3.41"/><circle class="cls-2" cx="175.12" cy="190.41" r="3.41"/><circle class="cls-2" cx="166.63" cy="181.6" r="3.41"/><circle class="cls-2" cx="19.49" cy="33.43" r="3.41"/><circle class="cls-2" cx="11" cy="24.62" r="3.41"/><circle class="cls-2" cx="32.72" cy="18.9" r="3.41"/><circle class="cls-2" cx="24.23" cy="10.1" r="3.41"/><circle class="cls-2" cx="190.3" cy="176.68" r="3.41"/><circle class="cls-2" cx="181.8" cy="167.87" r="3.41"/></svg>