<?xml version="1.0" encoding="utf-8"?>
<!-- Generator: Adobe Illustrator 20.0.0, SVG Export Plug-In . SVG Version: 6.00 Build 0)  -->
<svg version="1.1" id="Layer_1" xmlns="http://www.w3.org/2000/svg" xmlns:xlink="http://www.w3.org/1999/xlink" x="0px" y="0px"
	 viewBox="0 0 249.6 200" style="enable-background:new 0 0 249.6 200;" xml:space="preserve">
<style type="text/css">
	.st0{fill:#0680AE;}
	.st1{fill:none;stroke:#0680AE;stroke-width:2.9453;stroke-miterlimit:10;}
	.st2{fill:#0A9BD2;}
</style>
<title>DevDotSvgAssets</title>
<path class="st0" d="M54.9,86.2c-4.4,9.9-3.6,25.4-2.4,41.7c0.8,12.5,1.6,29.4-1.6,34c-5.8,7.7-17.1,12.1-26.4,4.8
	c-6.6-4.6-10.9-14.9-1.6-27.8c9.3-13.3,16.1-28.2,19.9-43.9c0,0,0.8-14.3,15.5-24.2c2.4-1.6,4.8-3.6,5-6.6c0.4-3.6-2.4-6.2-7.7-11.5
	l-3.2-3.2c-1.7-2.1-2.4-4.9-2-7.5c0.4-3.8,4.8-15.1,17.5-22.8l-5.2-8.3c-22.1,9.8-29.6,40.2-29.2,60c0.2,7.4-1,33.6-20.5,61.2
	c-13.1,18.7-7.1,36.1,3.9,44.7c5.1,3.9,11.4,6,17.9,6c1.1,0,2.3,0,3.4-0.2c8.6-1.2,16.5-5.7,21.8-12.5c6.6-7.9,5.4-23.8,4.2-42.5
	c-1-13.5-1.4-28.8,1.8-36c2.1-4.9,6.3-8.5,11.5-9.7V69.1C70,70.7,59.9,75.1,54.9,86.2z M43.2,73.9c0-8.1,0.8-16.1,2.2-24l0.4,0.4
	l4.6,4.6c2.9,2.6,5.6,5.5,7.9,8.5c-0.8,0.8-1.7,1.5-2.6,2.2c-4.6,3.2-8.8,7-12.5,11.1V73.9z"/>
<path class="st1" d="M184.2,189.5V11.7c-0.2-4.7-4-8.6-8.7-8.7H84.9c-4.8,0-7.5,3.9-7.5,8.7v177.8 M171.9,69.9
	c-0.1,2.8-2.3,5.1-5.2,5.2H95c-2.8-0.1-5.1-2.3-5.2-5.2V20.7c0.1-2.8,2.3-5.1,5.2-5.2h71.7c2.8,0.1,5.1,2.3,5.2,5.2V69.9z"/>
<path class="st0" d="M249.6,199.4H64.2c-3.2,0-5.8-2.6-5.8-5.8l0,0c0-3.2,2.6-5.8,5.8-5.8h167.1"/>
<path class="st2" d="M101.7,91.4h-3.4c-1.9,0-3.4-1.5-3.4-3.4c0-1.9,1.5-3.4,3.4-3.4h3.4c1.8,0.1,3.3,1.5,3.4,3.4
	C105.1,89.9,103.7,91.4,101.7,91.4C101.8,91.4,101.8,91.4,101.7,91.4z"/>
<path class="st2" d="M112.1,91.4c-1.8-0.1-3.3-1.5-3.4-3.4c0-0.9,0.3-1.8,1-2.4c1.3-1.3,3.5-1.3,4.8,0c1.3,1.3,1.3,3.5,0,4.8l0,0
	C113.9,91,113,91.4,112.1,91.4L112.1,91.4z"/>
<path class="st2" d="M162.5,92h-17.1c-1.9,0-3.4-1.5-3.4-3.4c0-1.9,1.5-3.4,3.4-3.4h17.1c1.8,0.1,3.3,1.5,3.4,3.4
	c0.1,1.7-1.1,3.2-2.9,3.4C162.9,92,162.7,92,162.5,92z"/>
<path class="st2" d="M135.3,92c-0.9,0-1.8-0.3-2.4-1c-0.6-0.6-1-1.5-1-2.4c0-1.9,1.5-3.4,3.4-3.4c1.9,0,3.4,1.5,3.4,3.4
	c0,0.9-0.3,1.8-1,2.4C137.1,91.7,136.2,92.1,135.3,92z"/>
<path class="st0" d="M166.7,15.5H95c-2.8,0.1-5.1,2.3-5.2,5.2v49.3c0.1,2.8,2.3,5.1,5.2,5.2h71.7c2.8-0.1,5.1-2.3,5.2-5.2V20.7
	C171.8,17.9,169.5,15.6,166.7,15.5z M117.1,28.8c3-1.5,6.3-2.5,9.7-2.9c0.4,0,0.8,0.2,0.8,0.6l1.2,8.3c0,0.4-0.2,0.8-0.6,0.8
	c-2.2,0.3-4.4,0.9-6.4,2c-0.4,0-0.8,0-1-0.4l-4.2-7.4C116.7,29.4,116.7,29,117.1,28.8z M112.1,49.3c-0.4,1.6-0.6,3.3-0.6,5v1
	c0,0.4-0.2,0.8-0.6,0.8l-8.5,0.4c-0.3,0-0.6-0.3-0.6-0.6v-1.4c0-2.6,0.4-5.2,1-7.7c0.1-0.3,0.4-0.5,0.7-0.4c0,0,0.1,0,0.1,0l8.1,2.2
	C112.3,48.7,112.5,49.1,112.1,49.3z M113.9,45.4c-0.3,0.3-0.6,0.3-1,0.2l-7.4-3.9c-0.3-0.3-0.3-0.6-0.2-1c1.6-3,3.8-5.7,6.4-7.9
	c0.3-0.2,0.7-0.2,1,0l5.6,6.3c0.2,0.2,0.2,0.4,0.2,0.6c-0.2,0.2-0.3,0.4-0.4,0.6C116.4,41.6,114.9,43.3,113.9,45.4L113.9,45.4z
	 M130.8,65.8c-3.6,0-6.5-2.9-6.6-6.6v-0.6l-6.4-11.7c-0.2-0.1-0.2-0.4-0.1-0.5c0,0,0-0.1,0.1-0.1c0.3-0.3,0.6-0.3,1-0.2l11.5,6.8
	h0.4c3.5-0.1,6.4,2.6,6.6,6.1c0,0.1,0,0.2,0,0.3C137.3,62.8,134.4,65.7,130.8,65.8L130.8,65.8z M139.7,37.2h-0.6
	c-2-1-4.1-1.6-6.4-1.8c-0.4,0-0.6-0.4-0.6-0.8l0.8-8.5c0-0.4,0.4-0.6,0.8-0.6c3.4,0.4,6.6,1.3,9.7,2.7c0.4,0.2,0.4,0.6,0.2,1
	l-3.6,7.5C140.1,36.9,139.9,37.1,139.7,37.2L139.7,37.2z M147.4,44.6c-1.1-1.9-2.6-3.6-4.4-5c-0.4-0.2-0.4-0.6-0.2-1l5.4-7
	c0.3-0.2,0.7-0.2,1,0c2.6,2.2,4.8,4.8,6.5,7.7V40c0,0.2-0.2,0.4,0,0.4l-7.4,4.4C148,44.9,147.6,44.9,147.4,44.6L147.4,44.6z
	 M159.8,56.1c0,0.3-0.3,0.6-0.6,0.6l-8.5-0.4c-0.4,0-0.6-0.4-0.6-0.8v-1c0-2-0.2-3.9-0.8-5.8c-0.2-0.2,0-0.6,0.4-0.8l8.1-2.6
	c0.2-0.2,0.6,0,0.8,0.4c0.8,2.9,1.2,5.9,1.2,8.9L159.8,56.1z"/>
</svg>
