<?xml version="1.0" encoding="utf-8"?>
<!-- Generator: Adobe Illustrator 20.0.0, SVG Export Plug-In . SVG Version: 6.00 Build 0)  -->
<svg version="1.1" id="Layer_1" xmlns="http://www.w3.org/2000/svg" xmlns:xlink="http://www.w3.org/1999/xlink" x="0px" y="0px"
	 viewBox="0 0 100 100" style="enable-background:new 0 0 100 100;" xml:space="preserve">
<style type="text/css">
	.st0{fill:#059BD2;}
</style>
<title>DevDotSvgGAssets</title>
<path class="st0" d="M83.4,84.1H68.7v-26c0-4.1-3.3-7.3-7.3-7.3c-4.1,0-7.3,3.3-7.3,7.3v26H39.3V40.1H54v5.9
	c2.7-4.1,7.3-6.7,12.2-6.8c9.5,0,17.1,7.7,17.2,17.1c0,0,0,0,0,0 M22.2,31.8c-4.9,0-8.9-4-8.9-8.9c0-4.9,4-8.9,8.9-8.9l0,0
	c4.9,0,8.9,4,8.9,8.9C31.1,27.8,27.1,31.8,22.2,31.8L22.2,31.8 M29.5,84.1H14.9V40.1h14.7 M88.3,0.9H10c-5.4,0-9.8,4.3-9.8,9.7
	c0,0,0,0.1,0,0.1V89c0,5.4,4.4,9.8,9.8,9.8c0,0,0,0,0.1,0h78.3c5.4,0,9.8-4.4,9.8-9.8c0,0,0,0,0,0V10.7C98.1,5.3,93.7,0.9,88.3,0.9z
	"/>
</svg>
