<?xml version="1.0" encoding="utf-8"?>
<!-- Generator: Adobe Illustrator 20.1.0, SVG Export Plug-In . SVG Version: 6.00 Build 0)  -->
<svg version="1.1" id="Layer_1" xmlns="http://www.w3.org/2000/svg" xmlns:xlink="http://www.w3.org/1999/xlink" x="0px" y="0px"
	 viewBox="0 0 100 100" style="enable-background:new 0 0 100 100;" xml:space="preserve">
<style type="text/css">
	.st0{fill:#059BD2;}
</style>
<title>DevDotSvgGAssets</title>
<path class="st0" d="M49.5,2C23.2,2,2,23.3,2,49.5S23.2,97,49.5,97S97,75.8,97,49.5S75.7,2,49.5,2z M77.7,77.7
	c-3.7,3.7-7.9,6.5-12.7,8.6c-1.2,0.5-2.4,1-3.7,1.3l0-7.1c0-3.7-1.3-6.5-3.9-8.3c1.6-0.2,3.1-0.4,4.4-0.6c1.3-0.3,2.8-0.7,4.3-1.2
	c1.5-0.5,2.8-1.2,4-1.9s2.3-1.7,3.4-2.8c1.1-1.2,2-2.5,2.8-3.9c0.7-1.5,1.3-3.2,1.8-5.3c0.4-2.1,0.6-4.3,0.6-6.8
	c0-4.8-1.6-8.9-4.7-12.3c1.4-3.7,1.3-7.7-0.5-12.1l-1.2-0.1c-0.8-0.1-2.3,0.2-4.3,1c-2.1,0.8-4.4,2-7,3.8c-3.7-1-7.5-1.5-11.5-1.5
	c-4,0-7.8,0.5-11.4,1.5c-1.6-1.1-3.2-2-4.7-2.8c-1.5-0.7-2.6-1.2-3.5-1.5s-1.7-0.4-2.5-0.5s-1.2-0.1-1.5,0c-0.2,0-0.4,0.1-0.5,0.1
	c-1.7,4.4-1.9,8.4-0.5,12.1c-3.1,3.4-4.7,7.5-4.7,12.3c0,2.5,0.2,4.7,0.6,6.8s1,3.8,1.8,5.3c0.7,1.5,1.7,2.8,2.8,3.9
	c1.1,1.2,2.2,2.1,3.4,2.8s2.5,1.4,4,1.9c1.5,0.5,2.9,0.9,4.3,1.2c1.3,0.3,2.8,0.5,4.4,0.6c-2.5,1.7-3.8,4.5-3.8,8.3v7.3
	c-1.4-0.4-2.8-0.9-4.1-1.5c-4.8-2-9-4.9-12.7-8.6c-3.7-3.7-6.5-7.9-8.6-12.7c-2.1-4.9-3.1-10.1-3.1-15.5s1.1-10.6,3.1-15.5
	c2-4.8,4.9-9,8.6-12.7s7.9-6.5,12.7-8.6c4.9-2.1,10.1-3.1,15.5-3.1s10.6,1.1,15.5,3.1c4.8,2,9,4.9,12.7,8.6
	c3.7,3.7,6.5,7.9,8.6,12.7c2.1,4.9,3.1,10.1,3.1,15.5S88.3,60.1,86.3,65C84.2,69.8,81.4,74.1,77.7,77.7z"/>
</svg>
