<?xml version="1.0" encoding="utf-8"?>
<!-- Generator: Adobe Illustrator 21.0.1, SVG Export Plug-In . SVG Version: 6.00 Build 0)  -->
<svg version="1.1" id="Layer_1" xmlns="http://www.w3.org/2000/svg" xmlns:xlink="http://www.w3.org/1999/xlink" x="0px" y="0px"
	 viewBox="0 0 512 512" style="enable-background:new 0 0 512 512;" xml:space="preserve">
<path fill="#027FAD"  d="M144.5,491h-94V162h94V491z M97.5,115c-26,0-47-21-47-47s21-47,47-47s47,21,47,47S123.5,115,97.5,115z M473.5,491h-94V303
	c0-26-21-47-47-47s-47,21-47,47v188h-94V162h94v58.4c19.4-26.6,49-58.4,82.2-58.4c58.4,0,105.8,52.6,105.8,117.5V491z"/>
</svg>
