<svg id="Layer_1" data-name="Layer 1" xmlns="http://www.w3.org/2000/svg" viewBox="0 0 100 100"><defs><style>.cls-1{fill:#f60;}</style></defs><title>DevDotSvgGAssets</title><path class="cls-1" d="M49.85,1.67A48.75,48.75,0,1,0,98.6,50.41,48.8,48.8,0,0,0,49.85,1.67Zm0,94A45.24,45.24,0,1,1,95.09,50.41,45.3,45.3,0,0,1,49.85,95.66Z"/><polygon class="cls-1" points="62.17 45.37 53.1 45.37 53.1 56.27 42.45 56.27 54.42 28.36 45.35 28.36 32.05 58.66 32.05 63.71 53.1 63.71 53.1 72.46 62.17 72.46 62.17 63.71 67.65 63.71 67.65 56.27 62.17 56.27 62.17 45.37"/></svg>