<?xml version="1.0" encoding="utf-8"?>
<!-- Generator: Adobe Illustrator 20.0.0, SVG Export Plug-In . SVG Version: 6.00 Build 0)  -->
<svg version="1.1" id="Layer_1" xmlns="http://www.w3.org/2000/svg" xmlns:xlink="http://www.w3.org/1999/xlink" x="0px" y="0px"
	 viewBox="0 0 100 100" style="enable-background:new 0 0 100 100;" xml:space="preserve">
<style type="text/css">
	.st0{fill:#FF6600;}
</style>
<title>DevDotSvgGAssets</title>
<g>
	<path class="st0" d="M52.5,46.3c0,0-5.3-6.5-8.4-10l-4.4,10.4C46,56.1,50.1,64.2,52.4,68c4.5-7.6,15.4-30.1,38-51.2L88,11
		C73.3,21.8,60.8,35.7,52.5,46.3z"/>
	<path class="st0" d="M50.3,26.8c2.9,0,5.6,0.5,8.2,1.5l5.7-6.5c-4.2-2-8.9-3.2-13.9-3.2c-17.7,0-32.1,14.4-32.1,32.1
		s14.4,32.1,32.1,32.1s32.1-14.4,32.1-32.1c0-2.3-0.2-4.5-0.7-6.7l-7.6,6.4c0,0.1,0,0.2,0,0.2c0,13.1-10.7,23.8-23.8,23.8
		S26.5,63.8,26.5,50.7S37.2,26.8,50.3,26.8z"/>
	<path class="st0" d="M96.1,31.9l-6.7,5.7c1.4,4.1,2.2,8.5,2.2,13.1c0,22.7-18.5,41.2-41.2,41.2S9.1,73.4,9.1,50.7
		S27.6,9.4,50.3,9.4c7.3,0,14.1,1.9,20.1,5.3l5.5-6.3c-7.5-4.5-16.2-7.2-25.6-7.2C23,1.2,0.8,23.4,0.8,50.7s22.2,49.5,49.5,49.5
		S99.8,78,99.8,50.7C99.8,44,98.5,37.7,96.1,31.9z"/>
</g>
</svg>
