<svg id="Layer_1" data-name="Layer 1" xmlns="http://www.w3.org/2000/svg" viewBox="0 0 100 100"><defs><style>.cls-1{fill:#75c5e4;stroke:#76c4e3;}.cls-1,.cls-7{stroke-linecap:round;stroke-linejoin:round;}.cls-2{fill:#059bd2;}.cls-3{fill:#027fad;}.cls-4{fill:#f5f6fa;}.cls-5{fill:#fff;}.cls-6{fill:#3db0db;}.cls-7,.cls-8{fill:#e4eff6;}.cls-7{stroke:#099ad1;}</style></defs><title>DevDotSvgGAssets</title><path class="cls-1" d="M94.76,26.59H91.94a2,2,0,0,1-2-2V13.1a2,2,0,0,0-2-2H50.62a2,2,0,0,0-2,2V24.57a2,2,0,0,1-2,2H27.95V21.42H21.06v5.17H5.9a2.06,2.06,0,0,0-2.06,2.06V77.9A2.06,2.06,0,0,0,5.9,80H94.75a2.06,2.06,0,0,0,2.06-2.06V28.65A2.06,2.06,0,0,0,94.76,26.59Z"/><path class="cls-2" d="M48.61,24.57a2,2,0,0,1-2,2H27.95V21.42H21.06v5.17H5.9a2.06,2.06,0,0,0-2.06,2.06V77.9A2.06,2.06,0,0,0,5.9,80H48.61Z"/><rect class="cls-3" x="0.4" y="86.85" width="99.86" height="13.77"/><path class="cls-4" d="M33.11,95.46H9A1.72,1.72,0,1,1,9,92h24.1a1.72,1.72,0,1,1,0,3.44Z"/><path class="cls-4" d="M93.37,95.46H91.65a1.72,1.72,0,0,1,0-3.44h1.72a1.72,1.72,0,0,1,0,3.44Z"/><rect class="cls-5" x="53.77" y="16.26" width="30.99" height="18.94"/><rect class="cls-6" x="7.28" y="79.96" width="86.09" height="6.89"/><rect class="cls-2" x="53.77" y="42.08" width="6.89" height="6.89"/><rect class="cls-2" x="65.82" y="42.08" width="6.89" height="6.89"/><rect class="cls-2" x="77.88" y="42.08" width="6.89" height="6.89"/><rect class="cls-2" x="53.77" y="54.13" width="6.89" height="6.89"/><rect class="cls-2" x="65.82" y="54.13" width="6.89" height="6.89"/><rect class="cls-2" x="77.88" y="54.13" width="6.89" height="6.89"/><rect class="cls-2" x="53.77" y="66.19" width="6.89" height="6.89"/><rect class="cls-2" x="65.82" y="66.19" width="6.89" height="6.89"/><rect class="cls-2" x="77.88" y="66.19" width="6.89" height="6.89"/><rect class="cls-7" x="14.17" y="36.92" width="24.1" height="30.99"/><path class="cls-3" d="M27.95,62.74H19.34a1.72,1.72,0,1,1,0-3.44h8.61a1.72,1.72,0,0,1,0,3.44Z"/><path class="cls-3" d="M33.11,62.74a1.71,1.71,0,1,1,1.22-.5A1.81,1.81,0,0,1,33.11,62.74Z"/><path class="cls-3" d="M33.11,45.52H24.5a1.72,1.72,0,0,1,0-3.44h8.61a1.72,1.72,0,0,1,0,3.44Z"/><path class="cls-3" d="M67.55,23.14H58.94a1.72,1.72,0,0,1,0-3.44h8.61a1.72,1.72,0,0,1,0,3.44Z"/><path class="cls-3" d="M67.55,30H58.94a1.72,1.72,0,0,1,0-3.44h8.61a1.72,1.72,0,0,1,0,3.44Z"/><path class="cls-3" d="M33.11,54.13H31.39a1.72,1.72,0,0,1,0-3.44h1.72a1.72,1.72,0,0,1,0,3.44Z"/><path class="cls-3" d="M21.06,54.13H19.34a1.72,1.72,0,1,1,0-3.44h1.72a1.72,1.72,0,1,1,0,3.44Z"/><path class="cls-3" d="M19.34,45.52a1.81,1.81,0,0,1-1.22-.5,1.78,1.78,0,0,1-.5-1.22,1.72,1.72,0,1,1,3.44,0,1.78,1.78,0,0,1-.5,1.22A1.81,1.81,0,0,1,19.34,45.52Z"/><path class="cls-3" d="M26.22,54.13a1.71,1.71,0,0,1-1.72-1.72,1.77,1.77,0,0,1,.5-1.22,1.73,1.73,0,1,1,1.22,2.94Z"/><rect class="cls-8" x="5.56" y="0.76" width="37.88" height="22.38"/><rect class="cls-5" x="9.01" y="4.2" width="30.99" height="15.5"/><path class="cls-3" d="M14.83,6.06A1.73,1.73,0,0,0,13,6.43L11.23,8.15a1.72,1.72,0,0,0,1.22,2.94v5.17a1.72,1.72,0,0,0,3.44,0V7.65A1.74,1.74,0,0,0,15.76,7,1.72,1.72,0,0,0,14.83,6.06Z"/><path class="cls-3" d="M30.32,6.06a1.73,1.73,0,0,0-1.88.37L26.73,8.15a1.72,1.72,0,0,0,1.22,2.94v5.17a1.72,1.72,0,0,0,3.44,0V7.65A1.74,1.74,0,0,0,31.26,7,1.72,1.72,0,0,0,30.32,6.06Z"/><path class="cls-3" d="M21.56,13.32,19.84,15a1.72,1.72,0,1,0,2.43,2.43L24,15.75a1.72,1.72,0,1,0-2.43-2.43Z"/><path class="cls-3" d="M38.14,7a1.72,1.72,0,0,0-2.81-.56L33.62,8.15a1.72,1.72,0,0,0,1.22,2.94v5.17a1.72,1.72,0,0,0,3.44,0V7.65A1.74,1.74,0,0,0,38.14,7Z"/></svg>