<?xml version="1.0" encoding="utf-8"?>
<!-- Generator: Adobe Illustrator 20.0.0, SVG Export Plug-In . SVG Version: 6.00 Build 0)  -->
<svg version="1.1" id="Layer_1" xmlns="http://www.w3.org/2000/svg" xmlns:xlink="http://www.w3.org/1999/xlink" x="0px" y="0px"
	 viewBox="0 0 100 100" style="enable-background:new 0 0 100 100;" xml:space="preserve">
<style type="text/css">
	.st0{fill:#FF6600;}
</style>
<title>DevDotSvgGAssets</title>
<g>
	<path class="st0" d="M75.7,90.1c0,1.2-1,2.2-2.2,2.2H15.4c-1.2,0-2.2-1-2.2-2.2V36.9v-4.3h8.6c-0.4,2.9-0.6,5.9-0.6,9H29
		c0-3.2,0.2-6.2,0.6-9h29.7c0.4,2.8,0.6,5.8,0.6,9h7.7c0-3.1-0.2-6.1-0.6-9h16.3v-7.7H65.7C62.1,10.7,54.1,1,44.5,1
		s-17.6,9.7-21.2,23.8H5.5v12v53.2c0,5.5,4.5,9.9,9.9,9.9h58.1c5.5,0,9.9-4.5,9.9-9.9V75.2h-7.7V90.1z M44.5,8.7
		c4.9,0,10.3,6.2,13.2,16.1H31.3C34.2,14.9,39.5,8.7,44.5,8.7z"/>
	<path class="st0" d="M96.3,29.4c-13.7,10.1-25.4,23.1-33.2,33c0,0-5-6.1-7.9-9.3l-4.1,9.7c5.9,8.8,9.8,16.3,11.9,20
		c4.2-7.1,14.4-28.1,35.5-47.8L96.3,29.4z"/>
</g>
</svg>
